SplineFontDB: 1.0
FontName: LomaBold
FullName: Loma Bold
FamilyName: Loma
Weight: Bold
Copyright: Copyright (c) NECTEC, 2003. All rights reserved.
Version: 0.9.1; 2003
ItalicAngle: 0
UnderlinePosition: -217
UnderlineWidth: 150
Ascent: 1638
Descent: 410
NeedsXUIDChange: 1
FSType: 0
PfmFamily: 17
TTFWeight: 700
TTFWidth: 5
Panose: 2 11 6 4 2 2 2 2 2 4
LineGap: 0
VLineGap: 0
OS2TypoAscent: 2089
OS2TypoDescent: -430
OS2WinAscent: 2089
OS2WinDescent: 430
ScriptLang: 2
 1 latn 1 dflt 
 1 thai 1 dflt 
TableOrder: GPOS 1
	'kern'
LangName: 1024 "Copyright (c) NECTEC, 2003. All rights reserved." "Loma" "Bold" "Nectec UI" "Loma Bold" "Version 0.1; 2003 " "Loma-Bold" "SLThaiUI is a trademark of the NECTEC." "" "Mr.Sirichai Lerdvorawut" "" "http://www.opentle.org" "http://www.opentle.org" "GPL" 
LangName: 1033 "" "" "" "Nectec UI" "" "" "" "SLThaiUI is a trademark of the NECTEC." "" "Mr.Sirichai Lerdvorawut" "" "http://www.opentle.org" "http://www.opentle.org" "GPL" 
Encoding: compacted
OldEncoding: unicode
UnicodeInterp: none
DisplaySize: -24
AntiAlias: 1
FitToEm: 1
WinInfo: 95 19 9
BeginChars: 271 271
StartChar: .notdef
Encoding: 0 -1 0
OldEncoding: 0
Width: 1536
Flags: W
Fore
256 0 m 1
 256 1280 l 1
 1280 1280 l 1
 1280 0 l 1
 256 0 l 1
288 32 m 1
 1248 32 l 1
 1248 1248 l 1
 288 1248 l 1
 288 32 l 1
EndSplineSet
EndChar
StartChar: exclam
Encoding: 3 33 5
OldEncoding: 33
Width: 569
Flags: W
Fore
169 999 m 1
 169 1450 l 1
 408 1450 l 1
 408 999 l 1
 365 365 l 1
 213 365 l 1
 169 999 l 1
177 194 m 1
 400 194 l 1
 400 0 l 1
 177 0 l 1
 177 194 l 1
EndSplineSet
EndChar
StartChar: quotedbl
Encoding: 4 34 6
OldEncoding: 34
Width: 727
Flags: W
Fore
156 947 m 1
 106 1217 l 1
 106 1450 l 1
 336 1450 l 1
 336 1217 l 1
 291 947 l 1
 156 947 l 1
437 947 m 1
 389 1217 l 1
 389 1450 l 1
 619 1450 l 1
 619 1217 l 1
 572 947 l 1
 437 947 l 1
EndSplineSet
EndChar
StartChar: numbersign
Encoding: 5 35 7
OldEncoding: 35
Width: 1139
Flags: W
Fore
57 -10 m 1
 144 355 l 1
 21 355 l 1
 21 595 l 1
 183 595 l 1
 248 865 l 1
 21 865 l 1
 21 1105 l 1
 278 1105 l 1
 365 1470 l 1
 605 1470 l 1
 518 1105 l 1
 737 1105 l 1
 824 1470 l 1
 1064 1470 l 1
 977 1105 l 1
 1113 1105 l 1
 1113 865 l 1
 938 864 l 1
 872 595 l 1
 1113 595 l 1
 1113 355 l 1
 842 355 l 1
 763 -10 l 1
 516 -10 l 1
 602 355 l 1
 384 355 l 1
 297 -10 l 1
 57 -10 l 1
414 595 m 1
 632 595 l 1
 698 865 l 1
 479 865 l 1
 414 595 l 1
EndSplineSet
EndChar
StartChar: dollar
Encoding: 6 36 8
OldEncoding: 36
Width: 1139
Flags: W
Fore
462 -37 m 1
 414 -31 370 -20.6667 330 -6 c 0
 178.667 50.6667 95 167.333 79 344 c 1
 76 417 l 1
 285 417 l 1
 285 409 285 409 285 400 c 0
 285 354.667 291.333 316 304 284 c 0
 328 224.667 380.667 181 462 153 c 1
 462 621 l 1
 386 636.333 319.333 666 262 710 c 0
 158 788.667 106 895.667 106 1031 c 0
 106 1121.67 127 1199.33 169 1264 c 0
 231.667 1360.67 329.333 1415.67 462 1429 c 1
 462 1488 l 1
 664 1488 l 1
 664 1429 l 1
 878 1405 992.667 1278.67 1008 1050 c 1
 805 1050 l 1
 803 1072 797.333 1094 788 1116 c 0
 762.667 1179.33 721.333 1220.33 664 1239 c 1
 664 820 l 1
 733.333 807.333 794 785.667 846 755 c 0
 976.667 679 1042 559.667 1042 397 c 0
 1042 281.667 1010 184.333 946 105 c 0
 875.333 18.3333 781.333 -28.3333 664 -35 c 1
 664 -118 l 1
 462 -118 l 1
 462 -37 l 1
462 1241 m 1
 452 1239 442.333 1236.67 433 1234 c 0
 369 1212 331 1164.33 319 1091 c 1
 316 1044 l 1
 316 1028 317.333 1013 320 999 c 0
 332 925 379.333 872 462 840 c 1
 462 1241 l 1
704 167 m 1
 741 186 l 1
 800.333 224 830 290.667 830 386 c 0
 830 412.667 827.333 436.667 822 458 c 1
 810 495 l 1
 786.667 545.667 738 580.333 664 599 c 1
 664 153 l 1
 704 167 l 1
EndSplineSet
EndChar
StartChar: percent
Encoding: 7 37 9
OldEncoding: 37
Width: 1821
Flags: W
Fore
119 1114 m 0
 119 1219.33 145 1308 197 1380 c 0
 249.667 1454 326 1491 426 1491 c 0
 521.333 1491 597.667 1458 655 1392 c 0
 715 1323.33 745 1227.33 745 1104 c 1
 743.667 986 713.333 890.333 654 817 c 1
 596.667 750.333 521.333 717 428 717 c 0
 337.333 717 264 749.667 208 815 c 0
 148.667 884.333 119 984 119 1114 c 0
431 1317 m 0
 394.333 1317 365.667 1301.33 345 1270 c 0
 321.667 1235.33 310 1177.33 310 1096 c 0
 310 1018 322 963.667 346 933 c 0
 369.333 901.667 397.667 886 431 886 c 0
 466.333 886 495.667 901.667 519 933 c 0
 542.333 965 554 1023 554 1107 c 0
 554 1184.33 542.333 1238.67 519 1270 c 0
 495.667 1301.33 466.333 1317 431 1317 c 0
1170 1491 m 1
 1447 1491 l 1
 688 -10 l 1
 411 -10 l 1
 1170 1491 l 1
1067 344 m 0
 1067 449.333 1093 538 1145 610 c 0
 1198.33 684 1275.33 721 1376 721 c 0
 1470.67 721 1546.67 688 1604 622 c 0
 1665.33 552 1696 456 1696 334 c 0
 1696 212.667 1665.33 117 1604 47 c 0
 1545.33 -19.6667 1469.33 -53 1376 -53 c 0
 1282.67 -53 1209 -20 1155 46 c 0
 1096.33 117.333 1067 216.667 1067 344 c 0
1381 546 m 0
 1342.33 546 1312.33 530.333 1291 499 c 0
 1268.33 465 1257 408.333 1257 329 c 0
 1257 254.333 1269 201.667 1293 171 c 0
 1317 139.667 1346.33 124 1381 124 c 0
 1417.67 124 1448 139.667 1472 171 c 0
 1495.33 201.667 1507 258 1507 340 c 0
 1507 414.667 1495 467.667 1471 499 c 0
 1447 530.333 1417 546 1381 546 c 0
EndSplineSet
EndChar
StartChar: ampersand
Encoding: 8 38 10
OldEncoding: 38
Width: 1366
Flags: W
Fore
948 140 m 1
 928.667 119.333 907 100.333 883 83 c 0
 794.333 19 692 -16 576 -22 c 1
 509 -21 l 1
 378.333 -12.3333 273.667 37 195 127 c 1
 123.667 210.333 88 302.333 88 403 c 0
 88 602.333 194.333 752 407 852 c 1
 384.333 878.667 366 901.667 352 921 c 0
 298.667 995.667 272 1076.33 272 1163 c 0
 272 1256.33 307 1334.33 377 1397 c 0
 447.667 1459.67 534.333 1491 637 1491 c 0
 714.333 1491 782.667 1471 842 1431 c 1
 877 1403 l 1
 943.667 1343 977 1268 977 1178 c 0
 977 1170.67 976.667 1163.33 976 1156 c 0
 968.667 1020 883.333 908.333 720 821 c 1
 926 522 l 1
 956 579.333 979 647.667 995 727 c 1
 1221 649 l 1
 1192.33 539.667 1150.33 442.333 1095 357 c 1
 1161.67 269.667 1238 194.667 1324 132 c 1
 1173 -67 l 1
 1101 -19 1026 50 948 140 c 1
609 983 m 1
 642.333 1000.33 667.667 1017.67 685 1035 c 0
 717 1066.33 734.333 1111.67 737 1171 c 0
 737.667 1172.33 737.667 1174 737 1176 c 0
 737 1196 731.667 1214.67 721 1232 c 0
 699.667 1266.67 668.333 1284.67 627 1286 c 0
 601.667 1286 579.333 1278.33 560 1263 c 0
 530.667 1240.33 514.667 1211.67 512 1177 c 0
 512 1167 l 0
 512 1113.67 544.333 1052.33 609 983 c 1
530 671 m 1
 503.333 655 480.667 640 462 626 c 0
 372 559.333 327 487.667 327 411 c 0
 327 353.667 346 301 384 253 c 0
 402 229.667 425.333 212.333 454 201 c 0
 480 190.333 508.667 185 540 185 c 0
 577.333 185 615 192.333 653 207 c 0
 721 233 770 272.667 800 326 c 1
 530 671 l 1
EndSplineSet
EndChar
StartChar: quotesingle
Encoding: 9 39 11
OldEncoding: 39
Width: 391
Flags: W
Fore
107 947 m 1
 61 1221 l 1
 61 1466 l 1
 324 1466 l 1
 324 1221 l 1
 276 947 l 1
 107 947 l 1
EndSplineSet
EndChar
StartChar: parenleft
Encoding: 10 40 12
OldEncoding: 40
Width: 682
Flags: W
Fore
436 -431 m 1
 300.667 -259.667 202.333 -71 141 135 c 0
 101 268.333 81 400.333 81 531 c 0
 81 773 138 999 252 1209 c 0
 298 1294.33 359.333 1388.33 436 1491 c 1
 656 1491 l 1
 563.333 1331.67 500 1211.33 466 1130 c 0
 395.333 961.333 359 767.667 357 549 c 0
 357 539 357 539 357 530 c 0
 357 209.333 456.667 -111 656 -431 c 1
 436 -431 l 1
EndSplineSet
EndChar
StartChar: parenright
Encoding: 11 41 13
OldEncoding: 41
Width: 682
Flags: W
Fore
301 -431 m 1
 79 -431 l 1
 278.333 -111 378 209.333 378 530 c 0
 378 742 345.667 931 281 1097 c 0
 255 1164.33 187.667 1295.67 79 1491 c 1
 301 1491 l 1
 428.333 1321 518.333 1164.67 571 1022 c 0
 627.667 870.667 656 707 656 531 c 0
 656 283 587 36.3333 449 -209 c 0
 404.333 -288.333 355 -362.333 301 -431 c 1
EndSplineSet
EndChar
StartChar: asterisk
Encoding: 12 42 14
OldEncoding: 42
Width: 797
Flags: W
Fore
65 1176 m 1
 107 1357 l 1
 274 1301 l 1
 287.333 1295.67 299.333 1290 310 1284 c 1
 305.333 1326.67 303 1365 303 1399 c 1
 306 1491 l 1
 483 1491 l 1
 488 1349 l 1
 487.333 1327.67 485.333 1305.33 482 1282 c 1
 521.333 1302 583 1325.67 667 1353 c 0
 679 1357 679 1357 688 1360 c 1
 721 1179 l 1
 643 1153 581.667 1137 537 1131 c 2
 513 1128 l 1
 543.667 1101.33 592 1047.67 658 967 c 2
 662 962 l 1
 510 858 l 1
 472.667 908.667 433.333 969.667 392 1041 c 1
 360.667 981.667 324.333 924.333 283 869 c 2
 277 862 l 1
 126 968 l 1
 200 1058.67 248.333 1114.67 271 1136 c 1
 102 1167 l 2
 90 1169.67 77.6667 1172.67 65 1176 c 1
EndSplineSet
EndChar
StartChar: plus
Encoding: 13 43 15
OldEncoding: 43
Width: 1196
Flags: W
Fore
483 237 m 1
 483 611 l 1
 114 611 l 1
 114 837 l 1
 483 837 l 1
 483 1206 l 1
 713 1206 l 1
 713 837 l 1
 1082 837 l 1
 1082 611 l 1
 713 611 l 1
 713 237 l 1
 483 237 l 1
EndSplineSet
EndChar
StartChar: comma
Encoding: 14 44 16
OldEncoding: 44
Width: 569
Flags: W
Fore
122 -22 m 1
 122 231 l 1
 419 231 l 1
 419 -22 l 2
 419 -126.667 395.667 -201.333 349 -246 c 0
 330.333 -264.667 303.333 -282.667 268 -300 c 1
 111 -207 l 1
 167 -182.333 206.333 -142.667 229 -88 c 0
 237.667 -66.6667 242.667 -44.6667 244 -22 c 1
 122 -22 l 1
EndSplineSet
EndChar
StartChar: hyphen
Encoding: 15 45 17
OldEncoding: 45
Width: 682
Flags: W
Fore
65 388 m 1
 65 654 l 1
 618 654 l 1
 618 388 l 1
 65 388 l 1
EndSplineSet
EndChar
StartChar: period
Encoding: 16 46 18
OldEncoding: 46
Width: 569
Flags: W
Fore
154 0 m 1
 154 220 l 1
 430 220 l 1
 430 0 l 1
 154 0 l 1
EndSplineSet
EndChar
StartChar: slash
Encoding: 17 47 19
OldEncoding: 47
Width: 595
Flags: W
Fore
-110 -10 m 1
 477 1470 l 1
 716 1470 l 1
 130 -10 l 1
 -110 -10 l 1
EndSplineSet
EndChar
StartChar: zero
Encoding: 18 48 20
OldEncoding: 48
Width: 1139
Flags: W
Fore
86 736 m 0
 86 886 99.3333 1012.33 126 1115 c 0
 190 1359.67 335.667 1482 563 1482 c 0
 597.667 1482 630.333 1479 661 1473 c 0
 913.667 1423.67 1040 1178 1040 736 c 0
 1040 575.333 1024.33 442.333 993 337 c 0
 925.667 114.333 782.333 -1.33333 563 -10 c 0
 550.333 -10 538 -9.66667 526 -9 c 0
 232.667 10.3333 86 258.667 86 736 c 0
340 735 m 0
 340 416.333 413.333 257 560 257 c 0
 574 257.667 587.667 259.333 601 262 c 0
 721 291.333 781 449 781 735 c 0
 781 765 780.333 793.667 779 821 c 0
 765.667 1082.33 692.333 1213 559 1213 c 0
 513 1213 474.667 1199 444 1171 c 0
 374.667 1107.67 340 962.333 340 735 c 0
EndSplineSet
EndChar
StartChar: one
Encoding: 19 49 21
OldEncoding: 49
Width: 1139
Flags: W
Fore
763 0 m 1
 525 0 l 1
 525 1045 l 1
 454.333 963.667 375.667 904.333 289 867 c 0
 266.333 857 244.333 849.333 223 844 c 1
 223 1104 l 1
 313.667 1146.67 381 1196.33 425 1253 c 0
 467.667 1308.33 501 1381.33 525 1472 c 1
 763 1472 l 1
 763 0 l 1
EndSplineSet
KernsSLIF: 19 -152 0 0
EndChar
StartChar: two
Encoding: 20 50 22
OldEncoding: 50
Width: 1139
Flags: W
Fore
1031 223 m 1
 1031 0 l 1
 62 0 l 1
 71.3333 112 112.333 222.667 185 332 c 0
 213 375.333 244.667 414.667 280 450 c 0
 312 482 398.667 559.333 540 682 c 0
 584.667 720.667 613 746.333 625 759 c 0
 715 850.333 768.667 932 786 1004 c 0
 791.333 1026.67 794 1050 794 1074 c 0
 794 1076 794 1076 794 1079 c 0
 792.667 1145.67 759 1198.33 693 1237 c 0
 652.333 1260.33 610.667 1272.33 568 1273 c 1
 526 1269 l 1
 456 1257 403.667 1224.67 369 1172 c 1
 351 1139 l 1
 338.333 1109.67 331.667 1076.33 331 1039 c 1
 96 1039 l 1
 96 1175.67 142 1285 234 1367 c 0
 320.667 1443.67 433.333 1482 572 1482 c 0
 713.333 1482 826 1443 910 1365 c 0
 989.333 1291.67 1029 1195 1029 1075 c 0
 1029 971.667 986.333 860.667 901 742 c 0
 888 724 888 724 873 705 c 0
 836.333 657.667 769 592.333 671 509 c 0
 569.667 423 500.667 361 464 323 c 0
 430.667 288.333 403.333 255 382 223 c 1
 1031 223 l 1
EndSplineSet
EndChar
StartChar: three
Encoding: 21 51 23
OldEncoding: 51
Width: 1139
Flags: W
Fore
86 427 m 1
 316 427 l 1
 325.333 356.333 357 299.333 411 256 c 0
 453.667 222.667 501 206 553 206 c 0
 643 206 711.333 236.667 758 298 c 0
 789.333 339.333 805 388.333 805 445 c 0
 805 513 775 569 715 613 c 0
 664.333 649.667 605 668 537 668 c 0
 504.333 668 472.333 663.333 441 654 c 1
 441 882 l 1
 516 883 l 1
 632 891 702.667 935.333 728 1016 c 0
 736 1041.33 740 1071 740 1105 c 0
 740 1149.67 717 1189.33 671 1224 c 0
 631.667 1253.33 591 1268 549 1268 c 0
 473.667 1268 416 1241.67 376 1189 c 1
 357 1158 l 1
 344.333 1132.67 336.333 1103.33 333 1070 c 1
 104 1070 l 1
 104 1177.33 141.333 1270 216 1348 c 0
 292 1426.67 387.667 1470.67 503 1480 c 0
 517 1481.33 531 1482 545 1482 c 0
 664.333 1482 764.333 1448.33 845 1381 c 0
 931 1309.67 974 1216.33 974 1101 c 0
 974 984.333 949.667 900.667 901 850 c 1
 874 827 l 1
 856 813.667 835.333 802.667 812 794 c 1
 926 774.667 998 712 1028 606 c 1
 1040 548 l 1
 1044 518 1046 485 1046 449 c 0
 1046 321 1002.33 214.333 915 129 c 0
 830.333 45.6667 722.667 -0.333333 592 -9 c 0
 578.667 -9.66667 565.333 -10 552 -10 c 0
 432 -10 328 26 240 98 c 0
 151.333 171.333 100.667 265 88 379 c 0
 86.6667 395 86 411 86 427 c 1
EndSplineSet
EndChar
StartChar: four
Encoding: 22 52 24
OldEncoding: 52
Width: 1139
Flags: W
Fore
662 0 m 1
 662 327 l 1
 56 327 l 1
 56 552 l 1
 662 1472 l 1
 892 1472 l 1
 892 552 l 1
 1070 552 l 1
 1070 327 l 1
 892 327 l 1
 892 0 l 1
 662 0 l 1
662 552 m 1
 662 1077 l 1
 321 552 l 1
 662 552 l 1
EndSplineSet
EndChar
StartChar: five
Encoding: 23 53 25
OldEncoding: 53
Width: 1139
Flags: W
Fore
85 415 m 1
 330 415 l 1
 336 315 380.333 250 463 220 c 0
 491.667 209.333 522.667 204 556 204 c 0
 638.667 204 703.667 234 751 294 c 0
 791.667 344.667 813.667 412 817 496 c 1
 815 550 l 1
 805.667 644.667 764 710.667 690 748 c 0
 651.333 767.333 605.667 777 553 777 c 1
 503 774 l 1
 445.667 765.333 396.333 736 355 686 c 1
 117 708 l 1
 259 1472 l 1
 988 1472 l 1
 988 1244 l 1
 473 1244 l 1
 404 940 l 1
 454 973.333 496.333 993.667 531 1001 c 0
 549 1005 569 1007 591 1007 c 0
 733 1005 846.667 957 932 863 c 0
 1015.33 772.333 1057 655.333 1057 512 c 0
 1057 364.667 1014.67 243 930 147 c 0
 841.333 47 723 -5.33333 575 -10 c 0
 566 -10 566 -10 556 -10 c 0
 392 -10 267.667 44 183 152 c 0
 128.333 222 95.6667 309.667 85 415 c 1
EndSplineSet
EndChar
StartChar: six
Encoding: 24 54 26
OldEncoding: 54
Width: 1139
Flags: W
Fore
1019 1103 m 1
 807 1104 l 1
 785.667 1174.67 743.333 1221.33 680 1244 c 0
 655.333 1252.67 628.667 1257 600 1257 c 0
 427.333 1257 332.667 1133 316 885 c 0
 316 876.333 315.667 867.333 315 858 c 1
 379.667 937.333 471 977 589 977 c 0
 591 977 591 977 594 977 c 0
 716.667 975.667 820.333 932 905 846 c 1
 940 806 l 1
 995.333 734.667 1029 652.333 1041 559 c 0
 1044.33 532.333 1046 505.667 1046 479 c 0
 1045.33 341.667 1005.33 227.667 926 137 c 0
 844 43 736 -6 602 -10 c 0
 586 -10 l 0
 356.667 -10 204.333 103 129 329 c 0
 94.3333 431.667 77 555.667 77 701 c 0
 77 1107.67 185.667 1356 403 1446 c 0
 461.667 1470 528.333 1482 603 1482 c 0
 717 1482 813.333 1449 892 1383 c 0
 908 1369.67 922.667 1355 936 1339 c 0
 991.333 1273 1019 1194.33 1019 1103 c 1
351 489 m 0
 351 387.667 378.667 310.333 434 257 c 0
 474 219 524.333 200 585 200 c 0
 672.333 200 737 236.667 779 310 c 0
 805.667 357.333 819 414.333 819 481 c 0
 819 583.667 789 660.667 729 712 c 1
 700 733 l 1
 665.333 753.667 625 764 579 764 c 0
 491.667 764 428 727 388 653 c 0
 363.333 607.667 351 553 351 489 c 0
EndSplineSet
EndChar
StartChar: seven
Encoding: 25 55 27
OldEncoding: 55
Width: 1139
Flags: W
Fore
97 1233 m 1
 97 1472 l 1
 1046 1472 l 1
 1046 1233 l 1
 986 1169.67 917 1083 839 973 c 0
 757 857.667 702.333 764 675 692 c 0
 587.667 460 535.667 272.333 519 129 c 0
 513.667 84.3333 511 41.3333 511 0 c 1
 253 0 l 1
 254.333 243.333 318.667 502 446 776 c 0
 496 884 589.667 1024.67 727 1198 c 0
 742 1217 742 1217 755 1233 c 1
 97 1233 l 1
EndSplineSet
EndChar
StartChar: eight
Encoding: 26 56 28
OldEncoding: 56
Width: 1139
Flags: W
Fore
362 805 m 1
 215.333 859 142 958.667 142 1104 c 0
 142 1223.33 184.667 1318 270 1388 c 0
 346.667 1450.67 444.333 1482 563 1482 c 0
 689.667 1482 793 1446 873 1374 c 1
 904 1342 l 1
 960.667 1275.33 989 1194.33 989 1099 c 0
 989 987.667 939.667 901.667 841 841 c 0
 821 828.333 798.333 816.333 773 805 c 1
 886.333 768.333 963.667 709.667 1005 629 c 0
 1031 577 1045.67 512 1049 434 c 1
 1047 380 l 1
 1036.33 278.667 988.333 190.667 903 116 c 0
 819 42.6667 721 1.33333 609 -8 c 0
 594.333 -9.33333 580 -10 566 -10 c 0
 422.667 -10 306.667 31 218 113 c 0
 129.333 194.333 84.3333 301.333 83 434 c 1
 83 439 l 2
 83 583.667 136.667 689.333 244 756 c 0
 278.667 777.333 318 793.667 362 805 c 1
369 1107 m 0
 370.333 1029.67 400.333 975 459 943 c 0
 489.667 926.333 525.667 918 567 918 c 0
 637.667 918 691 942 727 990 c 0
 749.667 1020.67 761 1057 761 1099 c 0
 761 1166.33 735 1217 683 1251 c 0
 649.667 1273 610.333 1284 565 1284 c 0
 499.667 1284 448 1262 410 1218 c 0
 382.667 1186.67 369 1149.67 369 1107 c 0
322 437 m 0
 322 357.667 351 295.333 409 250 c 0
 453 216 506 199 568 199 c 0
 656 199 722.333 228.333 767 287 c 0
 797 326.333 812 375 812 433 c 0
 812 523 775.333 586.333 702 623 c 0
 663.333 641.667 617 651 563 651 c 0
 464.333 651 394.667 619.667 354 557 c 1
 338 525 l 1
 327.333 499 322 469.667 322 437 c 0
EndSplineSet
EndChar
StartChar: nine
Encoding: 27 57 29
OldEncoding: 57
Width: 1139
Flags: W
Fore
139 369 m 1
 354 369 l 1
 362 294.333 405.333 247.333 484 228 c 0
 508.667 222 536 219 566 219 c 0
 670.667 219 741.667 256.667 779 332 c 0
 805 383.333 820.333 465.667 825 579 c 1
 787 541 743 516.667 693 506 c 0
 659 498.667 616 495 564 495 c 0
 442.667 495 340 536.333 256 619 c 0
 172 701 125 806 115 934 c 0
 113.667 949.333 113 965 113 981 c 0
 113 1119.67 152 1235.67 230 1329 c 0
 310.667 1424.33 416.333 1475 547 1481 c 0
 555 1481.67 563.333 1482 572 1482 c 0
 794.667 1482 945 1374.67 1023 1160 c 0
 1061.67 1054 1081 924.333 1081 771 c 0
 1081 364.333 972.333 116 755 26 c 0
 696.333 2 629.667 -10 555 -10 c 0
 441 -10 344.667 23 266 89 c 0
 182 160.333 139.667 253.667 139 369 c 1
800 982 m 0
 800 1080.67 772.667 1155 718 1205 c 1
 691 1226 l 1
 658.333 1246.67 621 1257 579 1257 c 0
 496.333 1257 435 1222 395 1152 c 0
 369.667 1107.33 357 1053.67 357 991 c 0
 357 891.667 386.333 817.667 445 769 c 0
 482.333 737.667 528.667 722 584 722 c 0
 667.333 722 727.667 757.333 765 828 c 0
 788.333 870.667 800 922 800 982 c 0
EndSplineSet
EndChar
StartChar: colon
Encoding: 28 58 30
OldEncoding: 58
Width: 569
Flags: W
Fore
160 832 m 1
 160 1062 l 1
 415 1062 l 1
 415 832 l 1
 160 832 l 1
160 0 m 1
 160 230 l 1
 415 230 l 1
 415 0 l 1
 160 0 l 1
EndSplineSet
EndChar
StartChar: semicolon
Encoding: 29 59 31
OldEncoding: 59
Width: 569
Flags: W
Fore
157 832 m 1
 157 1062 l 1
 412 1062 l 1
 412 832 l 1
 157 832 l 1
157 0 m 1
 157 205 l 1
 412 205 l 1
 412 0 l 2
 412 -163.333 364.667 -262.333 270 -297 c 1
 145 -213 l 1
 202.333 -187.667 237.667 -140.333 251 -71 c 0
 255 -50.3333 257.667 -26.6667 259 0 c 1
 157 0 l 1
EndSplineSet
EndChar
StartChar: less
Encoding: 30 60 32
OldEncoding: 60
Width: 1196
Flags: W
Fore
112 641 m 1
 112 809 l 1
 1083 1219 l 1
 1083 990 l 1
 423 724 l 1
 1083 455 l 1
 1083 226 l 1
 112 641 l 1
EndSplineSet
EndChar
StartChar: equal
Encoding: 31 61 33
OldEncoding: 61
Width: 1196
Flags: W
Fore
1082 812 m 1
 114 812 l 1
 114 1030 l 1
 1082 1030 l 1
 1082 812 l 1
1082 417 m 1
 114 417 l 1
 114 635 l 1
 1082 635 l 1
 1082 417 l 1
EndSplineSet
EndChar
StartChar: greater
Encoding: 32 62 34
OldEncoding: 62
Width: 1196
Flags: W
Fore
1083 641 m 1
 112 226 l 1
 112 455 l 1
 750 724 l 1
 112 990 l 1
 112 1219 l 1
 1083 809 l 1
 1083 641 l 1
EndSplineSet
EndChar
StartChar: question
Encoding: 33 63 35
OldEncoding: 63
Width: 1139
Flags: W
Fore
432 361 m 1
 435.333 477.667 454.667 569 490 635 c 0
 505.333 663.667 525 691.667 549 719 c 0
 555 725.667 585 753.667 639 803 c 0
 723 881 776 949.667 798 1009 c 0
 808 1035.67 813 1062 813 1088 c 0
 813 1170 774.667 1228.67 698 1264 c 0
 658.667 1282 615.333 1291 568 1291 c 0
 502 1291 445.333 1264.33 398 1211 c 1
 373 1177 l 1
 351 1138 l 1
 338.333 1110 329.333 1079.33 324 1046 c 1
 90 1046 l 1
 98 1182.67 145.333 1293 232 1377 c 0
 318.667 1461.67 429.667 1504 565 1504 c 0
 695.667 1504 804.667 1468.67 892 1398 c 0
 987.333 1320.67 1035.33 1216 1036 1084 c 0
 1036 1066 1034.67 1048 1032 1030 c 0
 1019.33 952.667 973.667 870 895 782 c 1
 795 676 l 1
 722.333 597.333 682.333 505.667 675 401 c 0
 674.333 387.667 674 374.333 674 361 c 1
 432 361 l 1
421 0 m 1
 421 235 l 1
 695 235 l 1
 695 0 l 1
 421 0 l 1
EndSplineSet
EndChar
StartChar: at
Encoding: 34 64 36
OldEncoding: 64
Width: 2079
Flags: W
Fore
1161 121 m 1
 1089.67 38.3333 987.333 -3 854 -3 c 0
 746 -3 659.333 44 594 138 c 0
 532.667 224.667 502 332.333 502 461 c 0
 502 599 539.667 726 615 842 c 0
 684.333 948 770 1020 872 1058 c 0
 917.333 1075.33 963.667 1084 1011 1084 c 0
 1107 1084 1182 1056.67 1236 1002 c 0
 1252 986 1264.67 968.333 1274 949 c 0
 1275.33 945 1276.67 941.333 1278 938 c 1
 1312 1079 l 1
 1526 1079 l 1
 1380 379 l 1
 1352 285 l 1
 1353 268 l 1
 1355.67 258 1362 248 1372 238 c 0
 1386 225.333 1402.67 219 1422 219 c 0
 1504.67 219 1577.33 268.333 1640 367 c 0
 1692.67 449.667 1725 543 1737 647 c 1
 1740 711 l 1
 1740 714 1740 714 1740 716 c 0
 1736.67 884.667 1672 1020 1546 1122 c 0
 1430 1216.67 1281.33 1269 1100 1279 c 0
 1097 1279 1097 1279 1093 1279 c 2
 1015 1279 l 1
 828.333 1268.33 675 1194 555 1056 c 0
 552.333 1053.33 550 1050.67 548 1048 c 0
 404 877.333 332 689.667 332 485 c 0
 332 291.667 386 132.333 494 7 c 0
 518 -21 544 -46 572 -68 c 0
 678 -151.333 804 -202.333 950 -221 c 0
 1001.33 -227.667 1058 -231 1120 -231 c 0
 1268 -231 1385 -213 1471 -177 c 0
 1545.67 -145.667 1631 -86.6667 1727 0 c 0
 1737 9 1737 9 1748 19 c 1
 2005 19 l 1
 1941 -113 1834.67 -219.333 1686 -300 c 0
 1524.67 -387.333 1337 -431 1123 -431 c 0
 831 -431 596 -361.333 418 -222 c 0
 258 -96.6667 160.667 68.3333 126 273 c 0
 116 333.667 111 399 111 469 c 0
 111 705 171 911 291 1087 c 0
 423.667 1280.33 603.667 1405.33 831 1462 c 0
 916.333 1482.67 1006.67 1493 1102 1493 c 0
 1308 1493 1486.67 1440.67 1638 1336 c 0
 1713.33 1283.33 1776.33 1220.33 1827 1147 c 0
 1913 1021.67 1956 877 1956 713 c 0
 1956 573.667 1918.67 437.667 1844 305 c 0
 1772.67 178.333 1683.33 85.6667 1576 27 c 0
 1504 -13 1430 -33 1354 -33 c 0
 1308 -33 1270.67 -26 1242 -12 c 0
 1214 2 1193.33 22 1180 48 c 0
 1170 66.6667 1163.67 91 1161 121 c 1
906 238 m 0
 987.333 238 1055.33 279 1110 361 c 0
 1152.67 425.667 1178 499.667 1186 583 c 1
 1188 643 l 1
 1186 738.333 1154.67 801 1094 831 c 0
 1070.67 843 1043.67 849 1013 849 c 0
 926.333 849 856 800.667 802 704 c 0
 786 674.667 772.333 642.333 761 607 c 0
 747.667 564.333 741 520 741 474 c 0
 741 384.667 763 318.667 807 276 c 0
 833.667 250.667 866.667 238 906 238 c 0
EndSplineSet
EndChar
StartChar: A
Encoding: 35 65 37
OldEncoding: 65
Width: 1366
Flags: W
Fore
559 1450 m 1
 768 1450 l 1
 1368 0 l 1
 1079 0 l 1
 878 433 l 1
 462 433 l 1
 273 0 l 1
 -2 0 l 1
 559 1450 l 1
833 673 m 1
 659 1109 l 1
 505 673 l 1
 833 673 l 1
EndSplineSet
KernsSLIF: 91 -37 0 0 89 -37 0 0 88 -37 0 0 59 -152 0 0 57 -76 0 0 56 -152 0 0 54 -152 0 0
EndChar
StartChar: B
Encoding: 36 66 38
OldEncoding: 66
Width: 1366
Flags: W
Fore
164 0 m 1
 164 633 l 1
 164 1450 l 1
 700 1450 l 2
 812 1450 902 1435.33 970 1406 c 0
 1048.67 1371.33 1107.33 1317 1146 1243 c 0
 1172.67 1192.33 1186 1137.67 1186 1079 c 0
 1186 934.333 1134.67 834 1032 778 c 0
 1028 776 1024.33 774 1021 772 c 1
 1178.33 726 1257 609 1257 421 c 0
 1257 325.667 1228.67 240 1172 164 c 0
 1124.67 100.667 1056 55.6667 966 29 c 0
 959.333 27.6667 952.667 26 946 24 c 0
 881.333 8 802.333 0 709 0 c 2
 164 0 l 1
384 842 m 1
 661 842 l 2
 751.667 842 818.667 851.667 862 871 c 0
 870.667 875 877.333 879.333 882 884 c 0
 913.333 913.333 934 942.667 944 972 c 0
 951.333 995.333 955 1023.33 955 1056 c 0
 954.333 1128 930 1177.33 882 1204 c 0
 849.333 1222 767.667 1231 637 1231 c 2
 384 1231 l 1
 384 842 l 1
384 220 m 1
 709 220 l 2
 822.333 220 899 232.333 939 257 c 0
 953 267 l 0
 983 291.667 1002 321 1010 355 c 0
 1014 373.667 1016 395.667 1016 421 c 0
 1016 489.667 1000 538.333 968 567 c 1
 953 579 l 1
 912.333 607.667 853.333 623.667 776 627 c 1
 683 629 l 1
 384 629 l 1
 384 220 l 1
EndSplineSet
EndChar
StartChar: C
Encoding: 37 67 39
OldEncoding: 67
Width: 1479
Flags: W
Fore
1168 480 m 1
 1398 480 l 1
 1344 269.333 1237 125.667 1077 49 c 0
 993.667 9.66667 898.333 -10 791 -10 c 0
 561 -10 384.667 67 262 221 c 0
 158 352.333 104.667 522.333 102 731 c 0
 102 745 l 0
 102 944.333 156 1109.67 264 1241 c 0
 368 1368.33 506.333 1444.33 679 1469 c 0
 716.333 1474.33 754.667 1477 794 1477 c 0
 994 1477 1149 1409.33 1259 1274 c 1
 1294 1226 l 1
 1328 1174 1354.33 1115.33 1373 1050 c 1
 1143 1050 l 1
 1116.33 1134 1058 1193.33 968 1228 c 0
 916.667 1247.33 857.333 1257 790 1257 c 0
 643.333 1257 529.333 1205 448 1101 c 0
 376 1009 340 890.667 340 746 c 0
 340 598 379.667 473.667 459 373 c 0
 533 279.667 626.333 226.333 739 213 c 0
 755 211 771.333 210 788 210 c 0
 887.333 210 975 238.667 1051 296 c 0
 1119.67 348 1158.67 409.333 1168 480 c 1
EndSplineSet
EndChar
StartChar: D
Encoding: 38 68 40
OldEncoding: 68
Width: 1479
Flags: W
Fore
168 0 m 1
 168 1450 l 1
 673 1450 l 2
 999 1450 1211.33 1340 1310 1120 c 0
 1356.67 1016.67 1380 887.667 1380 733 c 0
 1380 410.333 1277 193.333 1071 82 c 0
 969.667 27.3333 845 -1.73472e-18 697 0 c 2
 168 0 l 1
390 213 m 1
 675 213 l 2
 821 213 936.333 261.667 1021 359 c 0
 1101.67 452.333 1142.33 578 1143 736 c 1
 1139 816 l 1
 1121.67 999.333 1044 1123.67 906 1189 c 0
 838.667 1221 760 1237 670 1237 c 2
 390 1237 l 1
 390 213 l 1
EndSplineSet
EndChar
StartChar: E
Encoding: 39 69 41
OldEncoding: 69
Width: 1366
Flags: W
Fore
162 0 m 1
 162 1450 l 1
 1222 1450 l 1
 1222 1218 l 1
 401 1218 l 1
 401 851 l 1
 1021 851 l 1
 1021 621 l 1
 401 621 l 1
 401 229 l 1
 1222 229 l 1
 1222 0 l 1
 162 0 l 1
EndSplineSet
EndChar
StartChar: F
Encoding: 40 70 42
OldEncoding: 70
Width: 1251
Flags: W
Fore
167 0 m 1
 167 1450 l 1
 1158 1450 l 1
 1158 1218 l 1
 406 1218 l 1
 406 851 l 1
 1008 851 l 1
 1008 621 l 1
 406 621 l 1
 406 0 l 1
 167 0 l 1
EndSplineSet
KernsSLIF: 35 -113 0 0 16 -227 0 0 14 -227 0 0
EndChar
StartChar: G
Encoding: 41 71 43
OldEncoding: 71
Width: 1479
Flags: W
Fore
1404 684 m 1
 1404.67 670.667 1405 657.333 1405 644 c 1
 1404 546 l 1
 1383.33 175.333 1179 -10 791 -10 c 0
 779 -10 767.333 -9.66667 756 -9 c 0
 538 -1 370.667 79.6667 254 233 c 0
 152.667 367 102 537.667 102 745 c 0
 102 785 104.333 824 109 862 c 0
 131.667 1044.67 202 1191.33 320 1302 c 0
 444.667 1418.67 602.667 1477 794 1477 c 0
 910 1477 1011.67 1453.67 1099 1407 c 0
 1233.67 1335 1325 1216 1373 1050 c 1
 1115 1050 l 1
 1106.33 1074 1093.33 1096.67 1076 1118 c 1
 1049 1146 l 1
 983 1206 896.667 1236 790 1236 c 0
 776 1236 762 1235.33 748 1234 c 0
 635.333 1224 541 1177 465 1093 c 0
 381 1001 339 885.333 339 746 c 0
 339 732.667 339.333 719.667 340 707 c 0
 347.333 567.667 389.667 452 467 360 c 0
 550.333 260 657.333 210 788 210 c 0
 877.333 210 955 226.333 1021 259 c 0
 1100.33 299 1146.67 354.333 1160 425 c 1
 1164 464 l 1
 905 464 l 1
 905 684 l 1
 1404 684 l 1
EndSplineSet
EndChar
StartChar: H
Encoding: 42 72 44
OldEncoding: 72
Width: 1479
Flags: W
Fore
164 0 m 1
 164 1450 l 1
 404 1450 l 1
 404 863 l 1
 1074 863 l 1
 1074 1450 l 1
 1314 1450 l 1
 1314 0 l 1
 1074 0 l 1
 1074 619 l 1
 404 619 l 1
 404 0 l 1
 164 0 l 1
EndSplineSet
EndChar
StartChar: I
Encoding: 43 73 45
OldEncoding: 73
Width: 650
Flags: W
Fore
625 210 m 1
 625 0 l 1
 25 0 l 1
 25 210 l 1
 205 210 l 1
 205 1250 l 1
 25 1250 l 1
 25 1450 l 1
 625 1450 l 1
 625 1250 l 1
 445 1250 l 1
 445 210 l 1
 625 210 l 1
EndSplineSet
EndChar
StartChar: J
Encoding: 44 74 46
OldEncoding: 74
Width: 1024
Flags: W
Fore
865 1450 m 1
 865 456 l 2
 865 329.333 846.333 233.333 809 168 c 0
 801 154.667 792.333 141.667 783 129 c 0
 711.667 36.3333 605 -10 463 -10 c 0
 335 -10 238.333 24 173 92 c 0
 118.333 148.667 84 237.333 70 358 c 0
 66 390 64 422.333 64 455 c 1
 301 455 l 1
 305 351.667 333.333 280.333 386 241 c 0
 410 223.667 437.333 215 468 215 c 0
 528.667 215 575.667 245.333 609 306 c 0
 633 350.667 645 405.667 645 471 c 2
 645 1235 l 1
 408 1235 l 1
 408 1450 l 1
 865 1450 l 1
EndSplineSet
EndChar
StartChar: K
Encoding: 45 75 47
OldEncoding: 75
Width: 1366
Flags: W
Fore
150 0 m 1
 150 1450 l 1
 376 1450 l 1
 376 825 l 1
 1022 1450 l 1
 1316 1450 l 1
 659 806 l 1
 1346 0 l 1
 1053 -1 l 1
 479 610 l 1
 376 499 l 1
 376 0 l 1
 150 0 l 1
EndSplineSet
EndChar
StartChar: L
Encoding: 46 76 48
OldEncoding: 76
Width: 1139
Flags: W
Fore
150 0 m 1
 150 1450 l 1
 380 1450 l 1
 380 219 l 1
 1060 219 l 1
 1060 0 l 1
 150 0 l 1
EndSplineSet
KernsSLIF: 91 -76 0 0 59 -152 0 0 57 -152 0 0 56 -152 0 0 54 -152 0 0
EndChar
StartChar: M
Encoding: 47 77 49
OldEncoding: 77
Width: 1706
Flags: W
Fore
152 0 m 1
 152 1450 l 1
 360 1450 l 1
 851 202 l 1
 1340 1450 l 1
 1550 1450 l 1
 1550 0 l 1
 1330 0 l 1
 1330 762 l 1
 1026 0 l 1
 676 0 l 1
 372 762 l 1
 372 0 l 1
 152 0 l 1
EndSplineSet
EndChar
StartChar: N
Encoding: 48 78 50
OldEncoding: 78
Width: 1479
Flags: W
Fore
156 0 m 1
 156 1450 l 1
 395 1450 l 1
 1071 471 l 1
 1071 1450 l 1
 1311 1450 l 1
 1311 0 l 1
 1071 0 l 1
 395 975 l 1
 395 0 l 1
 156 0 l 1
EndSplineSet
EndChar
StartChar: O
Encoding: 49 79 51
OldEncoding: 79
Width: 1593
Flags: W
Fore
104 714 m 0
 104 955.333 167.667 1144 295 1280 c 0
 417.667 1410 586.333 1476 801 1478 c 1
 1005.67 1478 1170 1415.33 1294 1290 c 0
 1416.67 1166 1483.67 998.667 1495 788 c 0
 1495.67 769.333 1496 750.333 1496 731 c 0
 1496 521.667 1441.33 350.667 1332 218 c 0
 1218.67 82 1063.33 6.66667 866 -8 c 0
 844 -9.33333 822 -10 800 -10 c 0
 610 -10 452.667 46.3333 328 159 c 0
 205.333 269 133 416.333 111 601 c 0
 106.333 637.667 104 675.333 104 714 c 0
350 712 m 0
 350 541.333 398.333 412.333 495 325 c 0
 572.333 255 674 220 800 220 c 0
 974.667 220 1100.33 284.333 1177 413 c 0
 1227 497 1252 603 1252 731 c 0
 1252 914.333 1202.33 1051.33 1103 1142 c 0
 1026.33 1211.33 926.333 1246 803 1246 c 0
 577.667 1246 436 1144.67 378 942 c 0
 359.333 875.333 350 798.667 350 712 c 0
EndSplineSet
EndChar
StartChar: P
Encoding: 50 80 52
OldEncoding: 80
Width: 1366
Flags: W
Fore
158 0 m 1
 158 1450 l 1
 711 1450 l 2
 956.333 1450 1120.67 1395 1204 1285 c 0
 1220.67 1263 1234.33 1238.67 1245 1212 c 0
 1266.33 1160 1277 1098 1277 1026 c 0
 1277 798.667 1168 658 950 604 c 0
 885.333 588 811.333 580 728 580 c 2
 402 580 l 1
 402 0 l 1
 158 0 l 1
402 792 m 1
 677 792 l 2
 843 792 948.333 828 993 900 c 0
 1013 931.333 1023 971.333 1023 1020 c 0
 1023 1109.33 985 1170 909 1202 c 0
 855 1224.67 776.333 1236 673 1236 c 2
 402 1236 l 1
 402 792 l 1
EndSplineSet
KernsSLIF: 35 -152 0 0 16 -264 0 0 14 -264 0 0
EndChar
StartChar: Q
Encoding: 51 81 53
OldEncoding: 81
Width: 1659
Flags: W
Fore
1167 392 m 1
 1224.33 461.333 1256 563.667 1262 699 c 0
 1262 717 1262 717 1262 736 c 0
 1262 918.667 1211.33 1055.33 1110 1146 c 0
 1032 1216 929.333 1251 802 1251 c 0
 571.333 1251 426.333 1149.67 367 947 c 0
 347 881 337 804.333 337 717 c 0
 337 541 390.333 409.333 497 322 c 0
 516.333 306 537.333 292 560 280 c 1
 580 354.667 627 412.667 701 454 c 0
 737.667 474.667 777.333 488.667 820 496 c 0
 844.667 500.667 869.333 503 894 503 c 0
 984 503 1062.67 477 1130 425 c 1
 1144 415 1156.33 404 1167 392 c 1
1317 204 m 1
 1333.67 185.333 1358.67 175.667 1392 175 c 0
 1406 175 1420.33 177 1435 181 c 0
 1473.67 190.333 1506.33 206 1533 228 c 1
 1659 90 l 1
 1585 20.6667 1498.33 -14 1399 -14 c 0
 1320.33 -14 1252.33 7.33333 1195 50 c 0
 1179.67 62 1166.67 74.6667 1156 88 c 1
 1077.33 36 993.333 5 904 -5 c 0
 873.333 -8.33333 838.667 -10 800 -10 c 0
 610 -10 452.667 46.3333 328 159 c 0
 205.333 269 133 416.333 111 601 c 0
 106.333 637.667 104 675.333 104 714 c 0
 104 955.333 167.667 1144 295 1280 c 0
 417.667 1410 586.333 1476 801 1478 c 1
 1003 1478 1166 1416 1290 1292 c 0
 1411.33 1171.33 1479 1009.33 1493 806 c 0
 1495 781.333 1496 756.333 1496 731 c 0
 1496 474.333 1436.33 298.667 1317 204 c 1
1050 226 m 1
 1010 273.333 964.667 297.333 914 298 c 0
 902 298 889.333 296.667 876 294 c 0
 806 280.667 760 240.667 738 174 c 1
 762 167.333 789.667 164 821 164 c 0
 893.667 164 959 178 1017 206 c 0
 1030.33 212.667 1041.33 219.333 1050 226 c 1
EndSplineSet
EndChar
StartChar: R
Encoding: 52 82 54
OldEncoding: 82
Width: 1400
Flags: W
Fore
663 580 m 1
 384 580 l 1
 384 0 l 1
 158 0 l 1
 158 1450 l 1
 711 1450 l 2
 970.333 1450 1139.33 1387.33 1218 1262 c 0
 1257.33 1200.67 1277 1122 1277 1026 c 0
 1277 879.333 1228 766.333 1130 687 c 0
 1074 641.667 1005.33 611.333 924 596 c 1
 1387 0 l 1
 1072 0 l 1
 663 580 l 1
384 786 m 1
 665 786 l 2
 839 786 947 828 989 912 c 0
 1003.67 942 1011 978 1011 1020 c 0
 1011 1118 964.667 1182.33 872 1213 c 0
 820 1230.33 749.667 1239 661 1239 c 2
 384 1239 l 1
 384 786 l 1
EndSplineSet
KernsSLIF: 59 -37 0 0 57 -37 0 0 56 -37 0 0 54 -37 0 0
EndChar
StartChar: S
Encoding: 53 83 55
OldEncoding: 83
Width: 1366
Flags: W
Fore
92 502 m 1
 325 502 l 1
 339.667 384.667 397 302.333 497 255 c 0
 555 227.667 625.333 214 708 214 c 0
 823.333 214 910 241 968 295 c 0
 1004 327.667 1022 367 1022 413 c 0
 1021.33 467.667 999.667 509.667 957 539 c 0
 941 550.333 920.667 561.333 896 572 c 0
 846 593.333 746.667 625 598 667 c 0
 454.667 707.667 358.667 742.333 310 771 c 0
 218.667 825 166 905.667 152 1013 c 0
 149.333 1030.33 148 1048.33 148 1067 c 0
 148 1195 200 1296 304 1370 c 0
 398.667 1437.33 518.667 1471 664 1471 c 0
 912 1471 1078.67 1379 1164 1195 c 0
 1188 1143 1205 1084.33 1215 1019 c 1
 981 1019 l 1
 953 1163 861 1239.67 705 1249 c 0
 694.333 1249.67 683.333 1250 672 1250 c 0
 561.333 1250 480.333 1226.33 429 1179 c 1
 409 1157 l 1
 393 1134.33 385 1108.67 385 1080 c 0
 385.667 1033.33 403.667 997 439 971 c 0
 451.667 962.333 468.333 953 489 943 c 0
 530.333 923 658.333 880.667 873 816 c 0
 945 794.667 990.333 780.333 1009 773 c 0
 1120.33 730.333 1193.67 669.333 1229 590 c 0
 1249 544.667 1259 491 1259 429 c 0
 1259 302.333 1209 198 1109 116 c 0
 1015.67 40 897.667 -1.66667 755 -9 c 0
 742.333 -9.66667 729.667 -10 717 -10 c 0
 473.667 -10 299.667 56 195 188 c 0
 129.667 270 95.3333 374.667 92 502 c 1
EndSplineSet
EndChar
StartChar: T
Encoding: 54 84 56
OldEncoding: 84
Width: 1251
Flags: W
Fore
508 0 m 1
 508 1231 l 1
 48 1231 l 1
 48 1450 l 1
 1210 1450 l 1
 1210 1231 l 1
 748 1231 l 1
 748 0 l 1
 508 0 l 1
EndSplineSet
KernsSLIF: 91 -113 0 0 89 -113 0 0 87 -76 0 0 85 -227 0 0 84 -76 0 0 81 -227 0 0 75 -76 0 0 71 -227 0 0 69 -227 0 0 67 -227 0 0 49 -37 0 0 35 -152 0 0 29 -227 0 0 28 -227 0 0 16 -227 0 0 15 -113 0 0 14 -227 0 0
EndChar
StartChar: U
Encoding: 55 85 57
OldEncoding: 85
Width: 1479
Flags: W
Fore
1065 1450 m 1
 1314 1450 l 1
 1314 567 l 2
 1314 182.333 1123 -10 741 -10 c 0
 437 -10 252.667 107 188 341 c 0
 170 406.333 161 481.667 161 567 c 2
 161 1450 l 1
 411 1450 l 1
 411 568 l 2
 411 442 453 350.667 537 294 c 0
 590.333 258 657 240 737 240 c 0
 871 240 965.333 286.333 1020 379 c 0
 1050 430.333 1065 493.333 1065 568 c 2
 1065 1450 l 1
EndSplineSet
EndChar
StartChar: V
Encoding: 56 86 58
OldEncoding: 86
Width: 1366
Flags: W
Fore
577 0 m 1
 9 1450 l 1
 344 1450 l 1
 677 471 l 1
 1023 1450 l 1
 1350 1450 l 1
 776 0 l 1
 577 0 l 1
EndSplineSet
KernsSLIF: 91 -76 0 0 87 -76 0 0 84 -76 0 0 81 -113 0 0 75 -37 0 0 71 -113 0 0 67 -152 0 0 35 -152 0 0 29 -76 0 0 28 -76 0 0 16 -188 0 0 15 -113 0 0 14 -188 0 0
EndChar
StartChar: W
Encoding: 57 87 59
OldEncoding: 87
Width: 1933
Flags: W
Fore
366 0 m 1
 25 1450 l 1
 279 1450 l 1
 513 519 l 1
 822 1450 l 1
 1092 1450 l 1
 1409 519 l 1
 1626 1450 l 1
 1897 1450 l 1
 1566 0 l 1
 1299 0 l 1
 961 999 l 1
 618 0 l 1
 366 0 l 1
EndSplineSet
KernsSLIF: 91 -18 0 0 87 -37 0 0 84 -37 0 0 81 -37 0 0 71 -37 0 0 67 -76 0 0 35 -76 0 0 29 -37 0 0 28 -37 0 0 16 -113 0 0 15 -37 0 0 14 -113 0 0
EndChar
StartChar: X
Encoding: 58 88 60
OldEncoding: 88
Width: 1366
Flags: W
Fore
9 0 m 1
 494 756 l 1
 76 1450 l 1
 386 1450 l 1
 681 972 l 1
 1003 1450 l 1
 1313 1450 l 1
 868 756 l 1
 1353 0 l 1
 1043 0 l 1
 681 544 l 1
 319 0 l 1
 9 0 l 1
EndSplineSet
EndChar
StartChar: Y
Encoding: 59 89 61
OldEncoding: 89
Width: 1366
Flags: W
Fore
526 0 m 1
 526 621 l 1
 6 1451 l 1
 326 1451 l 1
 668 887 l 1
 1030 1451 l 1
 1350 1451 l 1
 810 621 l 1
 810 0 l 1
 526 0 l 1
EndSplineSet
KernsSLIF: 88 -113 0 0 87 -113 0 0 83 -188 0 0 82 -152 0 0 81 -188 0 0 75 -76 0 0 71 -188 0 0 67 -152 0 0 35 -152 0 0 29 -133 0 0 28 -113 0 0 16 -264 0 0 15 -188 0 0 14 -264 0 0
EndChar
StartChar: Z
Encoding: 60 90 62
OldEncoding: 90
Width: 1251
Flags: W
Fore
41 0 m 1
 41 237 l 1
 885 1220 l 1
 45 1220 l 1
 45 1450 l 1
 1213 1450 l 1
 1213 1220 l 1
 375 230 l 1
 1200 230 l 1
 1200 0 l 1
 41 0 l 1
EndSplineSet
EndChar
StartChar: bracketleft
Encoding: 61 91 63
OldEncoding: 91
Width: 569
Flags: W
Fore
139 -407 m 1
 139 1466 l 1
 536 1466 l 1
 536 1278 l 1
 359 1278 l 1
 359 -219 l 1
 536 -219 l 1
 536 -407 l 1
 139 -407 l 1
EndSplineSet
EndChar
StartChar: backslash
Encoding: 62 92 64
OldEncoding: 92
Width: 569
Flags: W
Fore
386 -25 m 1
 -39 1491 l 1
 185 1491 l 1
 609 -25 l 1
 386 -25 l 1
EndSplineSet
EndChar
StartChar: bracketright
Encoding: 63 93 65
OldEncoding: 93
Width: 569
Flags: W
Fore
436 -407 m 1
 39 -407 l 1
 39 -219 l 1
 218 -219 l 1
 218 1277 l 1
 39 1277 l 1
 39 1466 l 1
 436 1466 l 1
 436 -407 l 1
EndSplineSet
EndChar
StartChar: asciicircum
Encoding: 64 94 66
OldEncoding: 94
Width: 961
Flags: W
Fore
288 690 m 1
 54 690 l 1
 387 1491 l 1
 572 1491 l 1
 907 690 l 1
 676 690 l 1
 479 1209 l 1
 288 690 l 1
EndSplineSet
EndChar
StartChar: underscore
Encoding: 65 95 67
OldEncoding: 95
Width: 1139
Flags: W
Fore
-31 -427 m 1
 -31 -237 l 1
 1162 -237 l 1
 1162 -427 l 1
 -31 -427 l 1
EndSplineSet
EndChar
StartChar: grave
Encoding: 66 96 68
OldEncoding: 96
Width: 682
Flags: W
Fore
495 1194 m 1
 291 1194 l 1
 60 1474 l 1
 360 1474 l 1
 495 1194 l 1
EndSplineSet
EndChar
StartChar: a
Encoding: 67 97 69
OldEncoding: 97
Width: 1139
Flags: W
Fore
792 96 m 1
 719.333 34.6667 639 -2.66667 551 -16 c 0
 517.667 -21.3333 479.667 -24 437 -24 c 0
 320.333 -24 230.667 4.66667 168 62 c 0
 105.333 118.667 74 191.333 74 280 c 0
 74 424 152 521.667 308 573 c 0
 359.333 590.333 420.667 603.333 492 612 c 0
 600 624.667 694.667 645.333 776 674 c 1
 774 721 l 1
 764 804.333 714.667 854 626 870 c 0
 605.333 874 582.667 876 558 876 c 0
 480.667 876 418.667 855.333 372 814 c 0
 346 790.667 328 762.333 318 729 c 1
 105 759 l 1
 140.333 925.667 239.667 1028.33 403 1067 c 0
 455.667 1079.67 516 1086 584 1086 c 0
 768 1086 889.333 1039.33 948 946 c 1
 968 908 l 1
 975.333 890.667 981.333 871.667 986 851 c 0
 992 820.333 995 765 995 685 c 2
 995 445 l 2
 995 277.667 998.667 172 1006 128 c 0
 1014 83.3333 1029.33 40.6667 1052 0 c 1
 814 0 l 1
 802.667 31.3333 795.333 63.3333 792 96 c 1
775 487 m 1
 718.333 465.667 633.667 447.667 521 433 c 0
 428.333 420.333 367.333 401.333 338 376 c 0
 314 354.667 302 325.667 302 289 c 0
 302 231 332.667 191.333 394 170 c 0
 420.667 160 451.667 155 487 155 c 0
 583 155 658.333 183.333 713 240 c 0
 727.667 255.333 740 272.333 750 291 c 0
 766.667 323 775 370.667 775 434 c 2
 775 487 l 1
EndSplineSet
EndChar
StartChar: b
Encoding: 68 98 70
OldEncoding: 98
Width: 1139
Flags: W
Fore
345 0 m 1
 134 0 l 1
 134 1466 l 1
 358 1466 l 1
 358 990 l 1
 436 1054 518.333 1086 605 1086 c 0
 747 1086 859.333 1032.67 942 926 c 1
 972 881 l 1
 1027.33 789 1055 677.667 1055 547 c 0
 1055 373.667 1012.33 236.667 927 136 c 0
 845 38.6667 734.667 -10 596 -10 c 0
 506 -10 429.667 15.3333 367 66 c 0
 359.667 71.3333 352.333 77.3333 345 84 c 1
 345 0 l 1
346 538 m 0
 346 410.667 375.667 317 435 257 c 0
 474.333 217.667 523.333 198 582 198 c 0
 685.333 198.667 760 243.667 806 333 c 0
 834 387 848 453 848 531 c 0
 848 665 813 761 743 819 c 0
 717.667 839.667 688.333 854.333 655 863 c 1
 609 869 l 2
 603 869.667 596.333 870 589 870 c 0
 513 870 451.667 833 405 759 c 0
 365.667 696.333 346 622.667 346 538 c 0
EndSplineSet
EndChar
StartChar: c
Encoding: 69 99 71
OldEncoding: 99
Width: 1024
Flags: W
Fore
788 403 m 1
 1005 403 l 1
 999.667 244.333 942 129.667 832 59 c 0
 788.667 31 738.333 11.6667 681 1 c 0
 644.333 -6.33333 605 -10 563 -10 c 0
 420.333 -10 304.667 38.3333 216 135 c 0
 127.333 232.333 82 360 80 518 c 0
 80 523 80 523 80 527 c 0
 80 719 130.667 864.333 232 963 c 0
 315.333 1045 426 1086 564 1086 c 0
 700.667 1086 810 1046.33 892 967 c 0
 966 895.667 1003 805.333 1003 696 c 1
 788 696 l 1
 786.667 757.333 757.667 806 701 842 c 0
 661.667 866.667 618.333 879 571 879 c 0
 466.333 879 391 830.667 345 734 c 0
 323.667 689.333 311 637 307 577 c 0
 305.667 562.333 305 547.333 305 532 c 0
 305 421.333 331.667 335.667 385 275 c 0
 429 225 487.667 200 561 200 c 0
 659.667 200 727 232.333 763 297 c 0
 779 326.333 787.333 361.667 788 403 c 1
EndSplineSet
EndChar
StartChar: d
Encoding: 70 100 72
OldEncoding: 100
Width: 1139
Flags: W
Fore
778 84 m 1
 770.667 77.3333 763.333 71.3333 756 66 c 0
 693.333 15.3333 617 -10 527 -10 c 0
 388.333 -10 278 38.6667 196 136 c 0
 110.667 236.667 68 373.667 68 547 c 0
 68 701.667 105.667 828 181 926 c 0
 263.667 1032.67 376 1086 518 1086 c 0
 604.667 1086 687 1054 765 990 c 1
 765 1466 l 1
 989 1466 l 1
 989 0 l 1
 778 0 l 1
 778 84 l 1
777 538 m 0
 777 622.667 757.333 696.333 718 759 c 0
 671.333 833 610 870 534 870 c 0
 472.667 870 421.333 853 380 819 c 0
 310 761 275 665 275 531 c 0
 275 453 289 387 317 333 c 0
 363 243.667 437.667 198.667 541 198 c 0
 599.667 198 648.667 217.667 688 257 c 0
 747.333 317 777 410.667 777 538 c 0
EndSplineSet
EndChar
StartChar: e
Encoding: 71 101 73
OldEncoding: 101
Width: 1139
Flags: W
Fore
807 333 m 1
 1048 333 l 1
 1023.33 206.333 957.333 113 850 53 c 0
 774.667 11 685 -10 581 -10 c 0
 388.333 -10 249 55 163 185 c 0
 104.333 272.333 75 384.667 75 522 c 0
 75 707.333 124 850.333 222 951 c 0
 309.333 1041 425.667 1086 571 1086 c 0
 731 1086 854.667 1029.33 942 916 c 0
 1016.67 818.667 1054.33 693 1055 539 c 0
 1055 521 1054.33 503 1053 485 c 1
 312 485 l 1
 319.333 386.333 354.667 311.333 418 260 c 0
 463.333 222.667 518 204 582 204 c 0
 676.667 204 744 231.667 784 287 c 0
 794.667 301.667 802.333 317 807 333 c 1
318 675 m 1
 816 675 l 1
 803.333 797 733.333 863.333 606 874 c 0
 595.333 874.667 584 875 572 875 c 0
 486 875 419 849 371 797 c 1
 349 769 l 1
 333 744.333 323 717.333 319 688 c 0
 318.333 684 318 679.667 318 675 c 1
EndSplineSet
EndChar
StartChar: f
Encoding: 72 102 74
OldEncoding: 102
Width: 569
Flags: W
Fore
153 0 m 1
 153 757 l 1
 19 757 l 1
 19 955 l 1
 153 955 l 1
 153 1175 l 2
 153 1318.33 201 1418 297 1474 c 0
 344.333 1501.33 399.333 1515 462 1515 c 0
 529.333 1515 588.667 1506 640 1488 c 1
 640 1277 l 1
 589.333 1293.67 554.667 1302.67 536 1304 c 0
 524 1304 l 0
 501.333 1304.67 481.333 1301.67 464 1295 c 0
 408 1273 380 1215 380 1121 c 2
 380 955 l 1
 536 955 l 1
 536 757 l 1
 380 757 l 1
 380 0 l 1
 153 0 l 1
EndSplineSet
KernsSLIF: 72 -37 0 0
EndChar
StartChar: g
Encoding: 73 103 75
OldEncoding: 103
Width: 1139
Flags: W
Fore
102 -74 m 1
 315 -74 l 1
 315 -109.333 332.333 -141 367 -169 c 0
 406.333 -200.333 457.667 -216 521 -216 c 0
 678.333 -216 762.333 -138.667 773 16 c 1
 774 75 l 1
 710.667 25 627.667 0 525 0 c 0
 379.667 0 265.333 53 182 159 c 0
 104.667 256.333 66 382.333 66 537 c 0
 66 701.667 107.333 834 190 934 c 0
 272.667 1035.33 384.667 1086 526 1086 c 0
 666.667 1086 770 1048.67 836 974 c 1
 836 1062 l 1
 1002 1062 l 1
 1002 144 l 2
 1002 -107.333 950 -274 846 -356 c 0
 786 -404 696.667 -430 578 -434 c 2
 522 -435 l 2
 348.667 -435 228 -387.667 160 -293 c 0
 121.333 -239.667 102 -172.667 102 -92 c 0
 102 -74 l 1
315 546 m 0
 315 346.667 390 247 540 247 c 0
 684.667 247 757 345 757 541 c 0
 757 687.667 715.333 780.667 632 820 c 0
 604.667 832.667 573.333 839 538 839 c 0
 442.667 839 377 793.667 341 703 c 0
 323.667 659 315 606.667 315 546 c 0
EndSplineSet
EndChar
StartChar: h
Encoding: 74 104 76
OldEncoding: 104
Width: 1139
Flags: W
Fore
135 0 m 1
 135 1466 l 1
 365 1466 l 1
 365 1008 l 1
 416.333 1066 494.667 1095 600 1095 c 0
 749.333 1095 858.667 1043.67 928 941 c 0
 976 870.333 1000 781 1000 673 c 2
 1000 0 l 1
 770 0 l 1
 770 624 l 2
 770 726.667 740.667 791 682 817 c 0
 658.667 827 630 832 596 832 c 0
 519.333 832 459 794.333 415 719 c 0
 381.667 663 365 600.667 365 532 c 2
 365 0 l 1
 135 0 l 1
EndSplineSet
EndChar
StartChar: i
Encoding: 75 105 77
OldEncoding: 105
Width: 455
Flags: W
Fore
111 1218 m 1
 111 1466 l 1
 342 1466 l 1
 342 1218 l 1
 111 1218 l 1
106 0 m 1
 106 1062 l 1
 346 1062 l 1
 346 0 l 1
 106 0 l 1
EndSplineSet
EndChar
StartChar: j
Encoding: 76 106 78
OldEncoding: 106
Width: 455
Flags: W
Fore
112 1220 m 1
 112 1466 l 1
 340 1466 l 1
 340 1220 l 1
 112 1220 l 1
-94 -412 m 1
 -94 -205 l 1
 -59.3333 -210.333 -37.6667 -213 -29 -213 c 0
 30.3333 -213 69.6667 -192.667 89 -152 c 0
 104.333 -120 112 -76 112 -20 c 2
 112 1062 l 1
 340 1062 l 1
 340 -58 l 2
 340 -246 288.667 -362 186 -406 c 0
 151.333 -420.667 111 -428 65 -428 c 0
 7.66667 -428 -45.3333 -422.667 -94 -412 c 1
EndSplineSet
EndChar
StartChar: k
Encoding: 77 107 79
OldEncoding: 107
Width: 1024
Flags: W
Fore
136 0 m 1
 136 1466 l 1
 356 1466 l 1
 356 684 l 1
 696 1062 l 1
 975 1062 l 1
 592 636 l 1
 1016 0 l 1
 740 0 l 1
 443 484 l 1
 356 390 l 1
 356 0 l 1
 136 0 l 1
EndSplineSet
EndChar
StartChar: l
Encoding: 78 108 80
OldEncoding: 108
Width: 455
Flags: W
Fore
104 0 m 1
 104 1466 l 1
 340 1466 l 1
 340 0 l 1
 104 0 l 1
EndSplineSet
EndChar
StartChar: m
Encoding: 79 109 81
OldEncoding: 109
Width: 1706
Flags: W
Fore
135 0 m 1
 135 1062 l 1
 343 1062 l 1
 343 978 l 1
 411 1050 502.667 1086 618 1086 c 0
 731.333 1086 818.333 1057 879 999 c 0
 895.667 983.667 908.667 966.667 918 948 c 1
 952.667 1004.67 1016.33 1045 1109 1069 c 0
 1153.67 1080.33 1199.33 1086 1246 1086 c 0
 1440 1086 1548 991.667 1570 803 c 0
 1572.67 779.667 1574 755 1574 729 c 2
 1574 0 l 1
 1356 0 l 1
 1356 669 l 1
 1351.33 781.667 1301.33 839.333 1206 842 c 1
 1078 842 1005.67 784 989 668 c 0
 987 652 986 635 986 617 c 2
 986 0 l 1
 742 0 l 1
 742 690 l 2
 742 760.667 710.667 807.333 648 830 c 0
 626.667 838 603.333 842 578 842 c 0
 457.333 842 387.333 773.333 368 636 c 0
 364 610 362 581.667 362 551 c 2
 362 0 l 1
 135 0 l 1
EndSplineSet
EndChar
StartChar: n
Encoding: 80 110 82
OldEncoding: 110
Width: 1139
Flags: W
Fore
135 0 m 1
 135 1064 l 1
 368 1064 l 1
 368 1012 l 1
 409.333 1050 453.333 1074.33 500 1085 c 0
 529.333 1091.67 562.667 1095 600 1095 c 0
 749.333 1095 858.667 1043.67 928 941 c 0
 976 870.333 1000 781 1000 673 c 2
 1000 0 l 1
 776 0 l 1
 776 624 l 2
 776 736.667 736.333 802.667 657 822 c 0
 639 826 618.667 828 596 828 c 0
 501.333 828 435.333 785.667 398 701 c 0
 378 655 368 598.667 368 532 c 2
 368 0 l 1
 135 0 l 1
EndSplineSet
EndChar
StartChar: o
Encoding: 81 111 83
OldEncoding: 111
Width: 1139
Flags: W
Fore
68 531 m 0
 68 721.667 120 866 224 964 c 0
 310 1045.33 424 1086 566 1086 c 0
 728 1086 854 1032 944 924 c 0
 1023.33 828 1063 702 1063 546 c 0
 1063 306 989.667 142.667 843 56 c 0
 767.667 11.3333 675.333 -11 566 -11 c 0
 376.667 -11 239.667 55 155 187 c 0
 97 276.333 68 391 68 531 c 0
309 529 m 0
 309 371.667 357 271.333 453 228 c 0
 485.667 213.333 523.333 206 566 206 c 0
 689.333 206 768.333 266.333 803 387 c 0
 815 429.667 821 478.667 821 534 c 0
 821 665.333 786 759 716 815 c 0
 675.333 847.667 625.333 864 566 864 c 0
 454.667 864 378.667 812 338 708 c 0
 318.667 658 309 598.333 309 529 c 0
EndSplineSet
EndChar
StartChar: p
Encoding: 82 112 84
OldEncoding: 112
Width: 1139
Flags: W
Fore
331 992 m 1
 343 1002 343 1002 353 1010 c 0
 415.667 1060.67 492 1086 582 1086 c 0
 721.333 1086 831.667 1037.33 913 940 c 0
 998.333 839.333 1041 702.333 1041 529 c 0
 1041 374.333 1003.33 248 928 150 c 0
 846 43.3333 733.667 -10 591 -10 c 0
 504.333 -10 422 22 344 86 c 1
 344 -390 l 1
 120 -390 l 1
 120 1076 l 1
 331 1076 l 1
 331 992 l 1
332 538 m 0
 332 453.333 351.667 379.667 391 317 c 0
 437.667 243 499.333 206 576 206 c 0
 637.333 206 688.333 223 729 257 c 0
 799 315 834 411 834 545 c 0
 834 623 820 689 792 743 c 0
 746 832.333 671.667 877.333 569 878 c 0
 509.667 878 460.667 858.333 422 819 c 0
 362 759 332 665.333 332 538 c 0
EndSplineSet
EndChar
StartChar: q
Encoding: 83 113 85
OldEncoding: 113
Width: 1139
Flags: W
Fore
797 1076 m 1
 1008 1076 l 1
 1008 -390 l 1
 784 -390 l 1
 784 86 l 1
 706 22 623.667 -10 537 -10 c 0
 395 -10 282.667 43.3333 200 150 c 0
 124.667 248 87 374.333 87 529 c 0
 87 702.333 129.667 839.333 215 940 c 0
 297 1037.33 407.333 1086 546 1086 c 0
 636 1086 712.333 1060.67 775 1010 c 0
 782.333 1004.67 789.667 998.667 797 992 c 1
 797 1076 l 1
796 538 m 0
 796 665.333 766.333 759 707 819 c 0
 667.667 858.333 618.667 878 560 878 c 0
 456.667 877.333 382 832.333 336 743 c 0
 308 689 294 623 294 545 c 0
 294 411 329 315 399 257 c 0
 440.333 223 491.667 206 553 206 c 0
 629 206 690.333 243 737 317 c 0
 776.333 379.667 796 453.333 796 538 c 0
EndSplineSet
EndChar
StartChar: r
Encoding: 84 114 86
OldEncoding: 114
Width: 682
Flags: W
Fore
133 0 m 1
 133 1062 l 1
 362 1062 l 1
 362 947 l 1
 382.667 986.333 403.333 1014 424 1030 c 0
 435.333 1038 448.333 1045.33 463 1052 c 0
 470.333 1054.67 478.667 1058 488 1062 c 0
 514 1072 544.667 1077 580 1077 c 0
 614 1077 643.333 1069.67 668 1055 c 2
 710 1028 l 1
 648 789 l 1
 598 823 l 1
 578 828 l 1
 565 828 l 2
 542.333 828 521 824.333 501 817 c 0
 485.667 811 471 802.667 457 792 c 0
 415.667 761.333 391.333 698.667 384 604 c 0
 381.333 572 380 532 380 484 c 2
 380 0 l 1
 133 0 l 1
EndSplineSet
KernsSLIF: 16 -113 0 0 14 -113 0 0
EndChar
StartChar: s
Encoding: 85 115 87
OldEncoding: 115
Width: 1024
Flags: W
Fore
63 358 m 1
 291 358 l 1
 299 296.667 331.667 252.667 389 226 c 0
 423.667 209.333 466 201 516 201 c 0
 587.333 201 642.667 219 682 255 c 0
 700.667 272.333 710 289.333 710 306 c 0
 710 356 693 390 659 408 c 0
 639 418.667 593.667 430.333 523 443 c 0
 382.333 469 283.333 498.333 226 531 c 0
 146.667 576.333 103 645.667 95 739 c 0
 93.6667 752.333 93 766 93 780 c 0
 93.6667 884 138.333 964 227 1020 c 0
 296.333 1064 382 1086 484 1086 c 0
 654.667 1086 775 1041.67 845 953 c 0
 884.333 902.333 904.333 839.333 905 764 c 1
 679 764 l 1
 674.333 817.333 640.333 851.667 577 867 c 0
 555 872.333 528.333 875 497 875 c 0
 421.667 874.333 370.333 856.333 343 821 c 0
 333.667 809.667 329 797 329 783 c 0
 329 781 329 781 329 778 c 0
 331.667 732.667 352 701.667 390 685 c 0
 407.333 677 449.667 666.667 517 654 c 0
 652.333 628.667 748.333 600.667 805 570 c 0
 858.333 540.667 896.333 502.667 919 456 c 0
 936.333 419.333 945 375.667 945 325 c 0
 945 217.667 900 133 810 71 c 0
 731.333 16.3333 633.667 -11 517 -11 c 0
 340.333 -11 213.333 41 136 145 c 0
 93.3333 202.333 69 273.333 63 358 c 1
EndSplineSet
EndChar
StartChar: t
Encoding: 86 116 88
OldEncoding: 116
Width: 569
Flags: W
Fore
528 199 m 1
 554 2 l 1
 506 -8 458.333 -13 411 -13 c 0
 331 -13 274.667 -3.66667 242 15 c 0
 238 17 l 0
 196.667 44.3333 169.333 82 156 130 c 0
 145.333 170 140 230.333 140 311 c 2
 140 892 l 1
 18 892 l 1
 18 1088 l 1
 140 1088 l 1
 140 1433 l 1
 372 1433 l 1
 372 1088 l 1
 497 1088 l 1
 497 892 l 1
 372 892 l 1
 372 301 l 2
 372 269 375 248 381 238 c 0
 383 234 383 234 384 232 c 0
 390 222 399.667 213 413 205 c 0
 427.667 195.667 448 191 474 191 c 0
 475.333 191 493.333 193.667 528 199 c 1
EndSplineSet
EndChar
StartChar: u
Encoding: 87 117 89
OldEncoding: 117
Width: 1139
Flags: W
Fore
969 1085 m 1
 969 0 l 1
 789 0 l 1
 789 64 l 1
 757 29.3333 698 6.33333 612 -5 c 0
 587.333 -8.33333 562.333 -10 537 -10 c 0
 367.667 -10 247 42.3333 175 147 c 0
 127.667 215 104 303.333 104 412 c 2
 104 1085 l 1
 330 1085 l 1
 330 461 l 2
 330 361 367.333 294.333 442 261 c 0
 469.333 249 500 243 534 243 c 0
 641.333 243 703.667 292 721 390 c 0
 724.333 410 726 432 726 456 c 2
 726 1085 l 1
 969 1085 l 1
EndSplineSet
EndChar
StartChar: v
Encoding: 88 118 90
OldEncoding: 118
Width: 1024
Flags: W
Fore
429 0 m 1
 26 1062 l 1
 268 1062 l 1
 520 360 l 1
 760 1062 l 1
 1000 1062 l 1
 599 0 l 1
 429 0 l 1
EndSplineSet
KernsSLIF: 16 -152 0 0 14 -152 0 0
EndChar
StartChar: w
Encoding: 89 119 91
OldEncoding: 119
Width: 1479
Flags: W
Fore
296 0 m 1
 6 1062 l 1
 256 1062 l 1
 424 364 l 1
 648 1062 l 1
 832 1062 l 1
 1069 364 l 1
 1236 1062 l 1
 1463 1062 l 1
 1200 0 l 1
 956 0 l 1
 914.667 148.667 842.667 374 740 676 c 1
 544 0 l 1
 296 0 l 1
EndSplineSet
KernsSLIF: 16 -113 0 0 14 -113 0 0
EndChar
StartChar: x
Encoding: 90 120 92
OldEncoding: 120
Width: 1024
Flags: W
Fore
15 0 m 1
 346 552 l 1
 44 1062 l 1
 324 1062 l 1
 499 744 l 1
 700 1062 l 1
 981 1062 l 1
 657 562 l 1
 1009 0 l 1
 732 0 l 1
 505 369 l 1
 284 0 l 1
 15 0 l 1
EndSplineSet
EndChar
StartChar: y
Encoding: 91 121 93
OldEncoding: 121
Width: 1024
Flags: W
Fore
127 -409 m 1
 107 -192 l 1
 141 -201.333 176.667 -206 214 -206 c 0
 261.333 -206 299 -198.333 327 -183 c 1
 387 -153 417 -110 417 -54 c 0
 417 -36.6667 414 -18.6667 408 0 c 1
 33 1062 l 1
 292 1062 l 1
 525 372 l 1
 744 1062 l 1
 1006 1062 l 1
 624 0 l 1
 610.667 -122.667 573 -223.333 511 -302 c 0
 488.333 -330.667 458 -355 420 -375 c 0
 367.333 -402.333 307 -418 239 -422 c 1
 185 -421 l 1
 163.667 -419 144.333 -415 127 -409 c 1
EndSplineSet
KernsSLIF: 16 -152 0 0 14 -152 0 0
EndChar
StartChar: z
Encoding: 92 122 94
OldEncoding: 122
Width: 1024
Flags: W
Fore
40 0 m 1
 40 212 l 1
 664 864 l 1
 60 864 l 1
 60 1062 l 1
 948 1062 l 1
 948 864 l 1
 344 212 l 1
 980 212 l 1
 980 0 l 1
 40 0 l 1
EndSplineSet
EndChar
StartChar: braceleft
Encoding: 93 123 95
OldEncoding: 123
Width: 684
Flags: W
Fore
57 612 m 1
 108.333 613.333 150.333 627.333 183 654 c 0
 215 680.667 236.333 716.667 247 762 c 0
 257.667 808 263.333 891 264 1011 c 0
 264.667 1131 269 1217.33 277 1270 c 0
 285.667 1322.67 304 1366.33 332 1401 c 0
 360 1435.67 395.333 1460.33 438 1475 c 0
 467.333 1485.67 514.667 1491 580 1491 c 2
 636 1491 l 1
 636 1280 l 1
 605 1280 l 2
 577 1280 558.667 1277.67 550 1273 c 1
 528 1254 l 2
 506.667 1236 493.667 1204.67 489 1160 c 0
 485.667 1134.67 484 1075 484 981 c 0
 484 837.667 468.333 736 437 676 c 0
 415 634 415 634 409 623 c 0
 384.333 581.667 350.667 550.667 308 530 c 1
 333.333 519.333 354 504.667 370 486 c 1
 411 426 l 1
 443 382 464.333 323 475 249 c 0
 481 204.333 484 119.333 484 -6 c 0
 484 -93.3333 495.333 -149.333 518 -174 c 1
 536 -196 l 1
 546 -206.667 569 -212 605 -212 c 2
 636 -212 l 1
 636 -431 l 1
 580 -431 l 2
 522.667 -431 481.333 -427.333 456 -420 c 0
 418.667 -409.333 388 -394 364 -374 c 0
 340 -353.333 319.667 -326 303 -292 c 0
 287 -258.667 276 -213.667 270 -157 c 0
 266.667 -121 264.667 -47.6667 264 63 c 0
 263.333 174.333 257.667 252.667 247 298 c 0
 236.333 344 215 380.333 183 407 c 0
 150.333 433.667 108.333 447.667 57 449 c 1
 57 612 l 1
EndSplineSet
EndChar
StartChar: bar
Encoding: 94 124 96
OldEncoding: 124
Width: 532
Flags: W
Fore
140 -431 m 1
 140 1491 l 1
 390 1491 l 1
 390 -431 l 1
 140 -431 l 1
EndSplineSet
EndChar
StartChar: braceright
Encoding: 95 125 97
OldEncoding: 125
Width: 684
Flags: W
Fore
626 612 m 1
 626 449 l 1
 574.667 447.667 532.667 433.667 500 407 c 0
 468 380.333 446.667 344 436 298 c 0
 425.333 252.667 419.667 174.333 419 63 c 0
 418.333 -48.3333 416.333 -121.667 413 -157 c 0
 407 -213.667 396 -258.667 380 -292 c 0
 363.333 -326 343 -353.333 319 -374 c 0
 295 -394 264.333 -409.333 227 -420 c 0
 201.667 -427.333 160.333 -431 103 -431 c 2
 47 -431 l 1
 47 -212 l 1
 78 -212 l 2
 114 -212 137 -206.667 147 -196 c 1
 165 -174 l 1
 187.667 -149.333 199 -93.3333 199 -6 c 0
 199 119.333 202 204.333 208 249 c 0
 218.667 323 240 382 272 426 c 1
 313 486 l 1
 329 504.667 349.667 519.333 375 530 c 1
 332.333 550.667 299 581.333 275 622 c 0
 270.333 629.333 260.667 647.333 246 676 c 0
 214.667 736 199 837.667 199 981 c 0
 199 1075 197.333 1134.67 194 1160 c 0
 189.333 1204.67 176.333 1236 155 1254 c 2
 133 1273 l 1
 113 1278 l 2
 105 1279.33 93.3333 1280 78 1280 c 2
 47 1280 l 1
 47 1491 l 1
 103 1491 l 2
 168.333 1491 215.667 1485.67 245 1475 c 0
 287.667 1460.33 323 1435.67 351 1401 c 0
 379 1366.33 397.333 1322.67 406 1270 c 0
 414 1217.33 418.333 1131 419 1011 c 0
 419.667 891 425.333 808 436 762 c 0
 446.667 716.667 468 680.667 500 654 c 0
 532.667 627.333 574.667 613.333 626 612 c 1
EndSplineSet
EndChar
StartChar: asciitilde
Encoding: 96 126 98
OldEncoding: 126
Width: 1196
Flags: W
Fore
87 529 m 1
 87 782 l 1
 157.667 862 250.333 902 365 902 c 0
 405 902 447 896 491 884 c 0
 535 872.667 597.667 849.667 679 815 c 0
 725 795.667 759.333 783 782 777 c 0
 805.333 771 828.667 768 852 768 c 0
 895.333 768 940 781 986 807 c 0
 1032.67 833 1074 865.667 1110 905 c 1
 1110 645 l 1
 1067.33 605 1024 576 980 558 c 0
 936.667 540 887.667 531 833 531 c 0
 793 531 754.667 535.667 718 545 c 0
 682 554.333 624.667 576.667 546 612 c 0
 466.667 647.333 400.667 665 348 665 c 0
 305.333 665 265.333 656 228 638 c 0
 190 619.333 143 583 87 529 c 1
EndSplineSet
EndChar
StartChar: uni007F
Encoding: 97 127 99
OldEncoding: 127
Width: 1247
Flags: W
Fore
143 928 m 0
 143 945.333 148.667 959.833 160 971.5 c 128
 171.333 983.167 185.667 989 203 989 c 0
 220.333 989 234.833 983.167 246.5 971.5 c 128
 258.167 959.833 264 945.333 264 928 c 0
 264 910.667 258.167 896.333 246.5 885 c 128
 234.833 873.667 220.333 868 203 868 c 0
 185.667 868 171.333 873.667 160 885 c 128
 148.667 896.333 143 910.667 143 928 c 0
332 1071 m 0
 332 1088.33 337.667 1102.83 349 1114.5 c 128
 360.333 1126.17 374.667 1132 392 1132 c 0
 409.333 1132 423.833 1126.17 435.5 1114.5 c 128
 447.167 1102.83 453 1088.33 453 1071 c 0
 453 1053.67 447.167 1039.33 435.5 1028 c 128
 423.833 1016.67 409.333 1011 392 1011 c 0
 374.667 1011 360.333 1016.67 349 1028 c 128
 337.667 1039.33 332 1053.67 332 1071 c 0
558 1139 m 0
 558 1156.33 563.667 1170.83 575 1182.5 c 128
 586.333 1194.17 600.667 1200 618 1200 c 0
 635.333 1200 649.833 1194.17 661.5 1182.5 c 128
 673.167 1170.83 679 1156.33 679 1139 c 0
 679 1121.67 673.167 1107.33 661.5 1096 c 128
 649.833 1084.67 635.333 1079 618 1079 c 0
 600.667 1079 586.333 1084.67 575 1096 c 128
 563.667 1107.33 558 1121.67 558 1139 c 0
22 505 m 0
 22 522.333 27.6667 536.833 39 548.5 c 128
 50.3333 560.167 64.6667 566 82 566 c 0
 99.3333 566 113.833 560.167 125.5 548.5 c 128
 137.167 536.833 143 522.333 143 505 c 0
 143 487.667 137.167 473.333 125.5 462 c 128
 113.833 450.667 99.3333 445 82 445 c 0
 64.6667 445 50.3333 450.667 39 462 c 128
 27.6667 473.333 22 487.667 22 505 c 0
143 309 m 0
 143 326.333 148.667 340.833 160 352.5 c 128
 171.333 364.167 185.667 370 203 370 c 0
 220.333 370 234.833 364.167 246.5 352.5 c 128
 258.167 340.833 264 326.333 264 309 c 0
 264 291.667 258.167 277.333 246.5 266 c 128
 234.833 254.667 220.333 249 203 249 c 0
 185.667 249 171.333 254.667 160 266 c 128
 148.667 277.333 143 291.667 143 309 c 0
286 158 m 0
 286 175.333 291.667 189.833 303 201.5 c 128
 314.333 213.167 328.667 219 346 219 c 0
 363.333 219 377.833 213.167 389.5 201.5 c 128
 401.167 189.833 407 175.333 407 158 c 0
 407 140.667 401.167 126.333 389.5 115 c 128
 377.833 103.667 363.333 98 346 98 c 0
 328.667 98 314.333 103.667 303 115 c 128
 291.667 126.333 286 140.667 286 158 c 0
551 67 m 0
 551 84.3333 556.667 98.8333 568 110.5 c 128
 579.333 122.167 593.667 128 611 128 c 0
 628.333 128 642.833 122.167 654.5 110.5 c 128
 666.167 98.8333 672 84.3333 672 67 c 0
 672 49.6667 666.167 35.3333 654.5 24 c 128
 642.833 12.6667 628.333 7 611 7 c 0
 593.667 7 579.333 12.6667 568 24 c 128
 556.667 35.3333 551 49.6667 551 67 c 0
845 128 m 0
 845 145.333 850.667 159.833 862 171.5 c 128
 873.333 183.167 887.667 189 905 189 c 0
 922.333 189 936.833 183.167 948.5 171.5 c 128
 960.167 159.833 966 145.333 966 128 c 0
 966 110.667 960.167 96.3333 948.5 85 c 128
 936.833 73.6667 922.333 68 905 68 c 0
 887.667 68 873.333 73.6667 862 85 c 128
 850.667 96.3333 845 110.667 845 128 c 0
1011 294 m 0
 1011 311.333 1016.67 325.833 1028 337.5 c 128
 1039.33 349.167 1053.67 355 1071 355 c 0
 1088.33 355 1102.83 349.167 1114.5 337.5 c 128
 1126.17 325.833 1132 311.333 1132 294 c 0
 1132 276.667 1126.17 262.333 1114.5 251 c 128
 1102.83 239.667 1088.33 234 1071 234 c 0
 1053.67 234 1039.33 239.667 1028 251 c 128
 1016.67 262.333 1011 276.667 1011 294 c 0
1086 498 m 0
 1086 515.333 1091.67 529.833 1103 541.5 c 128
 1114.33 553.167 1128.67 559 1146 559 c 0
 1163.33 559 1177.83 553.167 1189.5 541.5 c 128
 1201.17 529.833 1207 515.333 1207 498 c 0
 1207 480.667 1201.17 466.333 1189.5 455 c 128
 1177.83 443.667 1163.33 438 1146 438 c 0
 1128.67 438 1114.33 443.667 1103 455 c 128
 1091.67 466.333 1086 480.667 1086 498 c 0
1072 739 m 0
 1072 756.333 1077.67 770.833 1089 782.5 c 128
 1100.33 794.167 1114.67 800 1132 800 c 0
 1149.33 800 1163.83 794.167 1175.5 782.5 c 128
 1187.17 770.833 1193 756.333 1193 739 c 0
 1193 721.667 1187.17 707.333 1175.5 696 c 128
 1163.83 684.667 1149.33 679 1132 679 c 0
 1114.67 679 1100.33 684.667 1089 696 c 128
 1077.67 707.333 1072 721.667 1072 739 c 0
965 951 m 0
 965 968.333 970.667 982.833 982 994.5 c 128
 993.333 1006.17 1007.67 1012 1025 1012 c 0
 1042.33 1012 1056.83 1006.17 1068.5 994.5 c 128
 1080.17 982.833 1086 968.333 1086 951 c 0
 1086 933.667 1080.17 919.333 1068.5 908 c 128
 1056.83 896.667 1042.33 891 1025 891 c 0
 1007.67 891 993.333 896.667 982 908 c 128
 970.667 919.333 965 933.667 965 951 c 0
777 1094 m 0
 777 1111.33 782.667 1125.83 794 1137.5 c 128
 805.333 1149.17 819.667 1155 837 1155 c 0
 854.333 1155 868.833 1149.17 880.5 1137.5 c 128
 892.167 1125.83 898 1111.33 898 1094 c 0
 898 1076.67 892.167 1062.33 880.5 1051 c 128
 868.833 1039.67 854.333 1034 837 1034 c 0
 819.667 1034 805.333 1039.67 794 1051 c 128
 782.667 1062.33 777 1076.67 777 1094 c 0
37 739 m 0
 37 756.333 42.6667 770.833 54 782.5 c 128
 65.3333 794.167 79.6667 800 97 800 c 0
 114.333 800 128.833 794.167 140.5 782.5 c 128
 152.167 770.833 158 756.333 158 739 c 0
 158 721.667 152.167 707.333 140.5 696 c 128
 128.833 684.667 114.333 679 97 679 c 0
 79.6667 679 65.3333 684.667 54 696 c 128
 42.6667 707.333 37 721.667 37 739 c 0
EndSplineSet
EndChar
StartChar: exclamdown
Encoding: 99 161 101
OldEncoding: 161
Width: 680
Flags: W
Fore
442 1278 m 1
 238 1278 l 1
 238 1489 l 1
 442 1489 l 1
 442 1278 l 1
452 0 m 1
 228 0 l 1
 256 1079 l 1
 422 1079 l 1
 452 0 l 1
EndSplineSet
EndChar
StartChar: cent
Encoding: 100 162 102
OldEncoding: 162
Width: 1118
Flags: W
Fore
557 2 m 1
 413.667 18.6667 304 75 228 171 c 128
 152 267 114 395.667 114 557 c 0
 114 715.667 153.333 844.333 232 943 c 128
 310.667 1041.67 419 1099 557 1115 c 1
 557 1475 l 1
 671 1475 l 1
 671 1116 l 1
 729 1114 784.833 1105.17 838.5 1089.5 c 128
 892.167 1073.83 937.667 1056.33 975 1037 c 1
 975 837 l 1
 965 837 l 1
 923.667 871 879.667 900.667 833 926 c 128
 786.333 951.333 732.333 968.333 671 977 c 1
 671 141 l 1
 703.667 144.333 736.5 152 769.5 164 c 128
 802.5 176 830.333 188.667 853 202 c 0
 877 216 898.333 229.833 917 243.5 c 128
 935.667 257.167 951.667 269.667 965 281 c 1
 975 281 l 1
 975 83 l 1
 931.667 63 886.5 45.1667 839.5 29.5 c 128
 792.5 13.8333 736.333 4.33333 671 1 c 1
 671 -361 l 1
 557 -361 l 1
 557 2 l 1
557 146 m 1
 557 971 l 1
 479.667 957 418.667 915.167 374 845.5 c 128
 329.333 775.833 307 679.667 307 557 c 0
 307 431.667 329.833 335.167 375.5 267.5 c 128
 421.167 199.833 481.667 159.333 557 146 c 1
EndSplineSet
EndChar
StartChar: sterling
Encoding: 101 163 103
OldEncoding: 163
Width: 1118
Flags: W
Fore
1031 0 m 1
 89 0 l 1
 89 207 l 1
 163 229 215.167 271.667 245.5 335 c 128
 275.833 398.333 291 491 291 613 c 1
 130 613 l 1
 130 751 l 1
 291 751 l 1
 291 1071 l 2
 291 1205 329.667 1313 407 1395 c 128
 484.333 1477 584.667 1518 708 1518 c 0
 772.667 1518 828 1512.83 874 1502.5 c 128
 920 1492.17 962.333 1481.33 1001 1470 c 1
 1001 1264 l 1
 991 1264 l 1
 952.333 1291.33 909.333 1312.67 862 1328 c 128
 814.667 1343.33 769.667 1351 727 1351 c 0
 645 1351 583.833 1325.33 543.5 1274 c 128
 503.167 1222.67 483 1148.67 483 1052 c 2
 483 751 l 1
 847 751 l 1
 847 613 l 1
 483 613 l 1
 483 552 l 2
 483 474 463.5 403.167 424.5 339.5 c 128
 385.5 275.833 331 223.333 261 182 c 1
 261 171 l 1
 1031 171 l 1
 1031 0 l 1
EndSplineSet
EndChar
StartChar: currency
Encoding: 102 164 104
OldEncoding: 164
Width: 1118
Flags: W
Fore
1057 272 m 1
 951 166 l 1
 737 378 l 1
 707 360 679 346.833 653 338.5 c 128
 627 330.167 596 326 560 326 c 0
 529.333 326 498.5 331 467.5 341 c 128
 436.5 351 409 363.667 385 379 c 1
 170 164 l 1
 65 273 l 1
 277 486 l 1
 260.333 512.667 247.5 541.5 238.5 572.5 c 128
 229.5 603.5 225 633 225 661 c 0
 225 690.333 229.5 719.833 238.5 749.5 c 128
 247.5 779.167 260.667 807.667 278 835 c 1
 65 1051 l 1
 172 1157 l 1
 386 944 l 1
 410.667 960 438.333 972.667 469 982 c 128
 499.667 991.333 530 996 560 996 c 0
 594.667 996 627.167 990.833 657.5 980.5 c 128
 687.833 970.167 714 958.333 736 945 c 1
 948 1157 l 1
 1057 1052 l 1
 843 836 l 1
 861 807.333 874.333 779.667 883 753 c 128
 891.667 726.333 896 695.667 896 661 c 0
 896 631 891.167 600.5 881.5 569.5 c 128
 871.833 538.5 859 510.667 843 486 c 1
 1057 272 l 1
752 661 m 0
 752 714.333 733.167 760.5 695.5 799.5 c 128
 657.833 838.5 612.667 858 560 858 c 0
 508.667 858 463.833 838.833 425.5 800.5 c 128
 387.167 762.167 368 715.667 368 661 c 0
 368 607.667 386.833 561.5 424.5 522.5 c 128
 462.167 483.5 507.333 464 560 464 c 0
 611.333 464 656.167 483.167 694.5 521.5 c 128
 732.833 559.833 752 606.333 752 661 c 0
EndSplineSet
EndChar
StartChar: yen
Encoding: 103 165 105
OldEncoding: 165
Width: 1118
Flags: W
Fore
1059 1489 m 1
 651 678 l 1
 651 578 l 1
 993 578 l 1
 993 440 l 1
 653 440 l 1
 653 0 l 1
 465 0 l 1
 465 440 l 1
 125 440 l 1
 125 578 l 1
 467 578 l 1
 467 657 l 1
 56 1489 l 1
 266 1489 l 1
 560 850 l 1
 858 1489 l 1
 1059 1489 l 1
EndSplineSet
EndChar
StartChar: brokenbar
Encoding: 104 166 106
OldEncoding: 166
Width: 783
Flags: W
Fore
475 758 m 1
 308 758 l 1
 308 1556 l 1
 475 1556 l 1
 475 758 l 1
475 -392 m 1
 308 -392 l 1
 308 406 l 1
 475 406 l 1
 475 -392 l 1
EndSplineSet
EndChar
StartChar: section
Encoding: 105 167 107
OldEncoding: 167
Width: 1118
Flags: W
Fore
759 401 m 0
 775 424.333 787.5 446.833 796.5 468.5 c 128
 805.5 490.167 810 519 810 555 c 0
 810 587.667 805.167 616 795.5 640 c 128
 785.833 664 772.667 683.667 756 699 c 0
 740 714.333 721.333 727.167 700 737.5 c 128
 678.667 747.833 654 757.333 626 766 c 0
 593 776 593 776 549 788.5 c 128
 519.667 796.833 486.667 807 450 819 c 1
 436.667 811 422.833 801 408.5 789 c 128
 394.167 777 378.333 760 361 738 c 0
 347.667 720.667 335.5 697.333 324.5 668 c 128
 313.5 638.667 308 609 308 579 c 0
 308 525 320.667 482 346 450 c 128
 371.333 418 420 391 492 369 c 0
 526 359 526 359 569.5 345.5 c 128
 613 332 613 332 667 315 c 1
 679.667 323 694.333 334 711 348 c 128
 727.667 362 743.667 379.667 759 401 c 0
182 -133 m 1
 199.333 -141.667 220.833 -151.333 246.5 -162 c 128
 272.167 -172.667 297 -182 321 -190 c 0
 352.333 -200 381.333 -207.5 408 -212.5 c 128
 434.667 -217.5 468.333 -220 509 -220 c 0
 585 -220 648.5 -204.5 699.5 -173.5 c 128
 750.5 -142.5 776 -96.6667 776 -36 c 0
 776 0 769.833 29.1667 757.5 51.5 c 128
 745.167 73.8333 725.333 93.6667 698 111 c 0
 670 127.667 635.5 141.833 594.5 153.5 c 128
 533 171 533 171 460 192 c 0
 401.333 208.667 352.5 225.667 313.5 243 c 128
 274.5 260.333 239.333 283.333 208 312 c 0
 178 339.333 155.667 371 141 407 c 128
 126.333 443 119 485 119 533 c 0
 119 595.667 135.333 655.167 168 711.5 c 128
 200.667 767.833 250.667 816.667 318 858 c 1
 318 865 l 1
 257.333 898.333 213.833 938.667 187.5 986 c 128
 161.167 1033.33 148 1087 148 1147 c 0
 148 1259 190.667 1349 276 1417 c 128
 361.333 1485 478.667 1519 628 1519 c 0
 684.667 1519 737 1514.67 785 1506 c 128
 833 1497.33 886.667 1482.67 946 1462 c 1
 946 1268 l 1
 936 1268 l 1
 876 1298 820.167 1320 768.5 1334 c 128
 716.833 1348 663 1355 607 1355 c 0
 532.333 1355 469.167 1339.83 417.5 1309.5 c 128
 365.833 1279.17 340 1234.67 340 1176 c 0
 340 1138 346.833 1107 360.5 1083 c 128
 374.167 1059 394 1039.33 420 1024 c 0
 446 1008 479.167 993.667 519.5 981 c 128
 559.833 968.333 605.667 955.333 657 942 c 0
 779.667 908.667 867.167 865.833 919.5 813.5 c 128
 971.833 761.167 998 690.333 998 601 c 0
 998 529 979.833 466 943.5 412 c 128
 907.167 358 859 313 799 277 c 1
 799 270 l 1
 857 239.333 899.833 200.667 927.5 154 c 128
 955.167 107.333 969 52.6667 969 -10 c 0
 969 -59.3333 958.5 -107.667 937.5 -155 c 128
 916.5 -202.333 886.667 -242 848 -274 c 0
 806.667 -309.333 757.167 -336.667 699.5 -356 c 128
 641.833 -375.333 572 -385 490 -385 c 0
 437.333 -385 385 -380.333 333 -371 c 128
 281 -361.667 227.333 -347 172 -327 c 1
 172 -133 l 1
 182 -133 l 1
EndSplineSet
EndChar
StartChar: dieresis
Encoding: 106 168 108
OldEncoding: 168
Width: 1118
Flags: W
Fore
867 1304 m 1
 666 1304 l 1
 666 1499 l 1
 867 1499 l 1
 867 1304 l 1
454 1304 m 1
 253 1304 l 1
 253 1499 l 1
 454 1499 l 1
 454 1304 l 1
EndSplineSet
EndChar
StartChar: copyright
Encoding: 107 169 109
OldEncoding: 169
Width: 1902
Flags: W
Fore
1816 655 m 0
 1816 416.333 1731.5 212.5 1562.5 43.5 c 128
 1393.5 -125.5 1189.67 -210 951 -210 c 128
 712.333 -210 508.5 -125.5 339.5 43.5 c 128
 170.5 212.5 86 416.333 86 655 c 128
 86 893.667 170.5 1097.33 339.5 1266 c 128
 508.5 1434.67 712.333 1519 951 1519 c 128
 1189.67 1519 1393.5 1434.67 1562.5 1266 c 128
 1731.5 1097.33 1816 893.667 1816 655 c 0
1701 655 m 0
 1701 863.667 1627.83 1041.5 1481.5 1188.5 c 128
 1335.17 1335.5 1158.67 1409 952 1409 c 128
 745.333 1409 568.833 1335.5 422.5 1188.5 c 128
 276.167 1041.5 203 863.667 203 655 c 128
 203 446.333 276.167 268.333 422.5 121 c 128
 568.833 -26.3333 745.333 -100 952 -100 c 128
 1158.67 -100 1335.17 -26.3333 1481.5 121 c 128
 1627.83 268.333 1701 446.333 1701 655 c 0
1274 255 m 1
 1229.33 235 1184.67 217.5 1140 202.5 c 128
 1095.33 187.5 1042.67 180 982 180 c 0
 842.667 180 732.667 221.167 652 303.5 c 128
 571.333 385.833 531 504.667 531 660 c 0
 531 813.333 572.667 932.167 656 1016.5 c 128
 739.333 1100.83 848 1143 982 1143 c 0
 1037.33 1143 1090.33 1135.67 1141 1121 c 128
 1191.67 1106.33 1236 1089.33 1274 1070 c 1
 1274 889 l 1
 1258 889 l 1
 1229.33 914.333 1189.67 938.5 1139 961.5 c 128
 1088.33 984.5 1037.33 996 986 996 c 0
 904 996 838.5 968.667 789.5 914 c 128
 740.5 859.333 716 774.667 716 660 c 0
 716 552 739.333 469.5 786 412.5 c 128
 832.667 355.5 899.333 327 986 327 c 0
 1042 327 1095 339.167 1145 363.5 c 128
 1195 387.833 1232.67 411.333 1258 434 c 1
 1274 434 l 1
 1274 255 l 1
EndSplineSet
EndChar
StartChar: ordfeminine
Encoding: 108 170 110
OldEncoding: 170
Width: 1010
Flags: W
Fore
874 566 m 1
 708 566 l 1
 708 657 l 1
 689 642 689 642 657 618.5 c 128
 635.667 602.833 614.667 590.333 594 581 c 0
 566.667 568.333 539.833 558.5 513.5 551.5 c 128
 487.167 544.5 450.667 541 404 541 c 0
 321.333 541 252.333 568.833 197 624.5 c 128
 141.667 680.167 114 751.667 114 839 c 0
 114 908.333 128.333 964.833 157 1008.5 c 128
 185.667 1052.17 226.667 1086.67 280 1112 c 0
 330 1136 393 1153 469 1163 c 128
 545 1173 624.667 1180 708 1184 c 1
 708 1203 l 2
 708 1237.67 702.5 1265.67 691.5 1287 c 128
 680.5 1308.33 664.333 1325 643 1337 c 0
 623.667 1348.33 599.667 1355.83 571 1359.5 c 128
 542.333 1363.17 512.667 1365 482 1365 c 0
 430 1365 377.167 1357.17 323.5 1341.5 c 128
 269.833 1325.83 230 1313.33 204 1304 c 1
 189 1304 l 1
 189 1474 l 1
 218.333 1482.67 262.167 1492.33 320.5 1503 c 128
 378.833 1513.67 433 1519 483 1519 c 0
 611 1519 708.167 1493.5 774.5 1442.5 c 128
 840.833 1391.5 874 1308.67 874 1194 c 2
 874 566 l 1
708 802 m 1
 708 1045 l 1
 664.667 1042.33 614.333 1038.33 557 1033 c 128
 499.667 1027.67 454 1020 420 1010 c 0
 380 998.667 347.667 980.167 323 954.5 c 128
 298.333 928.833 286 893.667 286 849 c 0
 286 799 300.667 761 330 735 c 128
 359.333 709 403 696 461 696 c 0
 511.667 696 557.167 707 597.5 729 c 128
 637.833 751 674.667 775.333 708 802 c 1
EndSplineSet
EndChar
StartChar: guillemotleft
Encoding: 109 171 111
OldEncoding: 171
Width: 1174
Flags: W
Fore
1043 191 m 1
 555 610 l 1
 555 695 l 1
 1043 1113 l 1
 1043 925 l 1
 726 652 l 1
 1043 379 l 1
 1043 191 l 1
613 162 m 1
 103 608 l 1
 103 697 l 1
 613 1142 l 1
 613 946 l 1
 282 652 l 1
 613 358 l 1
 613 162 l 1
EndSplineSet
EndChar
StartChar: logicalnot
Encoding: 110 172 112
OldEncoding: 172
Width: 1490
Flags: W
Fore
1323 57 m 1
 1152 57 l 1
 1152 602 l 1
 157 602 l 1
 157 762 l 1
 1323 762 l 1
 1323 57 l 1
EndSplineSet
EndChar
StartChar: registered
Encoding: 112 174 114
OldEncoding: 174
Width: 1902
Flags: W
Fore
1816 655 m 0
 1816 416.333 1731.5 212.5 1562.5 43.5 c 128
 1393.5 -125.5 1189.67 -210 951 -210 c 128
 712.333 -210 508.5 -125.5 339.5 43.5 c 128
 170.5 212.5 86 416.333 86 655 c 128
 86 893.667 170.5 1097.33 339.5 1266 c 128
 508.5 1434.67 712.333 1519 951 1519 c 128
 1189.67 1519 1393.5 1434.67 1562.5 1266 c 128
 1731.5 1097.33 1816 893.667 1816 655 c 0
1701 655 m 0
 1701 863.667 1627.83 1041.5 1481.5 1188.5 c 128
 1335.17 1335.5 1158.67 1409 952 1409 c 128
 745.333 1409 568.833 1335.5 422.5 1188.5 c 128
 276.167 1041.5 203 863.667 203 655 c 128
 203 446.333 276.167 268.333 422.5 121 c 128
 568.833 -26.3333 745.333 -100 952 -100 c 128
 1158.67 -100 1335.17 -26.3333 1481.5 121 c 128
 1627.83 268.333 1701 446.333 1701 655 c 0
1448 215 m 1
 1221 215 l 1
 938 570 l 1
 815 570 l 1
 815 215 l 1
 650 215 l 1
 650 1130 l 1
 929 1130 l 2
 991.667 1130 1041.17 1127.67 1077.5 1123 c 128
 1113.83 1118.33 1150.67 1105.33 1188 1084 c 0
 1228 1061.33 1257 1034 1275 1002 c 128
 1293 970 1302 929 1302 879 c 0
 1302 812.333 1283.5 757.667 1246.5 715 c 128
 1209.5 672.333 1161.33 639 1102 615 c 1
 1448 215 l 1
1120 868 m 0
 1120 892.667 1116 914 1108 932 c 128
 1100 950 1086 965.333 1066 978 c 0
 1049.33 988.667 1030.67 995.833 1010 999.5 c 128
 989.333 1003.17 962.667 1005 930 1005 c 2
 815 1005 l 1
 815 696 l 1
 913 696 l 2
 945 696 975 699.167 1003 705.5 c 128
 1031 711.833 1053.67 722.667 1071 738 c 128
 1088.33 753.333 1100.83 771 1108.5 791 c 128
 1116.17 811 1120 836.667 1120 868 c 0
EndSplineSet
EndChar
StartChar: macron
Encoding: 113 175 115
OldEncoding: 175
Width: 1118
Flags: W
Fore
1134 1659 m 1
 -16 1659 l 1
 -16 1789 l 1
 1134 1789 l 1
 1134 1659 l 1
EndSplineSet
EndChar
StartChar: degree
Encoding: 114 176 116
OldEncoding: 176
Width: 964
Flags: W
Fore
863 1135 m 0
 863 1028.33 826.333 938.333 753 865 c 128
 679.667 791.667 589.333 755 482 755 c 0
 376 755 286 791.333 212 864 c 128
 138 936.667 101 1027 101 1135 c 0
 101 1241.67 137.667 1331.67 211 1405 c 128
 284.333 1478.33 374.667 1515 482 1515 c 128
 589.333 1515 679.667 1478.33 753 1405 c 128
 826.333 1331.67 863 1241.67 863 1135 c 0
706 1135 m 0
 706 1199 684.667 1253 642 1297 c 128
 599.333 1341 546 1363 482 1363 c 128
 418 1363 364.667 1341 322 1297 c 128
 279.333 1253 258 1199 258 1135 c 0
 258 1069.67 279.833 1015.33 323.5 972 c 128
 367.167 928.667 420 907 482 907 c 0
 546 907 599.333 929.167 642 973.5 c 128
 684.667 1017.83 706 1071.67 706 1135 c 0
EndSplineSet
EndChar
StartChar: plusminus
Encoding: 115 177 117
OldEncoding: 177
Width: 1490
Flags: W
Fore
1328 159 m 1
 162 159 l 1
 162 317 l 1
 662 317 l 1
 662 739 l 1
 162 739 l 1
 162 897 l 1
 662 897 l 1
 662 1402 l 1
 828 1402 l 1
 828 897 l 1
 1328 897 l 1
 1328 739 l 1
 828 739 l 1
 828 317 l 1
 1328 317 l 1
 1328 159 l 1
EndSplineSet
EndChar
StartChar: uni00B2
Encoding: 116 178 118
OldEncoding: 178
Width: 1010
Flags: W
Fore
866 566 m 1
 185 566 l 1
 185 718 l 1
 262 777 262 777 332.5 831.5 c 128
 379.5 867.833 417.667 900.333 447 929 c 0
 517.667 997 564 1050.17 586 1088.5 c 128
 608 1126.83 619 1173 619 1227 c 0
 619 1273 604.667 1308.5 576 1333.5 c 128
 547.333 1358.5 507.667 1371 457 1371 c 0
 411 1371 364.5 1361 317.5 1341 c 128
 270.5 1321 233.333 1300.33 206 1279 c 1
 191 1279 l 1
 191 1458 l 1
 233 1476 279.5 1490.67 330.5 1502 c 128
 381.5 1513.33 431.667 1519 481 1519 c 0
 585 1519 664.833 1492.83 720.5 1440.5 c 128
 776.167 1388.17 804 1321 804 1239 c 0
 804 1182.33 790.833 1127.83 764.5 1075.5 c 128
 738.167 1023.17 689 964.667 617 900 c 0
 582.333 869.333 542 836.833 496 802.5 c 128
 427 751 427 751 373 710 c 1
 866 710 l 1
 866 566 l 1
EndSplineSet
EndChar
StartChar: uni00B3
Encoding: 117 179 119
OldEncoding: 179
Width: 1010
Flags: W
Fore
837 828 m 0
 837 780.667 827 738.167 807 700.5 c 128
 787 662.833 761 633 729 611 c 0
 693.667 586.333 655.5 568.667 614.5 558 c 128
 573.5 547.333 526.667 542 474 542 c 0
 419.333 542 368.167 547 320.5 557 c 128
 272.833 567 227.333 581.333 184 600 c 1
 184 775 l 1
 201 775 l 1
 225.667 751.667 263.667 730.167 315 710.5 c 128
 366.333 690.833 418.333 681 471 681 c 0
 527 681 573.333 693.167 610 717.5 c 128
 646.667 741.833 665 778 665 826 c 0
 665 874 650.5 909.667 621.5 933 c 128
 592.5 956.333 543.333 968 474 968 c 2
 334 968 l 1
 334 1107 l 1
 459 1107 l 2
 517 1107 561.833 1119.67 593.5 1145 c 128
 625.167 1170.33 641 1205 641 1249 c 0
 641 1289 627.333 1320.83 600 1344.5 c 128
 572.667 1368.17 530 1380 472 1380 c 0
 428 1380 380.5 1369.67 329.5 1349 c 128
 278.5 1328.33 240.667 1306.33 216 1283 c 1
 199 1283 l 1
 199 1458 l 1
 241.667 1476 288 1490.67 338 1502 c 128
 388 1513.33 439.333 1519 492 1519 c 0
 593.333 1519 672.333 1495.67 729 1449 c 128
 785.667 1402.33 814 1346.33 814 1281 c 0
 814 1223 797.833 1175.17 765.5 1137.5 c 128
 733.167 1099.83 691.333 1072.33 640 1055 c 1
 640 1047 l 1
 693.333 1036.33 739.5 1012.83 778.5 976.5 c 128
 817.5 940.167 837 890.667 837 828 c 0
EndSplineSet
EndChar
StartChar: acute
Encoding: 118 180 120
OldEncoding: 180
Width: 1118
Flags: W
Fore
871 1676 m 1
 598 1302 l 1
 449 1302 l 1
 628 1676 l 1
 871 1676 l 1
EndSplineSet
EndChar
StartChar: mu
Encoding: 119 181 121
OldEncoding: 181
Width: 1163
Flags: W
Fore
1027 0 m 1
 855 0 l 1
 855 116 l 1
 849 116 l 1
 809 74 768.833 41.3333 728.5 18 c 128
 688.167 -5.33333 638 -17 578 -17 c 0
 516.667 -17 468.333 -5.33333 433 18 c 128
 397.667 41.3333 361.333 73.6667 324 115 c 1
 324 -412 l 1
 136 -412 l 1
 136 1117 l 1
 324 1117 l 1
 324 275 l 1
 352 241.667 387 214.833 429 194.5 c 128
 471 174.167 520.667 164 578 164 c 0
 638 164 688.5 173.667 729.5 193 c 128
 770.5 212.333 807 239.667 839 275 c 1
 839 1117 l 1
 1027 1117 l 1
 1027 0 l 1
EndSplineSet
EndChar
StartChar: paragraph
Encoding: 120 182 122
OldEncoding: 182
Width: 1118
Flags: W
Fore
982 -363 m 1
 842 -363 l 1
 842 1359 l 1
 655 1359 l 1
 655 -363 l 1
 515 -363 l 1
 515 593 l 1
 377.667 596.333 267 639.333 183 722 c 128
 99 804.667 57 914 57 1050 c 0
 57 1188 100.333 1295.67 187 1373 c 128
 273.667 1450.33 398 1489 560 1489 c 2
 982 1489 l 1
 982 -363 l 1
EndSplineSet
EndChar
StartChar: periodcentered
Encoding: 121 183 123
OldEncoding: 183
Width: 724
Flags: W
Fore
482 832 m 1
 243 832 l 1
 243 1117 l 1
 482 1117 l 1
 482 832 l 1
EndSplineSet
EndChar
StartChar: cedilla
Encoding: 122 184 124
OldEncoding: 184
Width: 1118
Flags: W
Fore
767 20 m 1
 767.667 8 768.833 -7.16667 770.5 -25.5 c 128
 772.167 -43.8333 773 -65 773 -89 c 0
 773 -197 744 -279.667 686 -337 c 128
 628 -394.333 554.667 -423 466 -423 c 0
 441.333 -423 412.333 -421 379 -417 c 128
 345.667 -413 315.667 -407 289 -399 c 1
 289 -239 l 1
 298 -239 l 1
 314 -246.333 335 -253.833 361 -261.5 c 128
 387 -269.167 413.333 -273 440 -273 c 0
 502.667 -273 547.333 -259.833 574 -233.5 c 128
 600.667 -207.167 614 -165 614 -107 c 0
 614 -89.6667 613.667 -70.6667 613 -50 c 128
 612.333 -29.3333 611.333 -6 610 20 c 1
 767 20 l 1
EndSplineSet
EndChar
StartChar: uni0E01
Encoding: 123 3585 125
OldEncoding: 3585
Width: 1240
Flags: W
Fore
1082 673 m 2
 1082 0 l 1
 862 0 l 1
 862 657 l 2
 862 838.333 782.667 929 624 929 c 0
 518 929 440 896.333 390 831 c 1
 464 795 516 739 546 663 c 1
 542 661 512 627.667 456 563 c 0
 424 525.667 408 459 408 363 c 2
 408 0 l 1
 188 0 l 1
 188 363 l 2
 188 448.333 197.333 509.333 216 546 c 0
 231.333 576 264.667 617.667 316 671 c 1
 268.667 727 202.667 767.333 118 792 c 1
 131.333 854.667 167.333 917 226 979 c 1
 331.333 1092.33 464 1149 624 1149 c 0
 774 1149 890.667 1102 974 1008 c 0
 1046 926.667 1082 815 1082 673 c 2
EndSplineSet
EndChar
StartChar: uni0E02
Encoding: 124 3586 126
OldEncoding: 3586
Width: 1400
Flags: W
Fore
302 662 m 1
 321 660 l 1
 343.667 662 362.667 676 378 702 c 0
 383.333 710.667 386.667 718.667 388 726 c 1
 389 765 l 1
 386.333 793 372.333 812.667 347 824 c 0
 341 826.667 335.333 828 330 828 c 1
 314 825 l 1
 305.333 820.333 297.333 812.333 290 801 c 0
 282.667 789 276.333 773.667 271 755 c 0
 267.667 740.333 266 727.333 266 716 c 1
 269 694 l 1
 274.333 678 285.333 667.333 302 662 c 1
884 771 m 1
 799.333 688.333 757 623 757 575 c 2
 757 298 l 2
 757 269.333 774 245.667 808 227 c 0
 829.333 215.667 852 210 876 210 c 0
 928 210 964.333 225.333 985 256 c 0
 993 268.667 997 282.667 997 298 c 2
 997 1139 l 1
 1217 1139 l 1
 1217 298 l 2
 1217 172.667 1169.33 84.3333 1074 33 c 0
 1020 4.33333 954 -10 876 -10 c 0
 773.333 -10 689.667 21 625 83 c 0
 566.333 140.333 537 212 537 298 c 2
 537 575 l 2
 537 623 576.667 685.667 656 763 c 0
 664 771 l 1
 660 823 644.333 865.667 617 899 c 0
 587.667 935 548.333 953 499 953 c 0
 493 953 486.667 952.667 480 952 c 0
 446 948.667 421.667 939 407 923 c 0
 406.333 922.333 405.667 921.333 405 920 c 1
 456.333 914 491.333 880.667 510 820 c 0
 516.667 796.667 520 772.667 520 748 c 0
 520 684.667 499 632 457 590 c 1
 431 568 l 1
 396.333 543.333 355 531 307 531 c 0
 299 531 290.667 531.333 282 532 c 0
 200.667 539.333 144.333 582 113 660 c 0
 98.3333 697.333 91 740.333 91 789 c 0
 91 797.667 91.3333 806.333 92 815 c 0
 102 911.667 137.667 987.667 199 1043 c 0
 269.667 1107 350.333 1142 441 1148 c 0
 452.333 1148.67 464 1149 476 1149 c 0
 568 1149 648 1128 716 1086 c 0
 734.667 1074.67 750.667 1062.33 764 1049 c 0
 802.667 1011 834.333 959.333 859 894 c 0
 875.667 850 884 809 884 771 c 1
EndSplineSet
EndChar
StartChar: uni0E03
Encoding: 125 3587 127
OldEncoding: 3587
Width: 1450
Flags: W
Fore
280 588 m 1
 299 586 l 1
 321.667 588 340.667 602 356 628 c 0
 361.333 636.667 364.667 644.667 366 652 c 1
 367 691 l 1
 364.333 719 350.333 738.667 325 750 c 0
 319 752.667 313.333 754 308 754 c 1
 292 751 l 1
 283.333 746.333 275.333 738.333 268 727 c 0
 260.667 715 254.333 699.667 249 681 c 0
 245.667 666.333 244 653.333 244 642 c 0
 244 614 256 596 280 588 c 1
663 929 m 1
 567 857 466 857 360 929 c 1
 341.333 903 329.667 882 325 866 c 0
 324.333 864.667 324 863.333 324 862 c 1
 402.667 862 455.667 826.667 483 756 c 0
 493 729.333 498 702 498 674 c 0
 498 610.667 477 558 435 516 c 0
 396.333 476.667 346.667 457 286 457 c 0
 277.333 457 268.667 457.333 260 458 c 0
 192 464 140.667 500.333 106 567 c 0
 84.6667 608.333 74 653.667 74 703 c 0
 74 716.333 74.6667 729 76 741 c 0
 86.6667 821 101.667 881.667 121 923 c 0
 133 948.333 148.667 973.667 168 999 c 0
 206 1048.33 253 1090 309 1124 c 0
 327.667 1135.33 344.667 1143.67 360 1149 c 1
 519 1041 l 1
 663 1149 l 1
 707.667 1137 751 1111.67 793 1073 c 0
 801.667 1065 809.667 1057 817 1049 c 1
 855.667 1011 887.333 959.333 912 894 c 0
 928.667 850 937 809 937 771 c 1
 852.333 688.333 810 623 810 575 c 2
 810 298 l 2
 810 269.333 827 245.667 861 227 c 0
 882.333 215.667 905 210 929 210 c 0
 981 210 1017.33 225.333 1038 256 c 0
 1046 268.667 1050 282.667 1050 298 c 2
 1050 1139 l 1
 1270 1139 l 1
 1270 298 l 2
 1270 172.667 1222.33 84.3333 1127 33 c 0
 1073 4.33333 1007 -10 929 -10 c 0
 826.333 -10 742.667 21 678 83 c 0
 619.333 140.333 590 212 590 298 c 2
 590 575 l 2
 590 623 627 679.667 701 745 c 0
 710.333 753.667 720.333 762.333 731 771 c 1
 727.667 806.333 714.667 845 692 887 c 0
 682.667 904.333 673 918.333 663 929 c 1
EndSplineSet
EndChar
StartChar: uni0E04
Encoding: 126 3588 128
OldEncoding: 3588
Width: 1370
Flags: W
Fore
775 565 m 1
 765 571 755.667 574 747 574 c 0
 726.333 574 705.333 558.667 684 528 c 0
 666.667 503.333 658 482 658 464 c 0
 658 448 665 435 679 425 c 0
 687.667 418.333 698 415 710 415 c 0
 737.333 415 761.333 429 782 457 c 0
 792.667 471.667 798 487.667 798 505 c 0
 798 527 790.333 547 775 565 c 1
421 384 m 1
 455 476 478 533 490 555 c 0
 496 567 502.667 578.667 510 590 c 0
 544 642.667 589.667 680 647 702 c 0
 671.667 711.333 696 716 720 716 c 0
 734 716 747.667 714.333 761 711 c 0
 801 701 837.333 676.333 870 637 c 0
 887.333 615.667 898.667 595.667 904 577 c 1
 912.667 556.333 917 535.333 917 514 c 0
 917 471.333 900.333 429.333 867 388 c 0
 829 341.333 789.333 314.667 748 308 c 1
 707 305 l 2
 705 305 705 305 702 305 c 0
 670 306.333 644 315 624 331 c 0
 621.333 333.667 619.333 336 618 338 c 1
 601.333 319.333 572.667 253.667 532 141 c 0
 505.333 66.3333 491.667 19.3333 491 0 c 1
 251 0 l 1
 251 108 l 2
 251 145.333 238.667 224.667 214 346 c 0
 184 492 169 603.333 169 680 c 0
 169 723.333 172.667 762.667 180 798 c 0
 203.333 908.667 259.333 994.667 348 1056 c 0
 422 1107.33 508 1137.33 606 1146 c 0
 628.667 1148 653.667 1149 681 1149 c 1
 751 1146 l 1
 835.667 1137.33 913.667 1113.33 985 1074 c 0
 1041.67 1043.33 1086.67 1004.67 1120 958 c 0
 1164 898 1189.67 828.333 1197 749 c 0
 1199 727 1200 703 1200 677 c 2
 1200 0 l 1
 980 0 l 1
 980 664 l 2
 980 715.333 972.333 754.667 957 782 c 0
 925 839.333 873 881.333 801 908 c 0
 762.333 922 723.667 929 685 929 c 0
 610.333 929 542.333 905 481 857 c 0
 448.333 831.667 425.667 804 413 774 c 0
 397 738 389 695.667 389 647 c 0
 389 613 396.333 550.333 411 459 c 0
 416.333 427.667 419.667 402.667 421 384 c 1
EndSplineSet
EndChar
StartChar: uni0E05
Encoding: 127 3589 129
OldEncoding: 3589
Width: 1370
Flags: W
Fore
762 565 m 1
 752 571 742.333 574 733 574 c 0
 712.333 574 691.333 558.667 670 528 c 0
 653.333 503.333 645 482 645 464 c 0
 645 448 652 435 666 425 c 0
 674.667 418.333 684.667 415 696 415 c 0
 724 415 748.333 429 769 457 c 0
 779.667 471.667 784.667 487.667 784 505 c 0
 784 527 776.667 547 762 565 c 1
399 802 m 0
 383.667 766 376 721.333 376 668 c 0
 376 630 383.667 559.333 399 456 c 0
 403 426 406 402 408 384 c 1
 442 476 464.667 533 476 555 c 0
 482.667 567 489.667 578.667 497 590 c 0
 531 642.667 576.333 680 633 702 c 0
 657.667 711.333 682 716 706 716 c 0
 720.667 716 734.667 714.333 748 711 c 0
 787.333 701 823.667 676.333 857 637 c 0
 874.333 615.667 885.333 595.667 890 577 c 1
 899.333 556.333 904 535.333 904 514 c 0
 904 471.333 887 429.333 853 388 c 0
 815 341.333 775.333 314.667 734 308 c 1
 694 305 l 2
 691 305 691 305 689 305 c 0
 656.333 306.333 630.333 315 611 331 c 0
 608.333 333.667 606.333 336 605 338 c 1
 587.667 319.333 559 253.667 519 141 c 0
 491.667 66.3333 478 19.3333 478 0 c 1
 238 0 l 1
 238 108 l 2
 238 145.333 225.333 228 200 356 c 0
 170 510 155 626.667 155 706 c 0
 155 750.667 159 790.667 167 826 c 0
 189.667 936.667 245.667 1022.67 335 1084 c 0
 387.667 1120.67 447 1142.33 513 1149 c 1
 677 1033 l 1
 850 1149 l 1
 961.333 1124.33 1047 1070 1107 986 c 1
 1160.33 913.333 1187 810.333 1187 677 c 2
 1187 0 l 1
 967 0 l 1
 967 664 l 2
 967 734 959.333 782.667 944 810 c 0
 922 848.667 890.667 881.667 850 909 c 1
 677 795 l 1
 513 909 l 1
 459 886.333 421 850.667 399 802 c 0
EndSplineSet
EndChar
StartChar: uni0E06
Encoding: 128 3590 130
OldEncoding: 3590
Width: 1520
Flags: W
Fore
270 588 m 1
 289 586 l 1
 311.667 588 330.667 602 346 628 c 0
 351.333 636.667 354.667 644.667 356 652 c 1
 357 691 l 1
 354.333 719 340.333 738.667 315 750 c 0
 309 752.667 303.333 754 298 754 c 1
 282 751 l 1
 273.333 746.333 265.333 738.333 258 727 c 0
 250.667 715 244.333 699.667 239 681 c 0
 235.667 666.333 234 653.333 234 642 c 0
 234 614 246 596 270 588 c 1
800 430 m 1
 870 362.667 937.667 311.667 1003 277 c 1
 1037.67 259.667 1065.67 250.667 1087 250 c 0
 1094.33 250 1102 251.667 1110 255 c 0
 1126.67 263 1136 277.667 1138 299 c 0
 1138.67 306.333 1139 332.333 1139 377 c 2
 1139 1139 l 1
 1359 1139 l 1
 1359 218 l 2
 1359 120.667 1332.33 55 1279 21 c 0
 1244.33 -1.66667 1205.67 -13 1163 -13 c 0
 1131.67 -13 1100.33 -6.66667 1069 6 c 0
 1023.67 24 961.333 57.3333 882 106 c 0
 846.667 128 819 147.333 799 164 c 1
 799 116 781.333 75.3333 746 42 c 0
 711.333 10 668 -7.33333 616 -10 c 2
 600 -10 l 2
 533.333 -8 479.667 11.6667 439 49 c 0
 432.333 55 426 61.3333 420 68 c 0
 395.333 94.6667 378.667 138 370 198 c 1
 366 249 l 1
 366 255 366.333 261 367 267 c 0
 373.667 345 403.667 407 457 453 c 0
 491 481.667 532 499.667 580 507 c 1
 580 575 l 2
 580 623 617 679.667 691 745 c 0
 700.333 753.667 710.333 762.333 721 771 c 1
 717.667 806.333 704.667 845 682 887 c 0
 672.667 904.333 663 918.333 653 929 c 1
 557 857 456 857 350 929 c 1
 331.333 903 319.667 882 315 866 c 0
 314.333 864.667 314 863.333 314 862 c 1
 392.667 862 445.667 826.667 473 756 c 0
 483 729.333 488 702 488 674 c 0
 488 610.667 467 558 425 516 c 0
 386.333 476.667 336.667 457 276 457 c 0
 267.333 457 258.667 457.333 250 458 c 0
 182 464 130.667 500.333 96 567 c 0
 74.6667 608.333 64 653.667 64 703 c 0
 64 716.333 64.6667 729 66 741 c 0
 76.6667 821 91.6667 881.667 111 923 c 0
 123 948.333 138.667 973.667 158 999 c 0
 196 1048.33 243 1090 299 1124 c 0
 317.667 1135.33 334.667 1143.67 350 1149 c 1
 509 1041 l 1
 653 1149 l 1
 697.667 1137 741 1111.67 783 1073 c 1
 807 1049 l 2
 845.667 1011 877.333 959.333 902 894 c 0
 918.667 850 927 809 927 771 c 1
 843 689 800.667 623.667 800 575 c 1
 800 430 l 1
595 317 m 1
 581 317 568.667 312.667 558 304 c 0
 534.667 285.333 522.667 257 522 219 c 0
 522 177 533 156 555 156 c 0
 576.333 156 589 167.333 593 190 c 0
 594.333 198 595 208.667 595 222 c 2
 595 317 l 1
EndSplineSet
EndChar
StartChar: uni0E07
Encoding: 129 3591 131
OldEncoding: 3591
Width: 1000
Flags: W
Fore
855 272 m 2
 855 157.333 812.333 76.6667 727 30 c 0
 679.667 3.33333 621.667 -10 553 -10 c 0
 391 -10 286.333 67.6667 239 223 c 0
 234.333 238.333 230.333 254.667 227 272 c 1
 145 719 l 1
 386 640 l 1
 448 312 l 1
 457.333 254.667 484.333 221.333 529 212 c 0
 535.667 210.667 542.667 210 550 210 c 0
 605.333 210 633.667 244 635 312 c 1
 635 759 l 1
 627 754.333 610.333 752 585 752 c 0
 578 752 578 752 574 752 c 0
 546 754.667 518.333 768 491 792 c 0
 455.667 823.333 438 866.667 438 922 c 0
 438 946.667 441.667 974 449 1004 c 0
 460.333 1047.33 487.333 1084 530 1114 c 0
 563.333 1137.33 603.667 1149 651 1149 c 0
 705.667 1148.33 751 1130.33 787 1095 c 0
 832.333 1051.67 855 980.333 855 881 c 2
 855 272 l 2
619 1026 m 0
 600.333 1026 583.333 1015.33 568 994 c 1
 558.667 977.333 554 959.667 554 941 c 0
 554 920.333 559.667 902 571 886 c 0
 584.333 866.667 600.667 857 620 857 c 0
 637.333 857 651.667 865.333 663 882 c 1
 670.333 894.667 674 915.667 674 945 c 0
 674 975 669 996 659 1008 c 128
 649 1020 635.667 1026 619 1026 c 0
EndSplineSet
EndChar
StartChar: uni0E08
Encoding: 130 3592 132
OldEncoding: 3592
Width: 1200
Flags: W
Fore
468 283 m 2
 468 373 l 1
 458 362.333 445.333 354.667 430 350 c 0
 416 346 402.333 344 389 344 c 0
 350.333 344.667 315.333 360.667 284 392 c 0
 250 425.333 233 469.333 233 524 c 0
 233 620.667 269.667 687 343 723 c 0
 365.667 733.667 390.667 741 418 745 c 0
 501.333 756.333 569.333 739.333 622 694 c 1
 666 653.333 688 594.333 688 517 c 2
 688 283 l 2
 688 234.333 708 210 748 210 c 0
 788 210 808 233 808 279 c 2
 808 695 l 2
 808 763 793.333 812 764 842 c 1
 715.333 890 660.667 918 600 926 c 0
 583.333 928 565.333 929 546 929 c 0
 458 929 378.667 901.333 308 846 c 0
 280.667 824.667 258.667 801 242 775 c 1
 104 929 l 1
 144 998.333 211.333 1054.33 306 1097 c 0
 382.667 1131.67 462 1149 544 1149 c 0
 729.333 1149 865.333 1095 952 987 c 0
 1002.67 923.667 1028 841.333 1028 740 c 2
 1028 279 l 2
 1028 86.3333 934.667 -10 748 -10 c 0
 561.333 -10 468 87.6667 468 283 c 2
414 625 m 0
 392 625 373.667 613.333 359 590 c 0
 351 577.333 347 564.667 347 552 c 0
 347 548 347.333 544 348 540 c 0
 357.333 498 370 472.333 386 463 c 0
 394 458.333 403.333 456 414 456 c 0
 450 458.667 468 484 468 532 c 0
 468 538 468 538 468 545 c 0
 468 598.333 450 625 414 625 c 0
EndSplineSet
EndChar
StartChar: uni0E09
Encoding: 131 3593 133
OldEncoding: 3593
Width: 1395
Flags: W
Fore
893 714 m 2
 893 806.667 851.667 871 769 907 c 1
 725 922 l 1
 695 930 663 934 629 934 c 0
 539.667 934 459.333 907 388 853 c 0
 361.333 833.667 339.333 812 322 788 c 1
 180 942 l 1
 219.333 1006 285.333 1058 378 1098 c 0
 457.333 1132 539.667 1149 625 1149 c 0
 800.333 1149 930.667 1100.67 1016 1004 c 1
 1044 966 l 1
 1090 898 1113 813.667 1113 713 c 2
 1113 507 l 1
 1161 499.667 1202 481.667 1236 453 c 0
 1273.33 421 1298.33 371.333 1311 304 c 0
 1315 284 1317 264 1317 244 c 0
 1317 176 1304.67 122.667 1280 84 c 0
 1276.67 78 1272.67 72.6667 1268 68 c 0
 1227.33 24.6667 1180.33 -0.333333 1127 -7 c 0
 1116.33 -8.33333 1105 -9.33333 1093 -10 c 1
 1053 -8 l 1
 1010.33 -1.33333 975 15.3333 947 42 c 0
 911.667 75.3333 894 116 894 164 c 1
 838.667 118.667 771.333 74 692 30 c 1
 644 6 l 1
 612.667 -6.66667 581.333 -13 550 -13 c 0
 507.333 -13 468.667 -1.66667 434 21 c 0
 380.667 55 354 120.667 354 218 c 2
 354 393 l 1
 335.333 374.333 309.333 365 276 365 c 0
 221.333 365 179.333 389.333 150 438 c 0
 130.667 470 121 507.333 121 550 c 0
 121 574 124 598.333 130 623 c 0
 140 663 165.667 697.667 207 727 c 0
 243.667 753 283 766 325 766 c 0
 402.333 766 463.333 746 508 706 c 0
 551.333 667.333 573 613.333 573 544 c 2
 573 377 l 2
 573 321.667 574 290 576 282 c 0
 579.333 268.667 588 259.667 602 255 c 1
 621 253 l 1
 665 256.333 732.333 294.667 823 368 c 0
 848.333 388.667 871.667 409.333 893 430 c 1
 893 714 l 2
298 645 m 0
 274 645 255.333 631.333 242 604 c 0
 235.333 590 232 575.333 232 560 c 1
 234.667 523.333 247.667 498 271 484 c 0
 279.667 478.667 289 476 299 476 c 0
 334.333 478.667 352 504.333 352 553 c 0
 352 558 352 558 352 564 c 0
 352 618 334 645 298 645 c 0
1096 317 m 1
 1096 222 l 2
 1096 186.667 1103 166 1117 160 c 0
 1121.67 157.333 1128 156 1136 156 c 0
 1158 156 1169 177 1169 219 c 0
 1168.33 257 1156.33 285.333 1133 304 c 0
 1122.33 312.667 1110 317 1096 317 c 1
EndSplineSet
EndChar
StartChar: uni0E0A
Encoding: 132 3594 134
OldEncoding: 3594
Width: 1390
Flags: W
Fore
296 662 m 1
 315 660 l 1
 337.667 662 356.667 676 372 702 c 0
 377.333 710.667 380.667 718.667 382 726 c 1
 383 765 l 1
 380.333 793 366.333 812.667 341 824 c 0
 335 826.667 329.333 828 324 828 c 1
 308 825 l 1
 299.333 820.333 291.333 812.333 284 801 c 0
 276.667 789 270.333 773.667 265 755 c 0
 261.667 740.333 260 727.333 260 716 c 0
 260 688 272 670 296 662 c 1
878 719 m 1
 832.667 690.333 797.667 655 773 613 c 0
 758.333 588.333 751 565.667 751 545 c 2
 751 298 l 2
 751 269.333 768 245.667 802 227 c 0
 823.333 215.667 846 210 870 210 c 0
 922 210 958.333 225.333 979 256 c 0
 987 268.667 991 282.667 991 298 c 2
 991 546 l 2
 991 592.667 984.333 626 971 646 c 0
 962.333 658.667 949.667 671.333 933 684 c 1
 885 715 l 2
 883 716.333 880.667 717.667 878 719 c 1
841 924 m 1
 928.333 936 994.333 969.667 1039 1025 c 0
 1070.33 1063.67 1086 1109.67 1086 1163 c 2
 1086 1188 l 1
 1321 1188 l 1
 1321 1164 l 2
 1321 1087.33 1295 1014.33 1243 945 c 0
 1198.33 885 1145.33 845 1084 825 c 1
 1154 781.667 1195 731 1207 673 c 0
 1209.67 659 1211 644.333 1211 629 c 2
 1211 298 l 2
 1211 172.667 1163.33 84.3333 1068 33 c 0
 1014 4.33333 948 -10 870 -10 c 0
 767.333 -10 683.667 21 619 83 c 0
 560.333 140.333 531 212 531 298 c 2
 531 575 l 2
 531 623 570.667 685.667 650 763 c 0
 658 771 l 1
 654 823 638.333 865.667 611 899 c 0
 581.667 935 542.333 953 493 953 c 0
 487 953 480.667 952.667 474 952 c 0
 440 948.667 415.667 939 401 923 c 0
 400.333 922.333 399.667 921.333 399 920 c 1
 450.333 914 485.333 880.667 504 820 c 0
 510.667 796.667 514 772.667 514 748 c 0
 514 684.667 493 632 451 590 c 0
 411.667 550.667 362 531 302 531 c 0
 293.333 531 284.667 531.333 276 532 c 0
 194.667 539.333 138.333 582 107 660 c 0
 92.3333 697.333 85 740.333 85 789 c 0
 85 797.667 85.3333 806.333 86 815 c 0
 96 911.667 131.667 987.667 193 1043 c 0
 263.667 1107 344.333 1142 435 1148 c 0
 446.333 1148.67 458 1149 470 1149 c 0
 562 1149 642 1128 710 1086 c 0
 728.667 1074.67 744.667 1062.33 758 1049 c 0
 789.333 1018.33 817 976.667 841 924 c 1
EndSplineSet
EndChar
StartChar: uni0E0B
Encoding: 133 3595 135
OldEncoding: 3595
Width: 1450
Flags: W
Fore
280 588 m 1
 299 586 l 1
 321.667 588 340.667 602 356 628 c 0
 361.333 636.667 364.667 644.667 366 652 c 1
 367 691 l 1
 364.333 719 350.333 738.667 325 750 c 0
 319 752.667 313.333 754 308 754 c 1
 292 751 l 1
 283.333 746.333 275.333 738.333 268 727 c 0
 260.667 715 254.333 699.667 249 681 c 0
 245.667 666.333 244 653.333 244 642 c 0
 244 614 256 596 280 588 c 1
821 1050 m 0
 855.667 1016.67 886.333 974.667 913 924 c 1
 1000.33 936 1066.33 969.667 1111 1025 c 0
 1142.33 1063.67 1158 1109.67 1158 1163 c 2
 1158 1188 l 1
 1393 1188 l 1
 1393 1164 l 2
 1393 1087.33 1367 1014.33 1315 945 c 0
 1295 917.667 1272.67 894.333 1248 875 c 0
 1224.67 856.333 1200 842 1174 832 c 0
 1168 829.333 1162 827 1156 825 c 1
 1226 781.667 1267 731 1279 673 c 0
 1281.67 659 1283 644.333 1283 629 c 2
 1283 298 l 2
 1283 172.667 1235.33 84.3333 1140 33 c 0
 1086 4.33333 1020 -10 942 -10 c 0
 839.333 -10 755.667 21 691 83 c 0
 632.333 140.333 603 212 603 298 c 2
 603 575 l 2
 603 623 642.667 685.667 722 763 c 0
 730 771 l 1
 726.667 807 714 845.667 692 887 c 0
 682.667 904.333 673 918.333 663 929 c 1
 567 857 466 857 360 929 c 1
 341.333 903 329.667 882 325 866 c 0
 324.333 864.667 324 863.333 324 862 c 1
 402.667 862 455.667 826.667 483 756 c 0
 493 729.333 498 702 498 674 c 0
 498 610.667 477 558 435 516 c 0
 396.333 476.667 346.667 457 286 457 c 0
 277.333 457 268.667 457.333 260 458 c 0
 192 464 140.667 500.333 106 567 c 0
 84.6667 608.333 74 653.667 74 703 c 0
 74 716.333 74.6667 729 76 741 c 0
 86.6667 821 101.667 881.667 121 923 c 0
 133 948.333 148.667 973.667 168 999 c 0
 206 1048.33 253 1090 309 1124 c 0
 327.667 1135.33 344.667 1143.67 360 1149 c 1
 519 1041 l 1
 663 1149 l 1
 700.333 1139 745.667 1112 799 1068 c 0
 807.667 1061.33 815 1055.33 821 1050 c 0
950 719 m 1
 904.667 690.333 869.667 655 845 613 c 0
 830.333 588.333 823 565.667 823 545 c 2
 823 298 l 2
 823 269.333 840 245.667 874 227 c 0
 895.333 215.667 918 210 942 210 c 0
 994 210 1030.33 225.333 1051 256 c 0
 1059 268.667 1063 282.667 1063 298 c 2
 1063 546 l 2
 1063 592.667 1056.33 626 1043 646 c 0
 1034.33 658.667 1021.67 671.333 1005 684 c 1
 957 715 l 2
 955 716.333 952.667 717.667 950 719 c 1
EndSplineSet
EndChar
StartChar: uni0E0C
Encoding: 134 3596 136
OldEncoding: 3596
Width: 1750
Flags: W
Fore
860 657 m 2
 860 838.333 780.667 929 622 929 c 0
 516 929 438 896.333 388 831 c 1
 462 795 514 739 544 663 c 1
 540 661 510 627.667 454 563 c 0
 422 525.667 406 463.333 406 376 c 2
 406 363 l 1
 423.333 381.667 447 391 477 391 c 0
 495.667 391.667 514.667 388 534 380 c 0
 554.667 371.333 572.667 359.333 588 344 c 0
 622.667 310 640 264 640 206 c 0
 640.667 182 637.333 157.667 630 133 c 0
 613.333 76.3333 578.333 35.3333 525 10 c 0
 495.667 -3.33333 463.667 -10 429 -10 c 0
 380.333 -9.33333 342.667 -3 316 9 c 0
 293.333 19.6667 270.667 35.3333 248 56 c 0
 210.667 90 190.333 156 187 254 c 0
 186.333 268.667 186 285 186 303 c 2
 186 366 l 2
 186 449.333 195.333 509.333 214 546 c 0
 229.333 576 262.667 617.667 314 671 c 1
 266.667 727 200.667 767.333 116 792 c 1
 129.333 854.667 165.333 917 224 979 c 1
 329.333 1092.33 462 1149 622 1149 c 0
 772 1149 888.667 1102 972 1008 c 0
 1043.33 928 1079 816.333 1079 673 c 2
 1079 430 l 1
 1152.33 359.333 1203 313.667 1231 293 c 0
 1269 264.333 1300 250 1324 250 c 0
 1331.33 250 1338.33 251.667 1345 255 c 0
 1361.67 263 1371 277.667 1373 299 c 0
 1373.67 306.333 1374 332.333 1374 377 c 2
 1374 1139 l 1
 1593 1139 l 1
 1593 218 l 2
 1593 120.667 1566.33 55 1513 21 c 0
 1478.33 -1.66667 1439.67 -13 1397 -13 c 0
 1365.67 -13 1334.33 -6.66667 1303 6 c 0
 1263 22 1188.33 74.6667 1079 164 c 1
 1079 116 1061.33 75.3333 1026 42 c 0
 991.333 10 948 -7.33333 896 -10 c 2
 880 -10 l 2
 813.333 -8 759.667 11.6667 719 49 c 0
 712.333 55 706 61.3333 700 68 c 0
 675.333 94.6667 658.667 138 650 198 c 1
 646 249 l 1
 646 255 646.333 261 647 267 c 0
 653.667 345 683.667 407 737 453 c 0
 771 481.667 812 499.667 860 507 c 1
 860 657 l 2
875 317 m 1
 861 317 848.667 312.667 838 304 c 0
 814.667 285.333 802.667 257 802 219 c 0
 802 177 813 156 835 156 c 0
 856.333 156 869 167.333 873 190 c 0
 874.333 198 875 208.667 875 222 c 2
 875 317 l 1
449 110 m 0
 474.333 110 493.333 124 506 152 c 0
 512 164.667 515 179 515 195 c 1
 512.333 237.667 497.667 264.667 471 276 c 0
 464.333 278.667 457 280 449 280 c 0
 418.333 280 401 260 397 220 c 0
 396.333 215.333 396 210 396 204 c 0
 396 141.333 413.667 110 449 110 c 0
EndSplineSet
EndChar
StartChar: uni0E0D
Encoding: 135 3597 137
OldEncoding: 3597
Width: 1745
Flags: W
Fore
1135 310 m 2
 1135 275.333 1149 248.333 1177 229 c 0
 1195.67 216.333 1218 210 1244 210 c 0
 1321.33 210 1360 243.333 1360 310 c 2
 1360 1139 l 1
 1580 1139 l 1
 1580 241 l 2
 1580 157 1540.33 91.3333 1461 44 c 0
 1400.33 8 1330 -10 1250 -10 c 0
 1244 -10 l 0
 1150 -8.66667 1071.33 16.6667 1008 66 c 0
 946 114 915 175 915 249 c 2
 915 657 l 2
 915 838.333 835.667 929 677 929 c 0
 571 929 493 896.333 443 831 c 1
 517 795 569 739 599 663 c 1
 595 661 565 627.667 509 563 c 0
 477 525.667 461 463.333 461 376 c 2
 461 363 l 1
 478.333 381.667 502 391 532 391 c 0
 550.667 391.667 569.667 388 589 380 c 0
 609.667 371.333 627.667 359.333 643 344 c 0
 677.667 310 695 264 695 206 c 0
 695.667 182 692.333 157.667 685 133 c 0
 668.333 76.3333 633.333 35.3333 580 10 c 0
 550.667 -3.33333 518.667 -10 484 -10 c 0
 435.333 -9.33333 397.667 -3 371 9 c 0
 348.333 19.6667 325.667 35.3333 303 56 c 0
 265.667 90 245.333 156 242 254 c 0
 241.333 268.667 241 285 241 303 c 2
 241 366 l 2
 241 449.333 250.333 509.333 269 546 c 0
 284.333 576 317.667 617.667 369 671 c 1
 321.667 727 255.667 767.333 171 792 c 1
 184.333 854.667 220.333 917 279 979 c 1
 384.333 1092.33 517 1149 677 1149 c 0
 827 1149 943.667 1102 1027 1008 c 0
 1099 926.667 1135 815 1135 673 c 2
 1135 310 l 2
504 110 m 0
 529.333 110 548.333 124 561 152 c 0
 567 164.667 570 179 570 195 c 1
 567.333 237.667 552.667 264.667 526 276 c 0
 519.333 278.667 512 280 504 280 c 0
 473.333 280 456 260 452 220 c 0
 451.333 215.333 451 210 451 204 c 0
 451 141.333 468.667 110 504 110 c 0
1104 -22 m 0
 1164 -24.6667 1207.33 -48 1234 -92 c 0
 1248.67 -116 1256 -144.667 1256 -178 c 0
 1256 -184.667 1255.67 -191.333 1255 -198 c 0
 1253 -222.667 1241.67 -245 1221 -265 c 1
 1319 -246.333 1386.33 -195.667 1423 -113 c 0
 1433.67 -88.3333 1440.67 -62 1444 -34 c 1
 1614 -48 l 1
 1611.33 -137.333 1579 -216.667 1517 -286 c 1
 1484 -319 l 1
 1432.67 -363.667 1373 -393.333 1305 -408 c 0
 1275.67 -414 1245.33 -417 1214 -417 c 0
 1086 -417 999.333 -378 954 -300 c 0
 950.667 -294 947.667 -288 945 -282 c 0
 933.667 -256 928 -228.333 928 -199 c 0
 928.667 -138.333 949 -91.3333 989 -58 c 0
 1017 -34 1052 -22 1094 -22 c 0
 1104 -22 l 0
1071 -235 m 1
 1090 -237 l 1
 1112.67 -235 1128 -224 1136 -204 c 0
 1137.33 -201.333 1138.33 -198.667 1139 -196 c 1
 1139 -176 l 1
 1135.67 -154 1124 -139.667 1104 -133 c 0
 1102.67 -133 1101.33 -132.667 1100 -132 c 2
 1078 -130 l 1
 1060 -136 l 2
 1051.33 -140 1044.67 -146.333 1040 -155 c 1
 1034 -171 l 1
 1033 -191 l 1
 1035 -212.333 1047.67 -227 1071 -235 c 1
EndSplineSet
EndChar
StartChar: uni0E0E
Encoding: 136 3598 138
OldEncoding: 3598
Width: 1375
Flags: W
Fore
1006 657 m 2
 1006 838.333 926.667 929 768 929 c 0
 662 929 584 896.333 534 831 c 1
 608 795 660 739 690 663 c 1
 686 661 656 627.667 600 563 c 0
 568 525.667 552 463.333 552 376 c 2
 552 303 l 2
 552 193.667 537.667 118.667 509 78 c 0
 503.667 70 497.333 62.6667 490 56 c 0
 446 15.3333 396.667 -6.33333 342 -9 c 0
 335.333 -9.66667 324.333 -10 309 -10 c 0
 235 -10 178 17.6667 138 73 c 0
 124.667 91 114.667 111 108 133 c 0
 100.667 157.667 97.3333 182 98 206 c 0
 98 264 115.333 310 150 344 c 0
 181.333 375.333 218 391 260 391 c 0
 272.667 391.667 285 390 297 386 c 0
 311 380.667 322.667 373 332 363 c 1
 332 384 l 2
 332 455.333 341.333 509.333 360 546 c 0
 375.333 576 408.667 617.667 460 671 c 1
 412.667 727 346.667 767.333 262 792 c 1
 275.333 854.667 311.333 917 370 979 c 1
 475.333 1092.33 608 1149 768 1149 c 0
 918 1149 1034.67 1102 1118 1008 c 0
 1190 926.667 1226 815 1226 673 c 2
 1226 -410 l 1
 1006 -410 l 1
 944.667 -321.333 880 -258 812 -220 c 1
 768.667 -302.667 714.333 -361 649 -395 c 1
 646.333 -395.667 644 -396.667 642 -398 c 0
 598 -419.333 548 -430 492 -430 c 0
 406 -430 342 -405 300 -355 c 0
 298.667 -353.667 297.333 -352 296 -350 c 0
 274.667 -322.667 264 -291 264 -255 c 0
 264 -235 267.333 -214.333 274 -193 c 0
 292.667 -133.667 328.333 -85 381 -47 c 0
 400.333 -33.6667 420 -23.3333 440 -16 c 0
 486 1.33333 535.667 10 589 10 c 0
 637.667 10 687.333 2.66667 738 -12 c 1
 820 142 l 1
 956 88 l 1
 878 -67 l 1
 911.333 -79.6667 948 -103 988 -137 c 0
 995.333 -143.667 1001.33 -149.667 1006 -155 c 1
 1006 657 l 2
289 110 m 0
 324.333 110 342 141.333 342 204 c 0
 342 248.667 327.667 273.667 299 279 c 0
 295.667 279.667 292.333 280 289 280 c 0
 259.667 280 239.667 262 229 226 c 0
 225.667 216.667 223.667 206.333 223 195 c 0
 223 159 235.333 133.333 260 118 c 0
 269.333 112.667 279 110 289 110 c 0
455 -252 m 0
 464.333 -266 479 -273 499 -273 c 0
 523 -273 552.333 -263 587 -243 c 0
 599.667 -236.333 617.333 -217.667 640 -187 c 0
 650 -173.667 657 -162.667 661 -154 c 1
 644.333 -139.333 619.333 -132 586 -132 c 0
 583 -132 583 -132 579 -132 c 0
 542.333 -134 510 -144.667 482 -164 c 1
 464.667 -178 453.667 -196 449 -218 c 1
 449 -237 l 1
 449.667 -242.333 451.667 -247.333 455 -252 c 0
EndSplineSet
EndChar
StartChar: uni0E0F
Encoding: 137 3599 139
OldEncoding: 3599
Width: 1375
Flags: W
Fore
288 110 m 0
 323.333 110 341 141.333 341 204 c 0
 341 248.667 326.667 273.667 298 279 c 0
 294.667 279.667 291.333 280 288 280 c 0
 258.667 280 238.667 262 228 226 c 0
 224.667 216.667 222.667 206.333 222 195 c 0
 222 159 234.333 133.333 259 118 c 0
 268.333 112.667 278 110 288 110 c 0
1005 657 m 1
 1004.33 838.333 925 929 767 929 c 0
 661 929 583 896.333 533 831 c 1
 607 795 659 739 689 663 c 1
 685 661 655 627.667 599 563 c 0
 567 525.667 551 463.333 551 376 c 2
 551 303 l 2
 551 193.667 536.667 118.667 508 78 c 0
 502.667 70 496.333 62.6667 489 56 c 0
 445 15.3333 395.667 -6.33333 341 -9 c 0
 334.333 -9.66667 323.333 -10 308 -10 c 0
 234 -10 177 17.6667 137 73 c 0
 123.667 91 113.667 111 107 133 c 0
 99.6667 157.667 96.3333 182 97 206 c 0
 97 264 114.333 310 149 344 c 0
 180.333 375.333 217 391 259 391 c 0
 271.667 391.667 284 390 296 386 c 0
 310 380.667 321.667 373 331 363 c 1
 331 384 l 2
 331 455.333 340.333 509.333 359 546 c 0
 374.333 576 407.667 617.667 459 671 c 1
 411.667 727 345.667 767.333 261 792 c 1
 274.333 854.667 310.333 917 369 979 c 1
 474.333 1092.33 607 1149 767 1149 c 0
 917 1149 1033.67 1102 1117 1008 c 0
 1189 926.667 1225 815 1225 673 c 2
 1225 -410 l 1
 1008 -410 l 1
 988.667 -314 956.333 -259.667 911 -247 c 1
 893 -245 l 1
 862.333 -245 827.333 -283.333 788 -360 c 0
 780.667 -374 774 -388.333 768 -403 c 1
 732.667 -343 704.667 -303.333 684 -284 c 0
 674 -276 l 1
 642 -323.333 608.667 -359.333 574 -384 c 0
 531.333 -414 476.667 -429 410 -429 c 0
 394 -429 378 -428 362 -426 c 0
 300 -418.667 253 -390.333 221 -341 c 0
 200.333 -309.667 190 -274 190 -234 c 0
 190 -162 223.333 -103 290 -57 c 0
 346 -19 410 0.333333 482 1 c 1
 533 -3 l 1
 565.667 -7.66667 598 -17.3333 630 -32 c 1
 716 119 l 1
 843 73 l 1
 760 -90 l 1
 768 -96.6667 776 -107.333 784 -122 c 1
 809.333 -77.3333 836 -44.3333 864 -23 c 0
 875.333 -14.3333 885 -10 893 -10 c 0
 922.333 -10 959.667 -27 1005 -61 c 1
 1005 657 l 1
358 -268 m 0
 371.333 -284.667 389 -293 411 -293 c 0
 434.333 -293 464 -283 500 -263 c 1
 513.333 -254.333 530 -235 550 -205 c 0
 559.333 -191.667 565.333 -181 568 -173 c 1
 553.333 -159 523.333 -152 478 -152 c 0
 442.667 -152 412.333 -160 387 -176 c 0
 371 -186.667 359.333 -202.667 352 -224 c 1
 349 -245 l 1
 349.667 -251.667 351.667 -257.667 355 -263 c 0
 355.667 -265 356.667 -266.667 358 -268 c 0
EndSplineSet
EndChar
StartChar: uni0E10
Encoding: 138 3600 140
OldEncoding: 3600
Width: 1130
Flags: W
Fore
809 529 m 2
 809 562.333 794 587 764 603 c 1
 685 636 l 1
 576.333 672 401.333 707.333 160 742 c 1
 178 829.333 205 901 241 957 c 0
 278.333 1015.67 330 1063 396 1099 c 0
 456.667 1132.33 534.333 1149 629 1149 c 0
 705.667 1149 777.333 1133.67 844 1103 c 0
 900.667 1077 960 1064 1022 1064 c 0
 1048.67 1064 1073.67 1066.67 1097 1072 c 1
 1058 862 l 1
 1041.33 858 1021.67 856 999 856 c 0
 977.667 855.333 955.333 857 932 861 c 0
 891.333 867 857.667 876.333 831 889 c 0
 769.667 917.667 705.333 934.667 638 940 c 2
 618 941 l 2
 545.333 941 499.333 924.667 480 892 c 1
 682.667 852.667 818.667 814.667 888 778 c 0
 982 728 1029 659.667 1029 573 c 2
 1029 279 l 2
 1029 86.3333 935.667 -10 749 -10 c 0
 562.333 -10 469 87.6667 469 283 c 2
 469 289 l 1
 459 278.333 446.333 270.667 431 266 c 0
 417 262 403.333 260 390 260 c 0
 351.333 260.667 316.333 276.667 285 308 c 0
 251 341.333 234 385.333 234 440 c 0
 234 536.667 270.667 603 344 639 c 0
 366.667 649.667 391.667 657 419 661 c 0
 502.333 672.333 570.333 655.333 623 610 c 1
 667 569.333 689 510.333 689 433 c 2
 689 283 l 2
 689 234.333 709 210 749 210 c 0
 789 210 809 233 809 279 c 2
 809 529 l 2
415 541 m 0
 391 541 372.333 528 359 502 c 0
 352.333 489.333 349 475.333 349 460 c 0
 349 456 l 0
 351 404.667 370 377 406 373 c 0
 408.667 372.333 411.667 372 415 372 c 0
 451 374.667 469 400 469 448 c 0
 469 454 469 454 469 461 c 0
 469 514.333 451 541 415 541 c 0
747 -319 m 1
 747 -273 l 1
 720 -276 l 1
 686 -274.667 657.667 -264.667 635 -246 c 0
 609 -226 596 -200 596 -168 c 0
 596 -153.333 599 -138.667 605 -124 c 1
 613 -95.3333 635.333 -71.6667 672 -53 c 0
 696 -40.3333 720.667 -34 746 -34 c 0
 802 -34 846 -44.6667 878 -66 c 0
 911.333 -88 930 -128.333 934 -187 c 0
 934.667 -197.667 935 -209.667 935 -223 c 2
 935 -530 l 1
 752 -530 l 1
 732 -480 703 -453.333 665 -450 c 1
 635 -450 602.333 -473.333 567 -520 c 0
 564 -524 564 -524 560 -529 c 1
 537.333 -496.333 503 -459.333 457 -418 c 1
 430.333 -452.667 396.667 -482.667 356 -508 c 1
 315.333 -530 273 -541 229 -541 c 0
 187 -541 151 -530.667 121 -510 c 0
 108.333 -501.333 97 -490.667 87 -478 c 0
 74.3333 -462.667 68 -441.333 68 -414 c 0
 68 -382.667 75.6667 -353.333 91 -326 c 0
 97.6667 -313.333 105.333 -302.667 114 -294 c 1
 156.667 -255.333 212 -235.333 280 -234 c 0
 320.667 -234 353.667 -239 379 -249 c 0
 397 -256 397 -256 402 -258 c 1
 433 -217 l 2
 437.667 -210.333 442.667 -202 448 -192 c 1
 568 -239 l 1
 525 -306 l 1
 531.667 -309.333 544.667 -319.333 564 -336 c 1
 588 -300 621.667 -282 665 -282 c 0
 696.333 -282 723.667 -294.333 747 -319 c 1
732 -106 m 1
 709.333 -106 693.333 -116 684 -136 c 0
 681.333 -142 680 -148.333 680 -155 c 0
 680 -161.667 681 -168 683 -174 c 0
 691 -193.333 705.667 -203.667 727 -205 c 0
 731 -205 l 0
 753 -205 767.333 -195.333 774 -176 c 1
 777 -158 l 1
 776.333 -130.667 765 -114 743 -108 c 2
 732 -106 l 1
200 -418 m 0
 210.667 -429.333 223.333 -435 238 -435 c 0
 246.667 -435 256 -433.333 266 -430 c 0
 274.667 -427.333 284.667 -423.333 296 -418 c 0
 308 -412 323.667 -397.333 343 -374 c 1
 347.667 -369.333 351.333 -364.667 354 -360 c 1
 340.667 -350.667 320.667 -346 294 -346 c 0
 267.333 -346 243.333 -351.333 222 -362 c 1
 203.333 -374 194 -387.333 194 -402 c 0
 194 -408 196 -413.333 200 -418 c 0
EndSplineSet
EndChar
StartChar: uni0E11
Encoding: 139 3601 141
OldEncoding: 3601
Width: 1700
Flags: W
Fore
335 588 m 1
 354 586 l 1
 376.667 588 395.667 602 411 628 c 0
 416.333 636.667 419.667 644.667 421 652 c 1
 422 691 l 1
 419.333 719 405.333 738.667 380 750 c 0
 374 752.667 368.333 754 363 754 c 1
 347 751 l 1
 338.333 746.333 330.333 738.333 323 727 c 0
 315.667 715 309.333 699.667 304 681 c 0
 300.667 666.333 299 653.333 299 642 c 0
 299 614 311 596 335 588 c 1
645 0 m 1
 645 575 l 2
 645 623 682 679.667 756 745 c 0
 765.333 753.667 775.333 762.333 786 771 c 1
 782.667 806.333 769.667 845 747 887 c 0
 737.667 904.333 728 918.333 718 929 c 1
 622 857 521 857 415 929 c 1
 396.333 903 384.667 882 380 866 c 0
 379.333 864.667 379 863.333 379 862 c 1
 457.667 862 510.667 826.667 538 756 c 0
 548 729.333 553 702 553 674 c 0
 553 610.667 532 558 490 516 c 0
 451.333 476.667 401.667 457 341 457 c 0
 332.333 457 323.667 457.333 315 458 c 0
 247 464 195.667 500.333 161 567 c 0
 139.667 608.333 129 653.667 129 703 c 0
 129 716.333 129.667 729 131 741 c 0
 141.667 821 156.667 881.667 176 923 c 0
 188 948.333 203.667 973.667 223 999 c 0
 261 1048.33 308 1090 364 1124 c 0
 382.667 1135.33 399.667 1143.67 415 1149 c 1
 574 1041 l 1
 718 1149 l 1
 762.667 1137 806 1111.67 848 1073 c 1
 872 1049 l 2
 910.667 1011 942.333 959.333 967 894 c 0
 983.667 850 992 809 992 771 c 1
 907.333 688.333 865 623 865 575 c 2
 865 410 l 1
 1141 990 l 1
 1175 1068 1228.67 1115 1302 1131 c 0
 1316.67 1134.33 1331.67 1136 1347 1136 c 0
 1366.33 1135.33 1384.67 1132.67 1402 1128 c 0
 1466 1110 1508.67 1067.33 1530 1000 c 0
 1538.67 973.333 1543 943.333 1543 910 c 2
 1543 0 l 1
 1323 0 l 1
 1323 659 l 2
 1323 710.333 1320.67 740.333 1316 749 c 0
 1314 753 1310 757 1304 761 c 0
 1300 763.667 1296 765 1292 765 c 1
 1278 761 l 1
 1266 753 l 1
 1263.33 749.667 1261.33 746 1260 742 c 1
 919 0 l 1
 645 0 l 1
EndSplineSet
EndChar
StartChar: uni0E12
Encoding: 140 3602 142
OldEncoding: 3602
Width: 1850
Flags: W
Fore
1173 677 m 2
 1173 430 l 1
 1246.33 359.333 1297 313.667 1325 293 c 0
 1363 264.333 1394 250 1418 250 c 0
 1425.33 250 1432.33 251.667 1439 255 c 0
 1455.67 263 1465 277.667 1467 299 c 0
 1467.67 306.333 1468 332.333 1468 377 c 2
 1468 1139 l 1
 1687 1139 l 1
 1687 218 l 2
 1687 120.667 1660.33 55 1607 21 c 0
 1572.33 -1.66667 1533.67 -13 1491 -13 c 0
 1459.67 -13 1428.33 -6.66667 1397 6 c 0
 1357 22 1282.33 74.6667 1173 164 c 1
 1173 116 1155.33 75.3333 1120 42 c 0
 1084.67 8.66667 1042 -8.66667 992 -10 c 2
 974 -10 l 1
 928 -6.66667 890 7.33333 860 32 c 1
 827 63 l 1
 825.667 65 824.333 66.6667 823 68 c 0
 798.333 94.6667 781.667 138 773 198 c 1
 769 249 l 1
 769 255 769.333 261 770 267 c 0
 776.667 344.333 804 404.333 852 447 c 0
 860 453 l 0
 886.667 473.667 917.667 491.667 953 507 c 1
 953 664 l 2
 953 734 945.333 782.667 930 810 c 0
 908.667 848.667 877.333 881.667 836 909 c 1
 663 793 l 1
 499 909 l 1
 445.667 886.333 408 850.667 386 802 c 0
 367.333 761.333 358 710.667 358 650 c 0
 358 554 384.667 421.333 438 252 c 1
 443 234 l 1
 474.333 246 504.667 272 534 312 c 0
 544 326 551 338.333 555 349 c 1
 535 349 l 1
 511.667 353 490 362.667 470 378 c 0
 428.667 409.333 405 450 399 500 c 1
 397 547 l 1
 398.333 629 429.333 685.333 490 716 c 1
 516 734.667 552.333 744 599 744 c 0
 633 744 661.667 738.333 685 727 c 0
 756.333 693 792 622.333 792 515 c 0
 792 503 791.667 490.333 791 477 c 0
 781.667 339 726.667 220 626 120 c 1
 618 111.333 609.333 103 600 95 c 0
 552 52.3333 506.667 20.6667 464 0 c 1
 224 0 l 1
 224 108 l 2
 224 145.333 211.667 228 187 356 c 0
 157 510 142 626.667 142 706 c 0
 142 750.667 145.667 790.667 153 826 c 0
 176.333 936.667 232.333 1022.67 321 1084 c 0
 373.667 1120.67 433 1142.33 499 1149 c 1
 663 1033 l 1
 836 1149 l 1
 947.333 1124.33 1033 1070 1093 986 c 1
 1146.33 913.333 1173 810.333 1173 677 c 2
969 317 m 1
 955 317 942.667 312.667 932 304 c 0
 908.667 285.333 896.667 257 896 219 c 0
 896 177 907 156 929 156 c 0
 950.333 156 963 167.333 967 190 c 0
 968.333 198 969 208.667 969 222 c 2
 969 317 l 1
568 624 m 1
 550 620 l 1
 531.333 612.667 519.333 605 514 597 c 0
 502 580.333 495.333 563.333 494 546 c 0
 492 525.333 495.667 506.333 505 489 c 0
 517 467.667 532.333 456.333 551 455 c 0
 569.667 453.667 585 460.667 597 476 c 0
 605.667 488 611.333 508.333 614 537 c 0
 616.667 567 613.667 588.667 605 602 c 1
 595 614.667 582.667 622 568 624 c 1
EndSplineSet
EndChar
StartChar: uni0E13
Encoding: 141 3603 143
OldEncoding: 3603
Width: 1900
Flags: W
Fore
1092 673 m 2
 1092 377 l 2
 1092 322.333 1093.67 290.333 1097 281 c 0
 1100.33 269.667 1108.33 261 1121 255 c 0
 1127.67 251.667 1135 250 1143 250 c 0
 1180.33 250.667 1242 291.667 1328 373 c 0
 1330 375 1330 375 1387 430 c 1
 1387 1139 l 1
 1606 1139 l 1
 1606 507 l 1
 1654 499.667 1695 481.667 1729 453 c 0
 1782.33 407 1812.33 345 1819 267 c 1
 1819 220 l 1
 1813.67 161.333 1799 114.333 1775 79 c 0
 1770 73 1770 73 1766 68 c 0
 1725.33 23.3333 1674.67 -2 1614 -8 c 2
 1586 -10 l 1
 1546 -7 l 1
 1503.33 -0.333333 1468 16 1440 42 c 0
 1404.67 75.3333 1387 116 1387 164 c 1
 1277.67 74.6667 1203 22 1163 6 c 0
 1131.67 -6.66667 1100.33 -13 1069 -13 c 0
 1026.33 -13 987.667 -1.66667 953 21 c 0
 899.667 55 873 120.667 873 218 c 2
 873 657 l 2
 873 838.333 793.667 929 635 929 c 0
 529 929 451 896.333 401 831 c 1
 475 795 527 739 557 663 c 1
 553 661 523 627.667 467 563 c 0
 435 525.667 419 463.333 419 376 c 2
 419 363 l 1
 436.333 381.667 460 391 490 391 c 0
 508.667 391.667 527.667 388 547 380 c 0
 567.667 371.333 585.667 359.333 601 344 c 0
 635.667 310 653 264 653 206 c 0
 653.667 182 650.333 157.667 643 133 c 0
 626.333 76.3333 591.333 35.3333 538 10 c 0
 508.667 -3.33333 476.667 -10 442 -10 c 0
 393.333 -9.33333 355.667 -3 329 9 c 0
 306.333 19.6667 283.667 35.3333 261 56 c 0
 223.667 90 203.333 156 200 254 c 0
 199.333 268.667 199 285 199 303 c 2
 199 366 l 2
 199 449.333 208.333 509.333 227 546 c 0
 242.333 576 275.667 617.667 327 671 c 1
 279.667 727 213.667 767.333 129 792 c 1
 142.333 854.667 178.333 917 237 979 c 1
 342.333 1092.33 475 1149 635 1149 c 0
 785 1149 901.667 1102 985 1008 c 0
 1056.33 928 1092 816.333 1092 673 c 2
1591 317 m 1
 1591 222 l 2
 1591 186.667 1598 166 1612 160 c 0
 1616.67 157.333 1623 156 1631 156 c 0
 1653 156 1664 177 1664 219 c 0
 1663.33 257 1651.33 285.333 1628 304 c 0
 1617.33 312.667 1605 317 1591 317 c 1
462 110 m 0
 487.333 110 506.333 124 519 152 c 0
 525 164.667 528 179 528 195 c 1
 525.333 237.667 510.667 264.667 484 276 c 0
 477.333 278.667 470 280 462 280 c 0
 431.333 280 414 260 410 220 c 0
 409.333 215.333 409 210 409 204 c 0
 409 141.333 426.667 110 462 110 c 0
EndSplineSet
EndChar
StartChar: uni0E14
Encoding: 142 3604 144
OldEncoding: 3604
Width: 1330
Flags: W
Fore
579 624 m 1
 543 618 519.667 599.333 509 568 c 0
 506.333 560.667 504.667 553.333 504 546 c 1
 506 517 l 1
 512 485 526.667 465 550 457 c 0
 554 455.667 558 455 562 455 c 2
 582 457 l 1
 606.667 464.333 621 491 625 537 c 1
 625 573 l 1
 621 603 605.667 620 579 624 c 1
462 0 m 1
 222 0 l 1
 222 108 l 2
 222 145.333 209.667 224.667 185 346 c 0
 155 492 140 603.333 140 680 c 0
 140 723.333 143.667 762.667 151 798 c 0
 174.333 908.667 230.333 994.667 319 1056 c 0
 393 1107.33 479 1137.33 577 1146 c 0
 599.667 1148 624.667 1149 652 1149 c 1
 722 1146 l 1
 806.667 1137.33 884.667 1113.33 956 1074 c 0
 1012.67 1043.33 1057.67 1004.67 1091 958 c 0
 1135 898 1160.67 828.333 1168 749 c 0
 1170 727 1171 703 1171 677 c 2
 1171 0 l 1
 951 0 l 1
 951 664 l 2
 951 715.333 943.333 754.667 928 782 c 0
 896 839.333 844 881.333 772 908 c 0
 733.333 922 694.667 929 656 929 c 0
 580.667 929 512.333 904.667 451 856 c 0
 419 830 396.667 802.667 384 774 c 0
 365.333 733.333 356 684.333 356 627 c 0
 356 543 380 426.333 428 277 c 1
 441 234 l 1
 472.333 246 502.667 272 532 312 c 0
 542 326 549 338.333 553 349 c 1
 533 349 l 1
 509.667 353 488 362.667 468 378 c 0
 426.667 409.333 403 450 397 500 c 1
 395 547 l 1
 396.333 629 427.333 685.333 488 716 c 1
 514 734.667 550.333 744 597 744 c 0
 631 744 659.667 738.333 683 727 c 0
 754.333 693 790 622.667 790 516 c 0
 790 503.333 789.667 490.333 789 477 c 0
 779.667 339 724.667 220 624 120 c 1
 616 111.333 607.333 103 598 95 c 0
 550 52.3333 504.667 20.6667 462 0 c 1
EndSplineSet
EndChar
StartChar: uni0E15
Encoding: 143 3605 145
OldEncoding: 3605
Width: 1330
Flags: W
Fore
579 624 m 1
 543 618 519.667 599.333 509 568 c 0
 506.333 560.667 504.667 553.333 504 546 c 1
 506 517 l 1
 512 485 526.667 465 550 457 c 0
 554 455.667 558 455 562 455 c 2
 582 457 l 1
 606.667 464.333 621 491 625 537 c 1
 625 573 l 1
 621 603 605.667 620 579 624 c 1
462 0 m 1
 222 0 l 1
 222 108 l 2
 222 145.333 209.667 228 185 356 c 0
 155 510 140 626.667 140 706 c 0
 140 750.667 143.667 790.667 151 826 c 0
 174.333 936.667 230.333 1022.67 319 1084 c 0
 371.667 1120.67 431 1142.33 497 1149 c 1
 661 1033 l 1
 834 1149 l 1
 945.333 1124.33 1031 1070 1091 986 c 1
 1144.33 913.333 1171 810.333 1171 677 c 2
 1171 0 l 1
 951 0 l 1
 951 664 l 2
 951 734 943.333 782.667 928 810 c 0
 906.667 848.667 875.333 881.667 834 909 c 1
 661 793 l 1
 497 909 l 1
 443.667 886.333 406 850.667 384 802 c 0
 365.333 761.333 356 710.667 356 650 c 0
 356 554 382.667 421.333 436 252 c 1
 441 234 l 1
 472.333 246 502.667 272 532 312 c 0
 542 326 549 338.333 553 349 c 1
 533 349 l 1
 509.667 353 488 362.667 468 378 c 0
 426.667 409.333 403 450 397 500 c 1
 395 547 l 1
 396.333 629 427.333 685.333 488 716 c 1
 514 734.667 550.333 744 597 744 c 0
 631 744 659.667 738.333 683 727 c 0
 754.333 693 790 622.667 790 516 c 0
 790 503.333 789.667 490.333 789 477 c 0
 779.667 339 724.667 220 624 120 c 1
 616 111.333 607.333 103 598 95 c 0
 550 52.3333 504.667 20.6667 462 0 c 1
EndSplineSet
EndChar
StartChar: uni0E16
Encoding: 144 3606 146
OldEncoding: 3606
Width: 1240
Flags: W
Fore
408 376 m 2
 408 363 l 1
 425.333 381.667 449 391 479 391 c 0
 497.667 391.667 516.667 388 536 380 c 0
 556.667 371.333 574.667 359.333 590 344 c 0
 624.667 310 642 264 642 206 c 0
 642.667 182 639.333 157.667 632 133 c 0
 615.333 76.3333 580.333 35.3333 527 10 c 0
 497.667 -3.33333 465.667 -10 431 -10 c 0
 382.333 -9.33333 344.667 -3 318 9 c 0
 295.333 19.6667 272.667 35.3333 250 56 c 0
 212.667 90 192.333 156 189 254 c 0
 188.333 268.667 188 285 188 303 c 2
 188 366 l 2
 188 449.333 197.333 509.333 216 546 c 0
 231.333 576 264.667 617.667 316 671 c 1
 268.667 727 202.667 767.333 118 792 c 1
 131.333 854.667 167.333 917 226 979 c 1
 331.333 1092.33 464 1149 624 1149 c 0
 774 1149 890.667 1102 974 1008 c 0
 1046 926.667 1082 815 1082 673 c 2
 1082 0 l 1
 862 0 l 1
 862 657 l 2
 862 838.333 782.667 929 624 929 c 0
 518 929 440 896.333 390 831 c 1
 464 795 516 739 546 663 c 1
 542 661 512 627.667 456 563 c 0
 424 525.667 408 463.333 408 376 c 2
451 110 m 0
 476.333 110 495.333 124 508 152 c 0
 514 164.667 517 179 517 195 c 1
 514.333 237.667 499.667 264.667 473 276 c 0
 466.333 278.667 459 280 451 280 c 0
 420.333 280 403 260 399 220 c 1
 398 204 l 1
 398 141.333 415.667 110 451 110 c 0
EndSplineSet
EndChar
StartChar: uni0E17
Encoding: 145 3607 147
OldEncoding: 3607
Width: 1350
Flags: W
Fore
538 410 m 1
 814 990 l 1
 848 1068 901.667 1115 975 1131 c 0
 989.667 1134.33 1004.67 1136 1020 1136 c 0
 1039.33 1135.33 1057.67 1132.67 1075 1128 c 0
 1139 1110 1181.67 1067.33 1203 1000 c 0
 1211.67 973.333 1216 943.333 1216 910 c 2
 1216 0 l 1
 996 0 l 1
 996 659 l 2
 996 710.333 993.667 740.333 989 749 c 0
 987 753 983 757 977 761 c 0
 973 763.667 969 765 965 765 c 1
 951 761 l 2
 943 757.667 937 751.333 933 742 c 2
 592 0 l 1
 318 0 l 1
 318 759 l 1
 310 754.333 293.333 752 268 752 c 2
 257 752 l 2
 229 754.667 201.333 768 174 792 c 0
 138.667 823.333 121 866.667 121 922 c 0
 121 946.667 124.667 974 132 1004 c 0
 143.333 1047.33 170.333 1084 213 1114 c 0
 246.333 1137.33 286.667 1149 334 1149 c 0
 388.667 1148.33 434 1130.33 470 1095 c 0
 515.333 1051.67 538 980.333 538 881 c 2
 538 410 l 1
302 1026 m 0
 283.333 1026 266.333 1015.33 251 994 c 1
 241.667 977.333 237 959.667 237 941 c 0
 237 920.333 242.667 902 254 886 c 0
 267.333 866.667 283.667 857 303 857 c 0
 320.333 857 334.667 865.333 346 882 c 1
 353.333 894.667 357 915.667 357 945 c 0
 357 975 352 996 342 1008 c 128
 332 1020 318.667 1026 302 1026 c 0
EndSplineSet
EndChar
StartChar: uni0E18
Encoding: 146 3608 148
OldEncoding: 3608
Width: 1250
Flags: W
Fore
804 529 m 2
 804 562.333 789 587 759 603 c 1
 680 636 l 1
 571.333 672 396.333 707.333 155 742 c 1
 173 829.333 200 901 236 957 c 0
 273.333 1015.67 325 1063 391 1099 c 0
 451.667 1132.33 529.333 1149 624 1149 c 0
 700.667 1149 772.333 1133.67 839 1103 c 0
 895.667 1077 955 1064 1017 1064 c 0
 1043.67 1064 1068.67 1066.67 1092 1072 c 1
 1053 862 l 1
 1036.33 858 1016.67 856 994 856 c 0
 972.667 855.333 950.333 857 927 861 c 0
 886.333 867 852.667 876.333 826 889 c 0
 764.667 917.667 700.333 934.667 633 940 c 2
 613 941 l 2
 540.333 941 494.333 924.667 475 892 c 1
 677.667 852.667 813.667 814.667 883 778 c 0
 977 728 1024 659.667 1024 573 c 2
 1024 303 l 2
 1024 167.667 975.667 77.3333 879 32 c 0
 818.333 4 733.333 -10 624 -10 c 0
 411.333 -10 289.333 67.6667 258 223 c 0
 252.667 250.333 250 280.667 250 314 c 2
 250 650 l 1
 470 650 l 1
 470 314 l 2
 470 270 498.333 239 555 221 c 0
 576.333 214.333 599.333 210.667 624 210 c 1
 668 212 l 1
 725.333 220 765.667 239.667 789 271 c 0
 799 284.333 804 298.667 804 314 c 2
 804 529 l 2
EndSplineSet
EndChar
StartChar: uni0E19
Encoding: 147 3609 149
OldEncoding: 3609
Width: 1400
Flags: W
Fore
360 776 m 1
 341.333 757.333 315.333 748 282 748 c 0
 227.333 748 185.333 772.333 156 821 c 0
 136.667 853 127 890.333 127 933 c 0
 127 957 130 981.333 136 1006 c 0
 146 1046 171.667 1080.67 213 1110 c 0
 249.667 1136 289 1149 331 1149 c 0
 408.333 1149 469.333 1129 514 1089 c 0
 557.333 1050.33 579 996.333 579 927 c 2
 579 377 l 2
 579 322.333 580.667 290.333 584 281 c 1
 592 267 l 1
 596 262.333 601.333 258.333 608 255 c 0
 614.667 251.667 622.333 250 631 250 c 0
 679 250.667 751 289.667 847 367 c 0
 873 387.667 897 408.667 919 430 c 1
 919 1139 l 1
 1139 1139 l 1
 1139 507 l 1
 1187 499.667 1228 481.667 1262 453 c 0
 1308 413.667 1334.33 355.333 1341 278 c 0
 1342.33 266.667 1343 255.333 1343 244 c 0
 1343 154 1329.33 94.6667 1302 66 c 0
 1260 22 1207.67 -3 1145 -9 c 0
 1136.33 -9.66667 1127.67 -10 1119 -10 c 2
 1078 -7 l 1
 1035.33 -0.333333 1000.33 16 973 42 c 0
 937.667 75.3333 920 116 920 164 c 1
 870.667 123.333 796.667 78 698 28 c 1
 650 6 l 1
 618.667 -6.66667 587.333 -13 556 -13 c 0
 513.333 -13 474.667 -1.66667 440 21 c 0
 386.667 55 360 120.667 360 218 c 2
 360 776 l 1
306 1028 m 0
 282 1028 263.333 1014.33 250 987 c 1
 242 962 l 1
 240.667 956 240 949.667 240 943 c 0
 242.667 906.333 255.667 881 279 867 c 0
 287.667 861.667 297 859 307 859 c 0
 342.333 861.667 360 887.333 360 936 c 0
 360 941 360 941 360 947 c 0
 360 1001 342 1028 306 1028 c 0
1124 317 m 1
 1124 222 l 2
 1124 186.667 1131 166 1145 160 c 0
 1149.67 157.333 1156 156 1164 156 c 0
 1186 156 1197 177 1197 219 c 0
 1196.33 257 1184.33 285.333 1161 304 c 0
 1150.33 312.667 1138 317 1124 317 c 1
EndSplineSet
EndChar
StartChar: uni0E1A
Encoding: 148 3610 150
OldEncoding: 3610
Width: 1300
Flags: W
Fore
547 379 m 2
 547 287.667 591.333 233 680 215 c 0
 698.667 211.667 719.333 210 742 210 c 0
 848.667 210.667 910.667 249.667 928 327 c 0
 931.333 342.333 933 359.667 933 379 c 2
 933 1139 l 1
 1153 1139 l 1
 1153 273 l 2
 1153 147 1097.33 64 986 24 c 0
 924 1.33333 841 -10 737 -10 c 0
 487.667 -10 352 67.3333 330 222 c 0
 328 236.667 327 252 327 268 c 2
 327 759 l 1
 312.333 753 294.333 749.667 273 749 c 0
 241 749 211.333 756 184 770 c 0
 170.667 776.667 159 785 149 795 c 0
 114.333 829.667 97 874.333 97 929 c 0
 97 952.333 100.333 977.667 107 1005 c 0
 118.333 1050.33 145.333 1087.67 188 1117 c 0
 212 1133.67 237 1144 263 1148 c 1
 311 1151 l 1
 379 1151 433 1135.33 473 1104 c 0
 476.333 1102 479.333 1099.67 482 1097 c 0
 519.333 1062.33 540.333 999.667 545 909 c 1
 547 835 l 1
 547 379 l 2
278 1028 m 0
 253.333 1028 234.667 1014.67 222 988 c 0
 215.333 974 212 959 212 943 c 1
 214.667 905.667 227.667 880 251 866 c 0
 259 861.333 268 859 278 859 c 0
 314 861.667 332 887 332 935 c 0
 332 941 332 941 332 948 c 0
 332 1001.33 314 1028 278 1028 c 0
EndSplineSet
EndChar
StartChar: uni0E1B
Encoding: 149 3611 151
OldEncoding: 3611
Width: 1300
Flags: W
Fore
547 379 m 2
 547 287.667 591.333 233 680 215 c 0
 698.667 211.667 719.333 210 742 210 c 0
 848.667 210.667 910.667 249.667 928 327 c 0
 931.333 342.333 933 359.667 933 379 c 2
 933 1480 l 1
 1153 1480 l 1
 1153 273 l 2
 1153 147 1097.33 64 986 24 c 0
 924 1.33333 841 -10 737 -10 c 0
 487.667 -10 352 67.3333 330 222 c 0
 328 236.667 327 252 327 268 c 2
 327 759 l 1
 312.333 753 294.333 749.667 273 749 c 0
 241 749 211.333 756 184 770 c 0
 170.667 776.667 159 785 149 795 c 0
 114.333 829.667 97 874.333 97 929 c 0
 97 952.333 100.333 977.667 107 1005 c 0
 118.333 1050.33 145.333 1087.67 188 1117 c 0
 212 1133.67 237 1144 263 1148 c 1
 311 1151 l 1
 379 1151 433 1135.33 473 1104 c 0
 476.333 1102 479.333 1099.67 482 1097 c 0
 519.333 1062.33 540.333 999.667 545 909 c 1
 547 835 l 1
 547 379 l 2
278 1028 m 0
 253.333 1028 234.667 1014.67 222 988 c 0
 215.333 974 212 959 212 943 c 1
 214.667 905.667 227.667 880 251 866 c 0
 259 861.333 268 859 278 859 c 0
 314 861.667 332 887 332 935 c 0
 332 941 332 941 332 948 c 0
 332 1001.33 314 1028 278 1028 c 0
EndSplineSet
EndChar
StartChar: uni0E1C
Encoding: 150 3612 152
OldEncoding: 3612
Width: 1200
Flags: W
Fore
133 835 m 2
 133 942.333 144.667 1017 168 1059 c 0
 176.667 1073.67 186.667 1086.33 198 1097 c 0
 234 1129.67 286.667 1147.67 356 1151 c 1
 406 1150 l 2
 409.333 1149.33 413 1148.67 417 1148 c 0
 466.333 1140.67 508 1114.33 542 1069 c 0
 557.333 1048.33 567.667 1027 573 1005 c 0
 579.667 978.333 583 953.333 583 930 c 1
 579 888 l 1
 572.333 851.333 556.333 820.333 531 795 c 0
 501 765 460 749.667 408 749 c 0
 389.333 749 372.667 751.667 358 757 c 2
 353 759 l 1
 353 268 l 2
 353 235.333 368 214.333 398 205 c 0
 404.667 203 411 202 417 202 c 0
 448.333 202 468 215.333 476 242 c 0
 478.667 250 480 258.667 480 268 c 2
 480 698 l 1
 700 698 l 1
 700 268 l 2
 700 236 714.667 215 744 205 c 0
 751.333 203 758 202 764 202 c 0
 790 202 807.667 213.333 817 236 c 0
 821 245.333 823 256 823 268 c 2
 823 1139 l 1
 1043 1139 l 1
 1043 268 l 2
 1043 156 1014 76.6667 956 30 c 0
 922 3.33333 879.333 -10 828 -10 c 0
 756.667 -10 713 -8.66667 697 -6 c 0
 648.333 0.666667 615 20.6667 597 54 c 1
 570.333 16 528 -5 470 -9 c 0
 461.333 -9.66667 431.667 -10 381 -10 c 0
 249 -10 169.667 51 143 173 c 0
 136.333 201.667 133 233.333 133 268 c 2
 133 835 l 2
402 1028 m 0
 366 1028 348 1001.33 348 948 c 1
 350 911 l 1
 357 888 l 1
 365.667 870 380.667 860.333 402 859 c 1
 430.667 859 450.667 876.333 462 911 c 0
 465.333 921.667 467.333 932.333 468 943 c 0
 468 978.333 455.667 1003.67 431 1019 c 0
 421.667 1025 412 1028 402 1028 c 0
EndSplineSet
EndChar
StartChar: uni0E1D
Encoding: 151 3613 153
OldEncoding: 3613
Width: 1200
Flags: W
Fore
133 835 m 2
 133 942.333 144.667 1017 168 1059 c 0
 176.667 1073.67 186.667 1086.33 198 1097 c 0
 234 1129.67 286.667 1147.67 356 1151 c 1
 406 1150 l 2
 409.333 1149.33 413 1148.67 417 1148 c 0
 466.333 1140.67 508 1114.33 542 1069 c 0
 557.333 1048.33 567.667 1027 573 1005 c 0
 579.667 978.333 583 953.333 583 930 c 1
 579 888 l 1
 572.333 851.333 556.333 820.333 531 795 c 0
 501 765 460 749.667 408 749 c 0
 389.333 749 372.667 751.667 358 757 c 2
 353 759 l 1
 353 268 l 2
 353 235.333 368 214.333 398 205 c 0
 404.667 203 411 202 417 202 c 0
 448.333 202 468 215.333 476 242 c 0
 478.667 250 480 258.667 480 268 c 2
 480 698 l 1
 700 698 l 1
 700 268 l 2
 700 236 714.667 215 744 205 c 0
 751.333 203 758 202 764 202 c 0
 790 202 807.667 213.333 817 236 c 0
 821 245.333 823 256 823 268 c 2
 823 1480 l 1
 1043 1480 l 1
 1043 268 l 2
 1043 156 1014 76.6667 956 30 c 0
 922 3.33333 879.333 -10 828 -10 c 0
 756.667 -10 713 -8.66667 697 -6 c 0
 648.333 0.666667 615 20.6667 597 54 c 1
 570.333 16 528 -5 470 -9 c 0
 461.333 -9.66667 431.667 -10 381 -10 c 0
 249 -10 169.667 51 143 173 c 0
 136.333 201.667 133 233.333 133 268 c 2
 133 835 l 2
402 1028 m 0
 366 1028 348 1001.33 348 948 c 1
 350 911 l 1
 357 888 l 1
 365.667 870 380.667 860.333 402 859 c 1
 430.667 859 450.667 876.333 462 911 c 0
 465.333 921.667 467.333 932.333 468 943 c 0
 468 978.333 455.667 1003.67 431 1019 c 0
 421.667 1025 412 1028 402 1028 c 0
EndSplineSet
EndChar
StartChar: uni0E1E
Encoding: 152 3614 154
OldEncoding: 3614
Width: 1350
Flags: W
Fore
297 268 m 2
 297 759 l 1
 282.333 753 264.333 749.667 243 749 c 0
 211 749 181.333 756 154 770 c 0
 140.667 776.667 129 785 119 795 c 0
 84.3333 829.667 67 874.333 67 929 c 0
 67 952.333 70.3333 977.667 77 1005 c 0
 88.3333 1050.33 115.333 1087.67 158 1117 c 0
 182 1133.67 207 1144 233 1148 c 1
 281 1151 l 1
 349 1151 403 1135.33 443 1104 c 0
 446.333 1102 449.333 1099.67 452 1097 c 0
 489.333 1062.33 510.333 999.667 515 909 c 1
 517 835 l 1
 517 268 l 2
 517 235.333 532 214.333 562 205 c 0
 568.667 203 575 202 581 202 c 0
 612.333 202 632 215.333 640 242 c 0
 642.667 250 644 258.667 644 268 c 2
 644 1039 l 1
 864 1039 l 1
 864 268 l 2
 864 236 878.667 215 908 205 c 0
 915.333 203 922 202 928 202 c 0
 954 202 971.667 213.333 981 236 c 0
 985 245.333 987 256 987 268 c 2
 987 1139 l 1
 1207 1139 l 1
 1207 268 l 2
 1207 156 1178 76.6667 1120 30 c 0
 1086 3.33333 1043.33 -10 992 -10 c 0
 920.667 -10 877 -8.66667 861 -6 c 0
 812.333 0.666667 779 20.6667 761 54 c 1
 734.333 16 692 -5 634 -9 c 0
 625.333 -9.66667 595.667 -10 545 -10 c 0
 413 -10 333.667 51 307 173 c 0
 300.333 201.667 297 233.333 297 268 c 2
248 1028 m 0
 223.333 1028 204.667 1014.67 192 988 c 0
 185.333 974 182 959 182 943 c 1
 184.667 905.667 197.667 880 221 866 c 0
 229 861.333 238 859 248 859 c 0
 284 861.667 302 887 302 935 c 0
 302 941 302 941 302 948 c 0
 302 1001.33 284 1028 248 1028 c 0
EndSplineSet
EndChar
StartChar: uni0E1F
Encoding: 153 3615 155
OldEncoding: 3615
Width: 1450
Flags: W
Fore
348 268 m 2
 348 759 l 1
 333.333 753 315.333 749.667 294 749 c 0
 262 749 232.333 756 205 770 c 0
 191.667 776.667 180 785 170 795 c 0
 135.333 829.667 118 874.333 118 929 c 0
 118 952.333 121.333 977.667 128 1005 c 0
 139.333 1050.33 166.333 1087.67 209 1117 c 0
 233 1133.67 258 1144 284 1148 c 1
 332 1151 l 1
 400 1151 454 1135.33 494 1104 c 0
 497.333 1102 500.333 1099.67 503 1097 c 0
 540.333 1062.33 561.333 999.667 566 909 c 1
 568 835 l 1
 568 268 l 2
 568 235.333 583 214.333 613 205 c 0
 619.667 203 626 202 632 202 c 0
 663.333 202 683 215.333 691 242 c 0
 693.667 250 695 258.667 695 268 c 2
 695 1039 l 1
 915 1039 l 1
 915 268 l 2
 915 236 929.667 215 959 205 c 0
 966.333 203 973 202 979 202 c 0
 1005 202 1022.67 213.333 1032 236 c 0
 1036 245.333 1038 256 1038 268 c 2
 1038 1480 l 1
 1258 1480 l 1
 1258 268 l 2
 1258 156 1229 76.6667 1171 30 c 0
 1137 3.33333 1094.33 -10 1043 -10 c 0
 971.667 -10 928 -8.66667 912 -6 c 0
 863.333 0.666667 830 20.6667 812 54 c 1
 785.333 16 743 -5 685 -9 c 0
 676.333 -9.66667 646.667 -10 596 -10 c 0
 464 -10 384.667 51 358 173 c 0
 351.333 201.667 348 233.333 348 268 c 2
299 1028 m 0
 274.333 1028 255.667 1014.67 243 988 c 0
 236.333 974 233 959 233 943 c 1
 235.667 905.667 248.667 880 272 866 c 0
 280 861.333 289 859 299 859 c 0
 335 861.667 353 887 353 935 c 0
 353 941 353 941 353 948 c 0
 353 1001.33 335 1028 299 1028 c 0
EndSplineSet
EndChar
StartChar: uni0E20
Encoding: 154 3616 156
OldEncoding: 3616
Width: 1350
Flags: W
Fore
538 376 m 2
 538 303 l 2
 538 193.667 523.667 118.667 495 78 c 0
 489.667 70 483.333 62.6667 476 56 c 0
 432 15.3333 382.667 -6.33333 328 -9 c 0
 321.333 -9.66667 310.333 -10 295 -10 c 0
 221 -10 164 17.6667 124 73 c 0
 110.667 91 100.667 111 94 133 c 0
 86.6667 157.667 83.3333 182 84 206 c 0
 84 264 101.333 310 136 344 c 0
 167.333 375.333 204 391 246 391 c 0
 258.667 391.667 271 390 283 386 c 0
 297 380.667 308.667 373 318 363 c 1
 318 384 l 2
 318 455.333 327.333 509.333 346 546 c 0
 361.333 576 394.667 617.667 446 671 c 1
 398.667 727 332.667 767.333 248 792 c 1
 261.333 854.667 297.333 917 356 979 c 1
 461.333 1092.33 594 1149 754 1149 c 0
 904 1149 1020.67 1102 1104 1008 c 0
 1176 926.667 1212 815 1212 673 c 2
 1212 0 l 1
 992 0 l 1
 992 657 l 2
 992 838.333 912.667 929 754 929 c 0
 648 929 570 896.333 520 831 c 1
 594 795 646 739 676 663 c 1
 672 661 642 627.667 586 563 c 0
 554 525.667 538 463.333 538 376 c 2
275 110 m 0
 310.333 110 328 141.333 328 204 c 0
 328 248.667 313.667 273.667 285 279 c 2
 275 280 l 2
 245.667 280 225.667 262 215 226 c 0
 211.667 216.667 209.667 206.333 209 195 c 0
 209 159 221.333 133.333 246 118 c 0
 255.333 112.667 265 110 275 110 c 0
EndSplineSet
EndChar
StartChar: uni0E21
Encoding: 155 3617 157
OldEncoding: 3617
Width: 1350
Flags: W
Fore
1153 1139 m 1
 1153 218 l 2
 1153 120.667 1126.33 55 1073 21 c 0
 1038.33 -1.66667 999.667 -13 957 -13 c 0
 925.667 -13 894.333 -6.66667 863 6 c 0
 852.333 10 836.333 17.3333 815 28 c 0
 716.333 78 642.333 123.333 593 164 c 1
 593 116 575.333 75.3333 540 42 c 0
 512 16 476.667 -0.333333 434 -7 c 1
 394 -10 l 2
 384 -10 374.667 -9.33333 366 -8 c 0
 305.333 -2 254.667 23.3333 214 68 c 0
 210 73 210 73 205 79 c 0
 181 114.333 166.333 161.333 161 220 c 1
 161 267 l 1
 167.667 345 197.667 407 251 453 c 0
 285 481.667 326 499.667 374 507 c 1
 374 776 l 1
 355.333 757.333 329.333 748 296 748 c 0
 262 748 232 758.333 206 779 c 0
 162.667 813.667 141 864.667 141 932 c 0
 141 956 144 980.667 150 1006 c 0
 156.667 1031.33 171 1056 193 1080 c 0
 235.667 1126 286.333 1149 345 1149 c 0
 422.333 1149 483.333 1129 528 1089 c 0
 571.333 1050.33 593 996.333 593 927 c 2
 593 430 l 1
 599 424 l 2
 620.333 404 643 384.333 667 365 c 0
 762.333 289 834 250.667 882 250 c 0
 890.667 250 898.333 251.667 905 255 c 0
 911.667 258.333 917 262.333 921 267 c 1
 929 281 l 1
 932.333 290.333 934 322.333 934 377 c 2
 934 1139 l 1
 1153 1139 l 1
320 1028 m 0
 308.667 1028 298 1024.33 288 1017 c 0
 265.333 1000.33 254 975.667 254 943 c 0
 254.667 930.333 257 918.667 261 908 c 0
 273.667 875.333 293.667 859 321 859 c 1
 349.667 861.667 366.667 878.667 372 910 c 1
 374 947 l 1
 374 1001 356 1028 320 1028 c 0
389 317 m 1
 375 317 362.667 312.667 352 304 c 0
 328.667 285.333 316.667 257 316 219 c 0
 316 177 327 156 349 156 c 0
 357 156 363.333 157.333 368 160 c 0
 382 166 389 186.667 389 222 c 2
 389 317 l 1
EndSplineSet
EndChar
StartChar: uni0E22
Encoding: 156 3618 158
OldEncoding: 3618
Width: 1200
Flags: W
Fore
435 1028 m 1
 416 1025 l 1
 404.667 1021 396 1012.33 390 999 c 1
 383 974 l 1
 381.667 966 381 957 381 947 c 0
 381 888.333 399 859 435 859 c 1
 453 861 l 1
 477.667 869.667 493.333 894.667 500 936 c 0
 500.667 938.667 501 941 501 943 c 1
 500 966 l 1
 494.667 992 480.667 1010.67 458 1022 c 0
 450.667 1026 443 1028 435 1028 c 1
224 477 m 0
 240 502.333 261 524.667 287 544 c 2
 310 562 l 1
 275.333 581.333 248.667 602 230 624 c 0
 199.333 660.667 184 729.667 184 831 c 0
 184 905 187.333 955.667 194 983 c 0
 205.333 1025 227.667 1061.67 261 1093 c 0
 290.333 1120.33 324.667 1138 364 1146 c 0
 373.333 1148 382.333 1149 391 1149 c 0
 471.667 1149 531 1130.67 569 1094 c 0
 602.333 1061.33 623.667 1020.67 633 972 c 0
 635 960 636 948 636 936 c 0
 636 873.333 612 823.333 564 786 c 1
 545 773 l 1
 519.667 759 486.333 752 445 752 c 0
 429 752 418.333 753.333 413 756 c 1
 413 725.333 429 696.333 461 669 c 0
 462.333 668.333 467.333 664.333 476 657 c 0
 495.333 641 529.667 631.667 579 629 c 0
 592.333 628.333 607.333 628 624 628 c 1
 624 495 l 1
 552 494 l 1
 490.667 487.333 454.333 452.667 443 390 c 0
 440.333 376.667 439 362.333 439 347 c 0
 439 271 482 226.667 568 214 c 0
 584 211.333 600.667 210 618 210 c 0
 744 210 807 253.667 807 341 c 2
 807 1139 l 1
 1027 1139 l 1
 1027 269 l 2
 1027 135.667 963 50.6667 835 14 c 0
 785 -0.666667 723.333 -8.66667 650 -10 c 2
 626 -10 l 2
 452 -10 333 22 269 86 c 0
 225.667 129.333 203 188.667 201 264 c 1
 201 349 l 1
 202 410 l 1
 204.667 435.333 212 457.667 224 477 c 0
EndSplineSet
EndChar
StartChar: uni0E23
Encoding: 157 3619 159
OldEncoding: 3619
Width: 1100
Flags: W
Fore
943 303 m 2
 943 207 936.667 142.333 924 109 c 0
 906.667 62.3333 873.333 28.3333 824 7 c 0
 797.333 -4.33333 768.667 -10 738 -10 c 0
 611.333 -10 532.667 32.3333 502 117 c 0
 492 144.333 487 172.667 487 202 c 0
 487 259.333 503 306 535 342 c 0
 566.333 378 607 397.667 657 401 c 1
 700 399 l 2
 710.667 397.667 718.667 395.667 724 393 c 1
 724 529 l 2
 724 562.333 709 589 679 609 c 1
 634 634 l 2
 632 634.667 630.333 635.333 629 636 c 0
 520.333 672 345.333 707.333 104 742 c 1
 122 829.333 149 901 185 957 c 0
 222.333 1015.67 274 1063 340 1099 c 0
 400.667 1132.33 478.333 1149 573 1149 c 0
 649.667 1149 721.333 1133.67 788 1103 c 0
 844.667 1077 904 1064 966 1064 c 0
 992.667 1064 1017.67 1066.67 1041 1072 c 1
 1002 862 l 1
 985.333 858 965.667 856 943 856 c 0
 921.667 855.333 899.333 857 876 861 c 0
 843.333 865.667 814 873 788 883 c 0
 783.333 885 779 887 775 889 c 0
 713.667 917.667 649.333 934.667 582 940 c 2
 562 941 l 2
 489.333 941 443.333 924.667 424 892 c 1
 582.667 861.333 689.333 836.667 744 818 c 0
 780.667 805.333 810 792 832 778 c 0
 896.667 736.667 933 677.667 941 601 c 0
 942.333 591.667 943 582.333 943 573 c 2
 943 303 l 2
724 192 m 1
 724 250.667 706 280 670 280 c 0
 641.333 280 621.333 263 610 229 c 1
 604 197 l 1
 604 195 l 0
 607.333 156.333 620.667 130 644 116 c 0
 650.667 112 657.333 110 664 110 c 1
 683 113 l 1
 708.333 126.333 722 152.667 724 192 c 1
EndSplineSet
EndChar
StartChar: uni0E24
Encoding: 158 3620 160
OldEncoding: 3620
Width: 1240
Flags: W
Fore
408 376 m 2
 408 363 l 1
 425.333 381.667 449 391 479 391 c 0
 497.667 391.667 516.667 388 536 380 c 0
 556.667 371.333 574.667 359.333 590 344 c 0
 624.667 310 642 264 642 206 c 0
 642.667 182 639.333 157.667 632 133 c 0
 615.333 76.3333 580.333 35.3333 527 10 c 0
 497.667 -3.33333 465.667 -10 431 -10 c 0
 382.333 -9.33333 344.667 -3 318 9 c 0
 295.333 19.6667 272.667 35.3333 250 56 c 0
 212.667 90 192.333 156 189 254 c 0
 188.333 268.667 188 285 188 303 c 2
 188 366 l 2
 188 449.333 197.333 509.333 216 546 c 0
 231.333 576 264.667 617.667 316 671 c 1
 268.667 727 202.667 767.333 118 792 c 1
 131.333 854.667 167.333 917 226 979 c 1
 331.333 1092.33 464 1149 624 1149 c 0
 774 1149 890.667 1102 974 1008 c 0
 1046 926.667 1082 815 1082 673 c 2
 1082 -380 l 1
 862 -380 l 1
 862 657 l 2
 862 838.333 782.667 929 624 929 c 0
 518 929 440 896.333 390 831 c 1
 464 795 516 739 546 663 c 1
 542 661 512 627.667 456 563 c 0
 424 525.667 408 463.333 408 376 c 2
451 110 m 0
 476.333 110 495.333 124 508 152 c 0
 514 164.667 517 179 517 195 c 1
 514.333 237.667 499.667 264.667 473 276 c 0
 466.333 278.667 459 280 451 280 c 0
 420.333 280 403 260 399 220 c 1
 398 204 l 1
 398 141.333 415.667 110 451 110 c 0
EndSplineSet
EndChar
StartChar: uni0E25
Encoding: 159 3621 161
OldEncoding: 3621
Width: 1250
Flags: W
Fore
1020 915 m 2
 1042 868.333 1053 801 1053 713 c 2
 1053 0 l 1
 833 0 l 1
 833 263 l 2
 833 355.667 810 424 764 468 c 0
 728 502.667 668.333 520 585 520 c 0
 578 520 578 520 570 520 c 0
 503.333 519.333 456.667 498.333 430 457 c 1
 417.333 434.333 410.667 409.667 410 383 c 1
 410 363 l 1
 427.333 381.667 451 391 481 391 c 0
 499.667 391.667 518.667 388 538 380 c 0
 558.667 371.333 576.667 359.333 592 344 c 0
 626.667 310 644 264 644 206 c 0
 644.667 182 641.333 157.667 634 133 c 0
 617.333 76.3333 582.333 35.3333 529 10 c 0
 499.667 -3.33333 467.667 -10 433 -10 c 0
 384.333 -9.33333 346.667 -3 320 9 c 0
 297.333 19.6667 274.667 35.3333 252 56 c 0
 214.667 90 194.333 156 191 254 c 0
 190.333 268.667 190 285 190 303 c 2
 190 438 l 2
 190 551.333 239.667 634.667 339 688 c 0
 403 722.667 478.667 740 566 740 c 0
 658.667 740 734 723.667 792 691 c 0
 808.667 681.667 822 670.667 832 658 c 1
 832 714 l 2
 832 771.333 818 816 790 848 c 0
 786 852 l 0
 758.667 882 717.333 904 662 918 c 0
 632 925.333 601.333 929 570 929 c 0
 479.333 929 400 902.333 332 849 c 0
 304.667 827 282.667 802.333 266 775 c 1
 126 929 l 1
 165.333 995.667 229.667 1050 319 1092 c 0
 399 1130 481.667 1149 567 1149 c 0
 678.333 1149 779.333 1124 870 1074 c 0
 879.333 1068.67 888 1063.33 896 1058 c 0
 928 1037.33 960 1004.67 992 960 c 1
 1017 922 l 1
 1020 915 l 2
463 110 m 0
 488.333 110 507.333 124 520 152 c 0
 526 164.667 529 179 529 195 c 1
 526.333 237.667 511.667 264.667 485 276 c 0
 478.333 278.667 471 280 463 280 c 0
 432.333 280 415 260 411 220 c 1
 410 204 l 1
 410 141.333 427.667 110 463 110 c 0
EndSplineSet
EndChar
StartChar: uni0E26
Encoding: 160 3622 162
OldEncoding: 3622
Width: 1350
Flags: W
Fore
538 376 m 2
 538 303 l 2
 538 193.667 523.667 118.667 495 78 c 0
 489.667 70 483.333 62.6667 476 56 c 0
 432 15.3333 382.667 -6.33333 328 -9 c 0
 321.333 -9.66667 310.333 -10 295 -10 c 0
 221 -10 164 17.6667 124 73 c 0
 110.667 91 100.667 111 94 133 c 0
 86.6667 157.667 83.3333 182 84 206 c 0
 84 264 101.333 310 136 344 c 0
 167.333 375.333 204 391 246 391 c 0
 258.667 391.667 271 390 283 386 c 0
 297 380.667 308.667 373 318 363 c 1
 318 384 l 2
 318 455.333 327.333 509.333 346 546 c 0
 361.333 576 394.667 617.667 446 671 c 1
 398.667 727 332.667 767.333 248 792 c 1
 261.333 854.667 297.333 917 356 979 c 1
 461.333 1092.33 594 1149 754 1149 c 0
 904 1149 1020.67 1102 1104 1008 c 0
 1176 926.667 1212 815 1212 673 c 2
 1212 -380 l 1
 992 -380 l 1
 992 657 l 2
 992 838.333 912.667 929 754 929 c 0
 648 929 570 896.333 520 831 c 1
 594 795 646 739 676 663 c 1
 672 661 642 627.667 586 563 c 0
 554 525.667 538 463.333 538 376 c 2
275 110 m 0
 310.333 110 328 141.333 328 204 c 0
 328 248.667 313.667 273.667 285 279 c 2
 275 280 l 2
 245.667 280 225.667 262 215 226 c 0
 211.667 216.667 209.667 206.333 209 195 c 0
 209 159 221.333 133.333 246 118 c 0
 255.333 112.667 265 110 275 110 c 0
EndSplineSet
EndChar
StartChar: uni0E27
Encoding: 161 3623 163
OldEncoding: 3623
Width: 1150
Flags: W
Fore
1032 714 m 2
 1032 303 l 2
 1032 205 1025.67 140 1013 108 c 0
 1004.33 85.3333 988.667 63.3333 966 42 c 0
 934 12 886.667 -5.33333 824 -10 c 0
 816.667 -10.6667 809.667 -11 803 -11 c 0
 723 -11 662 17.6667 620 75 c 1
 593.333 113 579.667 158.333 579 211 c 1
 579.667 269 599.333 316.667 638 354 c 0
 666.667 381.333 699.333 395 736 395 c 0
 770 395 794.333 390.333 809 381 c 0
 810.333 379.667 812 378.333 814 377 c 1
 814 675 l 2
 814 735.667 809 777.333 799 800 c 0
 792.333 814.667 782.667 828.667 770 842 c 0
 714.667 900 628.667 929 512 929 c 0
 422.667 929 344.333 903.333 277 852 c 0
 247.667 829.333 224.667 803.667 208 775 c 1
 68 929 l 1
 100 971 144 1012.33 200 1053 c 0
 222.667 1069.67 243.667 1083 263 1093 c 0
 336.333 1130.33 418.667 1149 510 1149 c 0
 618 1149 716.667 1129.33 806 1090 c 0
 828 1080.67 848 1070.33 866 1059 c 0
 926.667 1021 969.667 974 995 918 c 0
 1019.67 863.333 1032 795.333 1032 714 c 2
814 192 m 0
 814 250.667 796 280 760 280 c 0
 734 280 714.667 264.333 702 233 c 0
 697.333 221 694.667 208.667 694 196 c 0
 694 163.333 706 138.667 730 122 c 0
 737.333 116.667 745.333 113 754 111 c 1
 778 113 l 1
 800 119 812 142 814 182 c 0
 814 192 l 0
EndSplineSet
EndChar
StartChar: uni0E28
Encoding: 162 3624 164
OldEncoding: 3624
Width: 1300
Flags: W
Fore
938 1061 m 1
 986 1093.67 1027.33 1148 1062 1224 c 1
 1280 1224 l 1
 1243.33 1108.67 1173 1013 1069 937 c 1
 1112.33 869.667 1134 774.333 1134 651 c 2
 1134 0 l 1
 954 0 l 1
 954 702 l 2
 954 767.333 927 826.667 873 880 c 0
 853.667 899.333 832.333 915.333 809 928 c 0
 759 955.333 697.333 969 624 969 c 2
 617 969 l 2
 551.667 968.333 493.667 955.333 443 930 c 1
 383.667 902.667 340.667 862 314 808 c 0
 294.667 768 285 714 285 646 c 0
 285 602.667 289.333 562.333 298 525 c 1
 351 316 l 1
 372.333 420.667 407.667 511 457 587 c 0
 493 643.667 534.667 683 582 705 c 0
 616 721 654.667 724 698 714 c 0
 738 704 774.667 679.333 808 640 c 0
 824.667 620 835.667 600.667 841 582 c 0
 847.667 558 851 536.333 851 517 c 0
 851 479.667 835.667 439 805 395 c 2
 801 389 l 2
 763 338.333 718 313 666 313 c 0
 654.667 313 643 314.333 631 317 c 0
 609 321 586 333 562 353 c 0
 555.333 358.333 550.333 363.667 547 369 c 1
 511.667 301.667 476 205.667 440 81 c 0
 432 52.3333 425 25.3333 419 0 c 1
 186 0 l 1
 186 108 l 2
 186 160.667 169 266 135 424 c 1
 113.667 515.333 103 599.333 103 676 c 0
 103 721.333 107 762.667 115 800 c 0
 139.667 906.667 202.333 992.333 303 1057 c 1
 395.667 1114.33 493 1145 595 1149 c 2
 617 1149 l 2
 715 1148.33 799 1131.33 869 1098 c 0
 871 1096.67 873 1095.67 875 1095 c 0
 894.333 1086.33 915.333 1075 938 1061 c 1
670 574 m 1
 656 570 640 555.333 622 530 c 0
 605.333 506.667 597 487.333 597 472 c 0
 595.667 452.667 603 437.667 619 427 c 0
 627.667 420.333 637.333 417 648 417 c 0
 656.667 417 665.667 419 675 423 c 0
 692.333 430.333 707.333 442.667 720 460 c 0
 730 473.333 735.667 490.667 737 512 c 0
 737.667 533.333 730.667 551 716 565 c 0
 708.667 572.333 698 576 684 576 c 1
 670 574 l 1
EndSplineSet
EndChar
StartChar: uni0E29
Encoding: 163 3625 165
OldEncoding: 3625
Width: 1350
Flags: W
Fore
247 1028 m 0
 222.333 1028 203.667 1014.67 191 988 c 0
 184.333 974 181 959 181 943 c 1
 183.667 905.667 196.667 880 220 866 c 0
 228 861.333 237 859 247 859 c 0
 283 861.667 301 887 301 935 c 0
 301 941 301 941 301 948 c 0
 301 1001.33 283 1028 247 1028 c 0
1122 463 m 1
 1122 273 l 2
 1122 147 1066.33 64 955 24 c 0
 893 1.33333 810 -10 706 -10 c 0
 456.667 -10 321 67.3333 299 222 c 0
 297 236.667 296 252 296 268 c 2
 296 759 l 1
 281.333 753 263.333 749.667 242 749 c 0
 210 749 180.333 756 153 770 c 0
 139.667 776.667 128 785 118 795 c 0
 83.3333 829.667 66 874.333 66 929 c 0
 66 952.333 69.3333 977.667 76 1005 c 0
 87.3333 1050.33 114.333 1087.67 157 1117 c 0
 181 1133.67 206 1144 232 1148 c 1
 280 1151 l 1
 348 1151 402 1135.33 442 1104 c 0
 445.333 1102 448.333 1099.67 451 1097 c 0
 488.333 1062.33 509.333 999.667 514 909 c 1
 516 835 l 1
 516 379 l 2
 516 287.667 560.333 233 649 215 c 0
 667.667 211.667 688.333 210 711 210 c 0
 817.667 210.667 879.667 249.667 897 327 c 0
 900.333 342.333 902 359.667 902 379 c 2
 902 421 l 1
 887.333 418.333 868 417 844 417 c 0
 840 417 l 0
 789.333 418.333 742.667 431.667 700 457 c 0
 662.667 479.667 635.333 512.667 618 556 c 0
 610 576.667 606 597.333 606 618 c 0
 606 621 606 621 606 625 c 0
 610 714.333 648.667 766.333 722 781 c 0
 729.333 782.333 737 783.333 745 784 c 1
 779 783 l 1
 817 777 846.667 757 868 723 c 0
 878.667 705.667 884 683 884 655 c 0
 884 643.667 883 633.667 881 625 c 0
 877 608.333 865.667 591.667 847 575 c 1
 850.333 567.667 862.333 564 883 564 c 0
 891.667 563.333 898 564 902 566 c 1
 902 1139 l 1
 1122 1139 l 1
 1122 642 l 1
 1148 668 1161 711 1161 771 c 1
 1294 771 l 1
 1294 698.333 1284.67 642.333 1266 603 c 0
 1260.67 590.333 1254 578 1246 566 c 0
 1221.33 527.333 1180 493 1122 463 c 1
794 651 m 1
 788.667 678.333 773.667 693.667 749 697 c 1
 734 696 l 1
 721.333 692 712.333 683 707 669 c 1
 703 653 l 1
 703 633.667 711.667 619.667 729 611 c 0
 735.667 608.333 742.333 607 749 607 c 0
 767.667 607 781.333 616.333 790 635 c 0
 792.667 640.333 794 645.667 794 651 c 1
EndSplineSet
EndChar
StartChar: uni0E2A
Encoding: 164 3626 166
OldEncoding: 3626
Width: 1250
Flags: W
Fore
1020 915 m 1
 1042 862.333 1053 795 1053 713 c 2
 1053 0 l 1
 833 0 l 1
 833 263 l 2
 833 355.667 810 424 764 468 c 0
 728 502.667 668.333 520 585 520 c 0
 578 520 578 520 570 520 c 0
 503.333 519.333 456.667 498.333 430 457 c 1
 417.333 434.333 410.667 409.667 410 383 c 1
 410 363 l 1
 427.333 381.667 451 391 481 391 c 0
 499.667 391.667 518.667 388 538 380 c 0
 558.667 371.333 576.667 359.333 592 344 c 0
 626.667 310 644 264 644 206 c 0
 644.667 182 641.333 157.667 634 133 c 0
 617.333 76.3333 582.333 35.3333 529 10 c 0
 499.667 -3.33333 467.667 -10 433 -10 c 0
 384.333 -9.33333 346.667 -3 320 9 c 0
 297.333 19.6667 274.667 35.3333 252 56 c 0
 214.667 90 194.333 156 191 254 c 0
 190.333 268.667 190 285 190 303 c 2
 190 438 l 2
 190 551.333 239.667 634.667 339 688 c 0
 403 722.667 478.667 740 566 740 c 0
 658.667 740 734 723.667 792 691 c 0
 808.667 681.667 822 670.667 832 658 c 1
 832 714 l 2
 832 771.333 818 816 790 848 c 0
 786 852 l 0
 758.667 882 717.333 904 662 918 c 0
 632 925.333 601.333 929 570 929 c 0
 479.333 929 400 902.333 332 849 c 0
 304.667 827 282.667 802.333 266 775 c 1
 126 929 l 1
 165.333 995.667 229.667 1050 319 1092 c 0
 399 1130 481.667 1149 567 1149 c 0
 702.333 1149 806.667 1119 880 1059 c 1
 931.333 1094.33 972 1144.33 1002 1209 c 1
 1270 1209 l 1
 1258 1137.67 1205 1063 1111 985 c 1
 1022 916 l 1
 1020 915 l 1
463 110 m 0
 488.333 110 507.333 124 520 152 c 0
 526 164.667 529 179 529 195 c 1
 526.333 237.667 511.667 264.667 485 276 c 0
 478.333 278.667 471 280 463 280 c 0
 432.333 280 415 260 411 220 c 1
 410 204 l 1
 410 141.333 427.667 110 463 110 c 0
EndSplineSet
EndChar
StartChar: uni0E2B
Encoding: 165 3627 167
OldEncoding: 3627
Width: 1350
Flags: W
Fore
553 385 m 1
 623 510 l 1
 643.667 544 666.333 577.667 691 611 c 0
 742.333 681 791.667 736 839 776 c 1
 790.333 828 766 885.333 766 948 c 0
 766 1006 788.667 1055 834 1095 c 0
 874 1131 922.333 1149 979 1149 c 0
 1056.33 1149 1115 1122 1155 1068 c 1
 1173 1038 l 1
 1187 1002 l 1
 1191.67 984 1194 965.333 1194 946 c 0
 1194 862.667 1165 802 1107 764 c 1
 1138.33 747.333 1163.33 719.333 1182 680 c 0
 1192.67 656 1198 632.667 1198 610 c 2
 1198 0 l 1
 978 0 l 1
 978 538 l 2
 978 566.667 970.333 589.333 955 606 c 1
 901 571.333 840.667 494.667 774 376 c 0
 704 251.333 648 126 606 0 c 1
 332 0 l 1
 332 759 l 1
 317.333 749.667 291.667 745 255 745 c 0
 200.333 745 158 769.333 128 818 c 0
 108.667 850.667 99 888.667 99 932 c 0
 99 955.333 102 979 108 1003 c 0
 121.333 1055 154.667 1094.67 208 1122 c 0
 242 1139.33 280.333 1148.33 323 1149 c 1
 365 1146 l 1
 429.667 1135.33 479.667 1103 515 1049 c 0
 540.333 1011 553 968.333 553 921 c 2
 553 385 l 1
278 1025 m 1
 253.333 1025 234.667 1012.33 222 987 c 1
 214 963 l 1
 212 940 l 1
 213.333 906.667 225 882 247 866 c 0
 256.333 859.333 266.667 856 278 856 c 0
 310 858 328 879 332 919 c 0
 332.667 926.333 333 934.667 333 944 c 1
 325.667 994.667 307.333 1021.67 278 1025 c 1
982 863 m 0
 1010.67 863 1031 876 1043 902 c 0
 1047.67 911.333 1050 921.333 1050 932 c 0
 1050 966 1037 990 1011 1004 c 0
 1001.67 1008.67 991.333 1011.33 980 1012 c 1
 957 1009 l 1
 935.667 1002.33 921.667 988.333 915 967 c 1
 911 941 l 1
 911 938 l 2
 911 906.667 923.667 884.333 949 871 c 0
 959 865.667 970 863 982 863 c 0
EndSplineSet
EndChar
StartChar: uni0E2C
Encoding: 166 3628 168
OldEncoding: 3628
Width: 1400
Flags: W
Fore
262 1028 m 0
 237.333 1028 218.667 1014.67 206 988 c 0
 199.333 974 196 959 196 943 c 1
 198.667 905.667 211.667 880 235 866 c 0
 243 861.333 252 859 262 859 c 0
 298 861.667 316 887 316 935 c 0
 316 941 316 941 316 948 c 0
 316 1001.33 298 1028 262 1028 c 0
1221 268 m 2
 1221 156 1192 76.6667 1134 30 c 0
 1100 3.33333 1057.33 -10 1006 -10 c 0
 934.667 -10 891 -8.66667 875 -6 c 0
 826.333 0.666667 793 20.6667 775 54 c 1
 748.333 16 706 -5 648 -9 c 0
 639.333 -9.66667 609.667 -10 559 -10 c 0
 427 -10 347.667 51 321 173 c 0
 314.333 201.667 311 233.333 311 268 c 2
 311 759 l 1
 296.333 753 278.333 749.667 257 749 c 0
 225 749 195.333 756 168 770 c 0
 154.667 776.667 143 785 133 795 c 0
 98.3333 829.667 81 874.333 81 929 c 0
 81 952.333 84.3333 977.667 91 1005 c 0
 102.333 1050.33 129.333 1087.67 172 1117 c 0
 196 1133.67 221 1144 247 1148 c 1
 295 1151 l 1
 363 1151 417 1135.33 457 1104 c 0
 460.333 1102 463.333 1099.67 466 1097 c 0
 503.333 1062.33 524.333 999.667 529 909 c 1
 531 835 l 1
 531 268 l 2
 531 235.333 546 214.333 576 205 c 0
 582.667 203 589 202 595 202 c 0
 626.333 202 646 215.333 654 242 c 0
 656.667 250 658 258.667 658 268 c 2
 658 1039 l 1
 878 1039 l 1
 878 268 l 2
 878 236 892.667 215 922 205 c 0
 929.333 203 936 202 942 202 c 0
 968 202 985.667 213.333 995 236 c 0
 999 245.333 1001 256 1001 268 c 2
 1001 1158 l 1
 943.667 1168 899.333 1193.33 868 1234 c 0
 841.333 1268.67 828 1309.67 828 1357 c 0
 828 1380.33 831 1403.33 837 1426 c 0
 852.333 1480.67 886.333 1519 939 1541 c 0
 965 1551.67 993.667 1557 1025 1557 c 0
 1087 1557 1138 1534.33 1178 1489 c 1
 1186 1479 1192.67 1469 1198 1459 c 0
 1214 1428.33 1222 1383.67 1222 1325 c 2
 1222 1301 l 1
 1258.67 1304.33 1288.33 1316.67 1311 1338 c 0
 1341 1367.33 1357 1417 1359 1487 c 1
 1493 1487 l 1
 1491 1436 l 1
 1488.33 1406.67 1482.67 1378 1474 1350 c 0
 1456 1291.33 1422.67 1243.67 1374 1207 c 1
 1336.67 1180.33 1291 1163.33 1237 1156 c 2
 1221 1154 l 1
 1221 268 l 2
1013 1302 m 0
 1037 1302 1055.33 1313 1068 1335 c 0
 1073.33 1344.33 1076 1354.33 1076 1365 c 0
 1076 1387.67 1065.33 1405.67 1044 1419 c 0
 1034 1425 1023.67 1428 1013 1428 c 0
 989 1428 970.333 1417.33 957 1396 c 0
 951 1386 948 1375.67 948 1365 c 0
 948 1340.33 959.333 1322 982 1310 c 0
 992 1304.67 1002.33 1302 1013 1302 c 0
EndSplineSet
EndChar
StartChar: uni0E2D
Encoding: 167 3629 169
OldEncoding: 3629
Width: 1230
Flags: W
Fore
223 270 m 2
 223 434 l 2
 223 529.333 230.333 595 245 631 c 0
 267.667 683.667 306.333 719 361 737 c 0
 383 744.333 406.333 748 431 748 c 0
 444.333 748 458 747 472 745 c 0
 532 735.667 577.333 703.667 608 649 c 0
 622 624.333 631 596.333 635 565 c 0
 637 552.333 638 539 638 525 c 0
 638 482.333 621.333 442 588 404 c 0
 558.667 370.667 522 354 478 354 c 0
 466 354 454.333 355.333 443 358 c 1
 443 325 l 2
 443 267.667 478.333 231.667 549 217 c 0
 569.667 212.333 593 210 619 210 c 0
 693.667 210 750.667 228.667 790 266 c 0
 816.667 291.333 830 322.667 830 360 c 2
 830 715 l 2
 830 807.667 787.667 871 703 905 c 0
 664.333 921 619.333 929 568 929 c 0
 444.667 928.333 351 888 287 808 c 1
 263 775 l 1
 116 936 l 1
 218 1078 367.667 1149 565 1149 c 0
 694.333 1149 803.333 1118.33 892 1057 c 0
 932.667 1029.67 965.667 997 991 959 c 0
 1030.33 899.667 1050 830.333 1050 751 c 2
 1050 273 l 2
 1050 146.333 993.667 63.3333 881 24 c 0
 818.333 1.33333 729.667 -10 615 -10 c 0
 361.667 -10 231 77.6667 223 253 c 0
 223 262 223 262 223 270 c 2
458 625 m 0
 422 625 404 598.333 404 545 c 0
 404 495 417 466 443 458 c 0
 447.667 457.333 452.667 456.667 458 456 c 0
 484.667 456 504 472 516 504 c 0
 520.667 515.333 523.333 527.333 524 540 c 0
 524 570.667 513 595 491 613 c 0
 480.333 621 469.333 625 458 625 c 0
EndSplineSet
EndChar
StartChar: uni0E2E
Encoding: 168 3630 170
OldEncoding: 3630
Width: 1250
Flags: W
Fore
837 741 m 2
 837 769 835.667 791.333 833 808 c 1
 759.667 766.667 672.667 746 572 746 c 0
 554 746 l 0
 449.333 748 362.667 769 294 809 c 0
 232.667 845 201.333 890 200 944 c 1
 203 970 l 1
 214.333 1012 247 1048.33 301 1079 c 0
 305.667 1081 310.333 1083.33 315 1086 c 0
 394.333 1126 484.333 1147 585 1149 c 1
 701.667 1149 806 1120.67 898 1064 c 1
 926 1100 943.333 1131.33 950 1158 c 1
 1072 1116 l 1
 1048.67 1060.67 1022.67 1013.67 994 975 c 1
 1036 913.667 1057 850.667 1057 786 c 2
 1057 273 l 2
 1057 146.333 1000.67 63.3333 888 24 c 0
 825.333 1.33333 736.667 -10 622 -10 c 0
 368.667 -10 238 77.6667 230 253 c 0
 230 262 230 262 230 270 c 2
 230 434 l 2
 230 529.333 237.333 595 252 631 c 0
 274.667 683.667 313.333 719 368 737 c 0
 390 744.333 413.333 748 438 748 c 0
 451.333 748 465 747 479 745 c 0
 539 735.667 584.333 703.667 615 649 c 0
 629 624.333 638 596.333 642 565 c 0
 644 552.333 645 539 645 525 c 0
 645 482.333 628.333 442 595 404 c 0
 565.667 370.667 529 354 485 354 c 0
 473 354 461.333 355.333 450 358 c 1
 450 325 l 2
 450 267.667 485.333 231.667 556 217 c 0
 576.667 212.333 600 210 626 210 c 0
 700.667 210 757.667 228.667 797 266 c 0
 823.667 291.333 837 322.667 837 360 c 2
 837 741 l 2
465 625 m 0
 429 625 411 598.333 411 545 c 0
 411 495 424 466 450 458 c 0
 454.667 457.333 459.667 456.667 465 456 c 0
 491.667 456 511 472 523 504 c 0
 527.667 515.333 530.333 527.333 531 540 c 0
 531 570.667 520 595 498 613 c 0
 487.333 621 476.333 625 465 625 c 0
736 935 m 1
 712.667 956.333 665.667 968.667 595 972 c 0
 587 972 587 972 580 972 c 0
 548.667 972 519.333 964.667 492 950 c 0
 480.667 943.333 475 937.333 475 932 c 0
 475 914.667 498.333 903 545 897 c 0
 557.667 895 570 894 582 894 c 0
 640.667 894 688 905 724 927 c 0
 728.667 929.667 732.667 932.333 736 935 c 1
EndSplineSet
EndChar
StartChar: uni0E2F
Encoding: 169 3631 171
OldEncoding: 3631
Width: 1150
Flags: W
Fore
1025 1149 m 1
 1025 0 l 1
 805 0 l 1
 805 776 l 1
 761.667 722 687 687.333 581 672 c 0
 550.333 667.333 519 665 487 665 c 0
 390.333 665 309 683 243 719 c 0
 199 743 165.667 782 143 836 c 0
 132.333 861.333 126.333 887.333 125 914 c 1
 127 958 l 1
 135 1023.33 164 1074 214 1110 c 0
 240 1128.67 268.667 1140 300 1144 c 1
 347 1147 l 1
 422.333 1145.67 481 1117 523 1061 c 1
 525 1057 527.333 1053.33 530 1050 c 0
 542 1031.33 548 1005.33 548 972 c 0
 548.667 944 544.333 918.333 535 895 c 0
 529.667 880.333 522.667 868.667 514 860 c 1
 549 857 l 1
 597.667 858.333 640.667 871 678 895 c 0
 680.667 896.333 683.333 898 686 900 c 0
 745.333 943.333 783 1011 799 1103 c 0
 801.667 1117.67 803.667 1133 805 1149 c 1
 1025 1149 l 1
260 958 m 1
 262 936 l 1
 267.333 911.333 283 896 309 890 c 0
 314.333 889.333 319.333 889 324 889 c 0
 348.667 889 368.667 899.333 384 920 c 0
 392 932 396 944.667 396 958 c 0
 396 981.333 385.333 999.667 364 1013 c 0
 353.333 1019.67 342 1023 330 1023 c 0
 296 1023 274 1008 264 978 c 1
 260 958 l 1
EndSplineSet
EndChar
StartChar: uni0E30
Encoding: 170 3632 172
OldEncoding: 3632
Width: 1100
Flags: W
Fore
171 312 m 0
 171.667 412 216.667 471.667 306 491 c 0
 324.667 495 344.667 497.333 366 498 c 1
 405 495 l 1
 463.667 484.333 504 449.667 526 391 c 0
 532.667 374.333 536.667 357.333 538 340 c 1
 537 303 l 1
 533.667 275 525 251.667 511 233 c 1
 544 235 l 1
 596.667 243 645.333 272 690 322 c 0
 714 348 730.333 373.667 739 399 c 0
 747 423 752.667 450 756 480 c 1
 922 480 l 1
 922 368.667 883 275 805 199 c 0
 728.333 125 632.333 85.3333 517 80 c 0
 508.333 79.3333 500 79 492 79 c 0
 396.667 79 318.667 102.333 258 149 c 0
 217.333 180.333 190.333 220 177 268 c 0
 173 282.667 171 297.333 171 312 c 0
287 327 m 1
 291 307 l 1
 299 285 314.667 272.667 338 270 c 0
 340.667 269.333 343 269 345 269 c 2
 368 272 l 1
 392 280 406.333 295.667 411 319 c 0
 411.667 322.333 412 326 412 330 c 1
 408 350 l 1
 400 370.667 384.333 383 361 387 c 0
 357.667 387.667 354.333 388 351 388 c 0
 323 388 303.667 376 293 352 c 0
 289 344.667 287 336.333 287 327 c 1
171 836 m 0
 171.667 936 216.667 995.667 306 1015 c 0
 324.667 1019 344.667 1021.33 366 1022 c 1
 405 1019 l 1
 463.667 1008.33 504 973.667 526 915 c 0
 532.667 898.333 536.667 881.333 538 864 c 1
 537 827 l 1
 529 792 l 1
 524.333 778.667 518.333 767 511 757 c 1
 544 759 l 1
 596.667 767 645.333 796 690 846 c 0
 714 872 730.333 897.667 739 923 c 0
 747 947 752.667 974 756 1004 c 1
 922 1004 l 1
 922 892.667 883 799 805 723 c 0
 728.333 649 632.333 609.333 517 604 c 0
 508.333 603.333 500 603 492 603 c 0
 396.667 603 318.667 626.333 258 673 c 0
 217.333 704.333 190.333 744 177 792 c 0
 173 806.667 171 821.333 171 836 c 0
287 851 m 1
 291 831 l 1
 299 809 314.667 796.667 338 794 c 0
 340.667 793.333 343 793 345 793 c 2
 368 796 l 1
 392 804 406.333 819.667 411 843 c 0
 411.667 846.333 412 850 412 854 c 1
 408 874 l 1
 400 894.667 384.333 907 361 911 c 0
 357.667 911.667 354.333 912 351 912 c 0
 323 912 303.667 900 293 876 c 0
 289 868.667 287 860.333 287 851 c 1
EndSplineSet
EndChar
StartChar: uni0E31
Encoding: 171 3633 173
OldEncoding: 3633
Width: 0
Flags: W
Fore
-734 1466 m 0
 -733.333 1566 -688.333 1625.67 -599 1645 c 0
 -580.333 1649 -560.333 1651.33 -539 1652 c 1
 -500 1649 l 1
 -441.333 1638.33 -401 1603.67 -379 1545 c 0
 -372.333 1528.33 -368.333 1511.33 -367 1494 c 1
 -368 1457 l 1
 -376 1422 l 1
 -380.667 1408.67 -386.667 1397 -394 1387 c 1
 -361 1389 l 1
 -308.333 1397 -259.667 1426 -215 1476 c 0
 -191 1502 -174.667 1527.67 -166 1553 c 0
 -158 1577 -152.333 1604 -149 1634 c 1
 17 1634 l 1
 17 1522.67 -22 1429 -100 1353 c 0
 -176.667 1279 -272.667 1239.33 -388 1234 c 0
 -396.667 1233.33 -405 1233 -413 1233 c 0
 -508.333 1233 -586.333 1256.33 -647 1303 c 0
 -687.667 1334.33 -714.667 1374 -728 1422 c 0
 -732 1436.67 -734 1451.33 -734 1466 c 0
-618 1481 m 1
 -614 1461 l 1
 -606 1439 -590.333 1426.67 -567 1424 c 0
 -564.333 1423.33 -562 1423 -560 1423 c 2
 -537 1426 l 1
 -513 1434 -498.667 1449.67 -494 1473 c 0
 -493.333 1476.33 -493 1480 -493 1484 c 1
 -497 1504 l 1
 -502.333 1518.67 -513 1529.67 -529 1537 c 1
 -550 1542 l 1
 -554 1542 l 2
 -582 1542 -601.333 1530 -612 1506 c 1
 -618 1486 l 1
 -618 1484 -618 1484 -618 1481 c 1
EndSplineSet
EndChar
StartChar: uni0E32
Encoding: 172 3634 174
OldEncoding: 3634
Width: 1150
Flags: W
Fore
956 753 m 2
 956 0 l 1
 736 0 l 1
 736 729 l 2
 736 809.667 707.667 867 651 901 c 0
 619.667 919.667 580.333 929 533 929 c 0
 473.667 929 420.333 903.667 373 853 c 0
 347.667 825.667 329.333 796 318 764 c 1
 120 846 l 1
 153.333 928 206 998 278 1056 c 0
 354.667 1118 436 1149 522 1149 c 0
 670 1149 783 1106.67 861 1022 c 1
 889 987 l 1
 933.667 923.667 956 845.667 956 753 c 2
EndSplineSet
EndChar
StartChar: uni0E33
Encoding: 173 3635 175
OldEncoding: 3635
Width: 1050
Flags: W
Fore
902 753 m 2
 902 0 l 1
 682 0 l 1
 682 729 l 2
 682 809.667 653.667 867 597 901 c 0
 565.667 919.667 526.333 929 479 929 c 0
 419.667 929 366.333 903.667 319 853 c 0
 293.667 825.667 275.333 796 264 764 c 1
 66 846 l 1
 99.3333 928 152 998 224 1056 c 0
 300.667 1118 382 1149 468 1149 c 0
 616 1149 729 1106.67 807 1022 c 0
 866.333 958 898 875 902 773 c 0
 902 753 l 2
-300 1668 m 0
 -229.333 1668 -171 1643.33 -125 1594 c 0
 -103 1570 -87.3333 1542.67 -78 1512 c 0
 -70.6667 1489.33 -67 1465.67 -67 1441 c 0
 -67 1369.67 -93.6667 1311.67 -147 1267 c 0
 -189.667 1231 -240.667 1212.67 -300 1212 c 1
 -345 1216 l 1
 -413 1227.33 -463.667 1262.33 -497 1321 c 0
 -517.667 1357 -528 1397 -528 1441 c 0
 -528 1506.33 -503.333 1561.67 -454 1607 c 0
 -410.667 1647.67 -359.333 1668 -300 1668 c 0
-299 1509 m 0
 -333 1509 -357 1496 -371 1470 c 0
 -376.333 1459.33 -379 1447.67 -379 1435 c 0
 -379 1403.67 -365 1381.33 -337 1368 c 0
 -325.667 1362 -313 1359 -299 1359 c 0
 -260.333 1359 -234.667 1374 -222 1404 c 0
 -217.333 1413.33 -215 1423.67 -215 1435 c 0
 -215 1467 -230.333 1489.33 -261 1502 c 1
 -287 1509 l 1
 -299 1509 l 0
EndSplineSet
EndChar
StartChar: uni0E34
Encoding: 174 3636 176
OldEncoding: 3636
Width: 0
Flags: W
Fore
-154 1207 m 1
 -278.667 1234.33 -472 1260.33 -734 1285 c 0
 -908.667 1301.67 -1049 1310 -1155 1310 c 1
 -1135.67 1377.33 -1090.67 1445 -1020 1513 c 0
 -985.333 1546.33 -950 1573.67 -914 1595 c 0
 -841.333 1637 -758 1658 -664 1658 c 0
 -642 1658 -619.667 1657 -597 1655 c 0
 -509.667 1645 -427.333 1611.33 -350 1554 c 0
 -336 1543.33 -322.667 1532.33 -310 1521 c 0
 -232 1450.33 -180 1345.67 -154 1207 c 1
-409 1371 m 1
 -428.333 1411.67 -466 1444.67 -522 1470 c 0
 -556 1485.33 -591.667 1494.67 -629 1498 c 1
 -685 1499 l 1
 -765.667 1495 -826.667 1468.67 -868 1420 c 1
 -770 1420 -655 1410.67 -523 1392 c 0
 -475.667 1385.33 -437.667 1378.33 -409 1371 c 1
EndSplineSet
EndChar
StartChar: uni0E35
Encoding: 175 3637 177
OldEncoding: 3637
Width: 0
Flags: W
Fore
-188 1260 m 1
 -185.333 1248.67 -183 1238 -181 1228 c 1
 -302.333 1254 -489 1278.33 -741 1301 c 0
 -900.333 1315.67 -1028.33 1323 -1125 1323 c 1
 -1100.33 1405.67 -1049 1477 -971 1537 c 0
 -879.667 1607 -775.667 1642 -659 1642 c 0
 -552.333 1642 -465 1617.33 -397 1568 c 0
 -388.333 1561.33 -379.333 1554 -370 1546 c 1
 -370 1735 l 1
 -188 1735 l 1
 -188 1260 l 1
-429 1387 m 1
 -445 1419.67 -479 1447.67 -531 1471 c 0
 -563 1486.33 -595.333 1495.33 -628 1498 c 1
 -682 1499 l 1
 -754 1494.33 -808 1471 -844 1429 c 1
 -750 1429 -642.333 1420.33 -521 1403 c 0
 -483.667 1397.67 -453 1392.33 -429 1387 c 1
EndSplineSet
EndChar
StartChar: uni0E36
Encoding: 176 3638 178
OldEncoding: 3638
Width: 0
Flags: W
Fore
-382 1562 m 1
 -367.333 1606 -337.333 1639 -292 1661 c 0
 -264.667 1674.33 -236 1681 -206 1681 c 0
 -202 1681 -202 1681 -199 1681 c 0
 -139 1679 -91 1656.33 -55 1613 c 0
 -28.3333 1581.67 -15 1544.67 -15 1502 c 0
 -15 1442.67 -38 1395.33 -84 1360 c 0
 -118 1334 -157.667 1321 -203 1321 c 1
 -197 1304.33 -189.667 1273.33 -181 1228 c 1
 -302.333 1254 -489 1278.33 -741 1301 c 0
 -900.333 1315.67 -1028.33 1323 -1125 1323 c 1
 -1099.67 1409 -1045 1481.33 -961 1540 c 1
 -867.667 1606.67 -759.333 1640 -636 1640 c 0
 -623.333 1640 -611 1639.67 -599 1639 c 0
 -509.667 1633.67 -440.333 1610.67 -391 1570 c 0
 -387.667 1567.33 -384.667 1564.67 -382 1562 c 1
-199 1559 m 0
 -225.667 1559 -244.667 1548 -256 1526 c 1
 -262 1507 l 1
 -262 1500 l 2
 -262 1473.33 -250.333 1454.67 -227 1444 c 0
 -218.333 1439.33 -209 1437 -199 1437 c 0
 -167.667 1437 -147 1450 -137 1476 c 0
 -134.333 1483.33 -133 1491.33 -133 1500 c 0
 -133 1526.67 -145.667 1544.67 -171 1554 c 0
 -179.667 1557.33 -189 1559 -199 1559 c 0
-432 1376 m 1
 -448.667 1410 -480.333 1440.33 -527 1467 c 0
 -561 1485.67 -594.667 1496.67 -628 1500 c 1
 -667 1499 l 1
 -720.333 1493.67 -767.667 1476.33 -809 1447 c 0
 -823 1437.67 -833 1428.33 -839 1419 c 1
 -749 1419 -644.667 1410.33 -526 1393 c 0
 -487.333 1387.67 -456 1382 -432 1376 c 1
EndSplineSet
EndChar
StartChar: uni0E37
Encoding: 177 3639 179
OldEncoding: 3639
Width: 0
Flags: W
Fore
-404 1560 m 1
 -388.667 1556 -373.333 1544 -358 1524 c 1
 -358 1695 l 1
 -188 1695 l 1
 -188 1258 l 1
 -186 1201 l 1
 -296.667 1225 -474.333 1248.67 -719 1272 c 0
 -882.333 1288 -1011.33 1296 -1106 1296 c 1
 -1077.33 1382 -1023.33 1454 -944 1512 c 0
 -857.333 1575.33 -758.667 1607 -648 1607 c 0
 -642 1607 l 0
 -625.333 1607 -604.667 1604 -580 1598 c 1
 -580 1696 l 1
 -404 1696 l 1
 -404 1560 l 1
-400 1343 m 1
 -430 1405.67 -480 1447.33 -550 1468 c 0
 -571.333 1474 -593.667 1477.67 -617 1479 c 1
 -677 1479 l 1
 -755.667 1473 -816.333 1443.33 -859 1390 c 2
 -861 1387 l 1
 -712.333 1381 -576.333 1369.33 -453 1352 c 0
 -428.333 1348.67 -410.667 1345.67 -400 1343 c 1
EndSplineSet
EndChar
StartChar: uni0E38
Encoding: 178 3640 180
OldEncoding: 3640
Width: 0
Flags: W
Fore
-361 -534 m 1
 -361 -370 l 1
 -371.667 -375.333 -383.667 -378 -397 -378 c 0
 -429 -377.333 -458.667 -365 -486 -341 c 0
 -512 -317.667 -525 -283.333 -525 -238 c 0
 -525 -224 -523.333 -210.333 -520 -197 c 0
 -518.667 -189.667 -516.667 -183 -514 -177 c 0
 -496 -129.667 -457 -100.333 -397 -89 c 0
 -382.333 -86.3333 -367.333 -85 -352 -85 c 0
 -302.667 -85 -262 -96.6667 -230 -120 c 0
 -226 -122.667 -222.333 -125.667 -219 -129 c 0
 -187.667 -160.333 -169 -203.333 -163 -258 c 0
 -161.667 -274.667 -161 -293 -161 -313 c 2
 -161 -534 l 1
 -361 -534 l 1
-383 -176 m 0
 -405 -176 -421 -187 -431 -209 c 0
 -434.333 -217.667 -436 -226.667 -436 -236 c 0
 -434 -263.333 -423 -282 -403 -292 c 0
 -397.667 -294.667 -391 -296 -383 -296 c 0
 -355 -296 -341 -275 -341 -233 c 0
 -341 -195 -355 -176 -383 -176 c 0
EndSplineSet
EndChar
StartChar: uni0E39
Encoding: 179 3641 181
OldEncoding: 3641
Width: 0
Flags: W
Fore
-478 -375 m 1
 -362 -375 l 1
 -362 -98 l 1
 -213 -98 l 1
 -213 -504 l 1
 -627 -504 l 1
 -627 -335 l 1
 -635 -343 -645.333 -347.667 -658 -349 c 0
 -698 -355 -732.333 -344.333 -761 -317 c 1
 -797.667 -284.333 -808 -237.333 -792 -176 c 1
 -782.667 -144.667 -761.667 -118.333 -729 -97 c 0
 -705.667 -82.3333 -681.333 -75 -656 -75 c 0
 -607.333 -75 -568.667 -85.3333 -540 -106 c 1
 -505.333 -133.333 -485.333 -175.333 -480 -232 c 0
 -478.667 -248 -478 -267.333 -478 -290 c 2
 -478 -375 l 1
-667 -161 m 0
 -681 -161 -693.333 -168 -704 -182 c 1
 -711.333 -193.333 -715 -205.333 -715 -218 c 0
 -713.667 -233.333 -709.333 -245.667 -702 -255 c 0
 -690.667 -269 -679 -275.333 -667 -274 c 1
 -653 -274 -642 -268.333 -634 -257 c 0
 -629.333 -249.667 -627 -235.667 -627 -215 c 0
 -628.333 -193.667 -632 -179.667 -638 -173 c 0
 -645.333 -165 -655 -161 -667 -161 c 0
EndSplineSet
EndChar
StartChar: uni0E3A
Encoding: 180 3642 182
OldEncoding: 3642
Width: 0
Flags: W
Fore
-246 -60 m 0
 -209.333 -60 -178 -73 -152 -99 c 0
 -124.667 -127.667 -111 -159.667 -111 -195 c 0
 -111 -231.667 -124.667 -263 -152 -289 c 1
 -178 -316.333 -209.333 -330 -246 -330 c 0
 -281.333 -330 -312.667 -316.333 -340 -289 c 0
 -366.667 -262.333 -380 -231 -380 -195 c 0
 -380 -159.667 -366.667 -127.667 -340 -99 c 1
 -313.333 -73 -282 -60 -246 -60 c 0
EndSplineSet
EndChar
StartChar: uni0E3F
Encoding: 181 3647 183
OldEncoding: 3647
Width: 1250
Flags: W
Fore
962 827 m 1
 1058 799.667 1126 738.667 1166 644 c 0
 1188.67 589.333 1200 527 1200 457 c 0
 1200 313.667 1149 200.333 1047 117 c 1
 1005 86 l 1
 921 33.3333 820 5.33333 702 2 c 1
 702 -133 l 1
 541 -133 l 1
 541 0 l 1
 132 0 l 1
 132 1489 l 1
 541 1489 l 1
 541 1595 l 1
 702 1595 l 1
 702 1489 l 1
 893.333 1485.67 1021.33 1430.33 1086 1323 c 0
 1116 1273.67 1131 1214 1131 1144 c 0
 1131 1039.33 1113.33 963 1078 915 c 0
 1069.33 903.667 1059.67 893.333 1049 884 c 1
 1019 862 l 1
 1005.67 854 991.333 847 976 841 c 0
 971.333 839 966.667 837.333 962 836 c 1
 962 827 l 1
541 916 m 1
 541 1291 l 1
 368 1291 l 1
 368 916 l 1
 541 916 l 1
702 916 m 1
 782.667 916.667 835.667 942 861 992 c 0
 877 1023.33 885 1067.33 885 1124 c 0
 885 1200 858.667 1249.33 806 1272 c 0
 780 1282.67 745.333 1289 702 1291 c 1
 702 916 l 1
541 190 m 1
 541 689 l 1
 368 689 l 1
 368 190 l 1
 541 190 l 1
702 194 m 1
 797.333 198.667 867 233.333 911 298 c 0
 939 338.667 953 389 953 449 c 0
 952.333 572.333 904 647.333 808 674 c 0
 778.667 682.667 743.333 687 702 687 c 1
 702 194 l 1
EndSplineSet
EndChar
StartChar: uni0E40
Encoding: 182 3648 184
OldEncoding: 3648
Width: 700
Flags: W
Fore
144 1146 m 1
 364 1146 l 1
 364 364 l 1
 381.333 382.667 405 392 435 392 c 0
 453.667 392.667 472.667 389 492 381 c 0
 512.667 372.333 530.667 360.333 546 345 c 0
 580.667 311 598 265 598 207 c 0
 598.667 183 595.333 158.667 588 134 c 0
 571.333 77.3333 536.333 36.3333 483 11 c 0
 453.667 -2.33333 421.667 -9 387 -9 c 0
 338.333 -8.33333 300.667 -2 274 10 c 0
 251.333 20.6667 228.667 36.3333 206 57 c 0
 168.667 91 148.333 157 145 255 c 0
 144.333 269.667 144 286 144 304 c 2
 144 1146 l 1
407 111 m 0
 432.333 111 451.333 125 464 153 c 0
 470 165.667 473 180 473 196 c 1
 470.333 238.667 455.667 265.667 429 277 c 0
 422.333 279.667 415 281 407 281 c 0
 376.333 281 359 261 355 221 c 0
 354.333 216.333 354 211 354 205 c 0
 354 142.333 371.667 111 407 111 c 0
EndSplineSet
EndChar
StartChar: uni0E41
Encoding: 183 3649 185
OldEncoding: 3649
Width: 1320
Flags: W
Fore
769 1146 m 1
 989 1146 l 1
 989 364 l 1
 1006.33 382.667 1030 392 1060 392 c 0
 1078.67 392.667 1097.67 389 1117 381 c 0
 1137.67 372.333 1155.67 360.333 1171 345 c 0
 1205.67 311 1223 265 1223 207 c 0
 1223.67 183 1220.33 158.667 1213 134 c 0
 1196.33 77.3333 1161.33 36.3333 1108 11 c 0
 1078.67 -2.33333 1046.67 -9 1012 -9 c 0
 963.333 -8.33333 925.667 -2 899 10 c 0
 876.333 20.6667 853.667 36.3333 831 57 c 0
 793.667 91 773.333 157 770 255 c 0
 769.333 269.667 769 286 769 304 c 2
 769 1146 l 1
1032 111 m 0
 1057.33 111 1076.33 125 1089 153 c 0
 1095 165.667 1098 180 1098 196 c 1
 1095.33 238.667 1080.67 265.667 1054 277 c 1
 1034 281 l 1
 1032 281 l 2
 1001.33 281 984 261 980 221 c 0
 979.333 216.333 979 211 979 205 c 0
 979 142.333 996.667 111 1032 111 c 0
176 1146 m 1
 396 1146 l 1
 396 364 l 1
 413.333 382.667 437 392 467 392 c 0
 485.667 392.667 504.667 389 524 381 c 0
 544.667 372.333 562.667 360.333 578 345 c 0
 612.667 311 630 265 630 207 c 0
 630.667 183 627.333 158.667 620 134 c 0
 603.333 77.3333 568.333 36.3333 515 11 c 0
 485.667 -2.33333 453.667 -9 419 -9 c 0
 370.333 -8.33333 332.667 -2 306 10 c 0
 283.333 20.6667 260.667 36.3333 238 57 c 0
 200.667 91 180.333 157 177 255 c 0
 176.333 269.667 176 286 176 304 c 2
 176 1146 l 1
439 111 m 0
 464.333 111 483.333 125 496 153 c 0
 502 165.667 505 180 505 196 c 1
 502.333 238.667 487.667 265.667 461 277 c 0
 454.333 279.667 447 281 439 281 c 0
 408.333 281 391 261 387 221 c 0
 386.333 216.333 386 211 386 205 c 0
 386 142.333 403.667 111 439 111 c 0
EndSplineSet
EndChar
StartChar: uni0E42
Encoding: 184 3650 186
OldEncoding: 3650
Width: 1100
Flags: W
Fore
761 850 m 2
 761 388 l 1
 782.333 394 803 397 823 397 c 0
 870.333 397 910.333 379.667 943 345 c 0
 977.667 308.333 995 261.667 995 205 c 0
 995 181 991.667 157.333 985 134 c 0
 968.333 77.3333 933.333 36.3333 880 11 c 0
 850.667 -2.33333 818.667 -9 784 -9 c 0
 735.333 -8.33333 697.667 -2 671 10 c 0
 648.333 20.6667 625.667 36.3333 603 57 c 0
 565.667 91 545.333 157 542 255 c 0
 541.333 269.667 541 286 541 304 c 2
 541 850 l 2
 541 931.333 531 986.667 511 1016 c 0
 467 1083.33 340 1131.67 130 1161 c 0
 100 1165.67 63.6667 1170.33 21 1175 c 1
 21 1195 38 1239.67 72 1309 c 0
 84 1334.33 95 1354.67 105 1370 c 0
 156.333 1450.67 222.333 1507 303 1539 c 0
 345 1555.67 385 1564 423 1564 c 0
 432.333 1564 442 1563.67 452 1563 c 0
 485.333 1561 546.667 1545.33 636 1516 c 0
 742.667 1481.33 821.333 1463.67 872 1463 c 0
 950 1463 1011.33 1483.33 1056 1524 c 1
 1004 1297 l 1
 948 1267 886 1252 818 1252 c 0
 770.667 1252 705 1268.33 621 1301 c 0
 548.333 1329 498 1344.33 470 1347 c 1
 435 1347 l 1
 423 1345.67 412 1342.67 402 1338 c 0
 386 1330 371.333 1315.67 358 1295 c 1
 472.667 1276.33 568 1237 644 1177 c 0
 645.333 1175.67 647 1174.33 649 1173 c 0
 703.667 1129.67 737.667 1071.33 751 998 c 1
 759 930 l 1
 760.333 906.667 761 880 761 850 c 2
804 111 m 0
 829.333 111 848.333 125 861 153 c 0
 867 165.667 870 180 870 196 c 1
 867.333 238.667 852.667 265.667 826 277 c 0
 819.333 279.667 812 281 804 281 c 0
 773.333 281 756 261 752 221 c 0
 751.333 216.333 751 211 751 205 c 0
 751 142.333 768.667 111 804 111 c 0
EndSplineSet
EndChar
StartChar: uni0E43
Encoding: 185 3651 187
OldEncoding: 3651
Width: 1000
Flags: W
Fore
494 633 m 2
 494 721 504.667 788 526 834 c 0
 538.667 861.333 555 886.667 575 910 c 2
 620 962 l 2
 674 1025.33 706 1078.33 716 1121 c 0
 719.333 1134.33 721.333 1149 722 1165 c 1
 720 1206 l 1
 712 1260 684.667 1300 638 1326 c 0
 610 1342 573.333 1350 528 1350 c 1
 558 1344 581.667 1316.67 599 1268 c 1
 611 1225 l 1
 614.333 1207 616 1189.67 616 1173 c 0
 616 1157.67 614.667 1143.33 612 1130 c 0
 599.333 1060 559.333 1008.33 492 975 c 0
 447.333 953 395.333 942 336 942 c 0
 237.333 942 163.333 978.667 114 1052 c 0
 82 1099.33 66 1154.33 66 1217 c 0
 67.3333 1345 123 1439 233 1499 c 0
 288.333 1529.67 354 1549 430 1557 c 0
 454 1559.67 477.667 1561 501 1561 c 0
 617 1560.33 716 1531.33 798 1474 c 0
 818.667 1459.33 836 1444 850 1428 c 0
 890.667 1382.67 915.667 1314 925 1222 c 0
 927 1203.33 928 1184.67 928 1166 c 0
 927.333 1083.33 896 1008.67 834 942 c 0
 798.667 903.333 770.667 865.667 750 829 c 2
 742 815 l 2
 724 782.333 714.667 739 714 685 c 0
 714 677 714 677 714 633 c 2
 714 388 l 1
 735.333 394 756 397 776 397 c 0
 823.333 397 863.333 379.667 896 345 c 0
 930.667 308.333 948 261.667 948 205 c 0
 948 181 944.667 157.333 938 134 c 0
 921.333 77.3333 886.333 36.3333 833 11 c 0
 803.667 -2.33333 771.667 -9 737 -9 c 0
 688.333 -8.33333 650.667 -2 624 10 c 0
 601.333 20.6667 578.667 36.3333 556 57 c 0
 518.667 91 498.333 157 495 255 c 0
 494.333 269.667 494 286 494 304 c 2
 494 633 l 2
757 111 m 0
 782.333 111 801.333 125 814 153 c 0
 820 165.667 823 180 823 196 c 1
 820.333 238.667 805.667 265.667 779 277 c 0
 772.333 279.667 765 281 757 281 c 0
 726.333 281 709 261 705 221 c 0
 704.333 216.333 704 211 704 205 c 0
 704 142.333 721.667 111 757 111 c 0
259 1188 m 0
 261 1134 288.667 1105.67 342 1103 c 1
 368 1106 l 1
 399.333 1113.33 419.667 1132 429 1162 c 0
 431.667 1171.33 433 1180.67 433 1190 c 0
 431.667 1224 415.667 1247.67 385 1261 c 1
 360 1268 l 2
 354.667 1268.67 349.667 1269 345 1269 c 0
 307 1269 280.667 1254 266 1224 c 0
 261.333 1213.33 259 1201.33 259 1188 c 0
EndSplineSet
EndChar
StartChar: uni0E44
Encoding: 186 3652 188
OldEncoding: 3652
Width: 1140
Flags: W
Fore
629 1194 m 2
 629 1235.33 617.333 1256 594 1256 c 0
 578.667 1256 564.333 1242.33 551 1215 c 1
 516 1148 l 1
 476 1082 412.667 1048.33 326 1047 c 0
 311.333 1047 297 1048.67 283 1052 c 0
 192.333 1075.33 119.333 1180 64 1366 c 0
 58.6667 1384.67 45 1436.33 23 1521 c 1
 220 1521 l 1
 252 1407.67 279.333 1335.67 302 1305 c 0
 314 1289.67 325.333 1282 336 1282 c 0
 359.333 1282 381.333 1302.33 402 1343 c 1
 455 1454 l 1
 493.667 1524.67 542 1563.67 600 1571 c 0
 608 1571.67 616 1572 624 1572 c 0
 726.667 1567.33 794.667 1526.67 828 1450 c 0
 842 1418.67 849 1382.33 849 1341 c 2
 849 388 l 1
 870.333 394 891 397 911 397 c 0
 958.333 397 998.333 379.667 1031 345 c 0
 1065.67 308.333 1083 261.667 1083 205 c 0
 1083 181 1079.67 157.333 1073 134 c 0
 1056.33 77.3333 1021.33 36.3333 968 11 c 0
 938.667 -2.33333 906.667 -9 872 -9 c 0
 823.333 -8.33333 785.667 -2 759 10 c 0
 736.333 20.6667 713.667 36.3333 691 57 c 0
 653 91.6667 632.667 162.333 630 269 c 0
 629.333 281 629 294 629 308 c 2
 629 1194 l 2
892 111 m 0
 917.333 111 936.333 125 949 153 c 0
 955 165.667 958 180 958 196 c 1
 955.333 238.667 940.667 265.667 914 277 c 0
 907.333 279.667 900 281 892 281 c 0
 861.333 281 844 261 840 221 c 0
 839.333 216.333 839 211 839 205 c 0
 839 142.333 856.667 111 892 111 c 0
EndSplineSet
EndChar
StartChar: uni0E45
Encoding: 187 3653 189
OldEncoding: 3653
Width: 1000
Flags: W
Fore
884 753 m 2
 884 -380 l 1
 664 -380 l 1
 664 729 l 2
 664 809.667 635.667 867 579 901 c 0
 547.667 919.667 508.333 929 461 929 c 0
 401.667 929 348.333 903.667 301 853 c 0
 275.667 825.667 257.333 796 246 764 c 1
 48 846 l 1
 81.3333 928 134 998 206 1056 c 0
 282.667 1118 364 1149 450 1149 c 0
 598 1149 711 1106.67 789 1022 c 0
 848.333 958 880 875 884 773 c 0
 884 753 l 2
EndSplineSet
EndChar
StartChar: uni0E46
Encoding: 188 3654 190
OldEncoding: 3654
Width: 1100
Flags: W
Fore
312 588 m 1
 331 586 l 1
 353.667 588 372.667 602 388 628 c 0
 393.333 636.667 396.667 644.667 398 652 c 1
 399 691 l 1
 396.333 719 382.333 738.667 357 750 c 0
 351 752.667 345.333 754 340 754 c 1
 324 751 l 1
 315.333 746.333 307.333 738.333 300 727 c 0
 292.667 715 286.333 699.667 281 681 c 0
 277.667 666.333 276 653.333 276 642 c 0
 276 614 288 596 312 588 c 1
969 -380 m 1
 763 -380 l 1
 763 771 l 2
 763 800.333 751.333 836.667 728 880 c 1
 718 900.667 707 917 695 929 c 1
 599 857 498 857 392 929 c 1
 373.333 903 361.667 882 357 866 c 0
 356.333 864.667 356 863.333 356 862 c 1
 434.667 862 487.667 826.667 515 756 c 0
 525 729.333 530 702 530 674 c 0
 530 610.667 509 558 467 516 c 0
 428.333 476.667 378.667 457 318 457 c 0
 309.333 457 300.667 457.333 292 458 c 0
 224 464 172.667 500.333 138 567 c 0
 116.667 608.333 106 653.667 106 703 c 0
 106 716.333 106.667 729 108 741 c 0
 118.667 821 133.667 881.667 153 923 c 0
 165 948.333 180.667 973.667 200 999 c 0
 238 1048.33 285 1090 341 1124 c 0
 359.667 1135.33 376.667 1143.67 392 1149 c 1
 551 1041 l 1
 695 1149 l 1
 739.667 1137 783 1111.67 825 1073 c 1
 849 1049 l 2
 887.667 1011 919.333 959.333 944 894 c 0
 960.667 850 969 809 969 771 c 2
 969 -380 l 1
EndSplineSet
EndChar
StartChar: uni0E47
Encoding: 189 3655 191
OldEncoding: 3655
Width: 0
Flags: W
Fore
-455 1562 m 1
 -471.667 1561.33 -483.333 1553.33 -490 1538 c 1
 -493 1522 l 1
 -493 1521 l 1
 -491.667 1503.67 -481.667 1492.67 -463 1488 c 1
 -450 1487 l 1
 -432 1487.67 -420 1495.33 -414 1510 c 0
 -412.667 1514 -412 1518.33 -412 1523 c 0
 -412 1540.33 -420.667 1552.33 -438 1559 c 1
 -455 1562 l 1
-527 1434 m 1
 -559 1454 -575.333 1483.33 -576 1522 c 0
 -576 1533.33 -574.333 1543.67 -571 1553 c 0
 -555.667 1596.33 -524 1623 -476 1633 c 0
 -468.667 1634.33 -461 1635.33 -453 1636 c 1
 -415 1634 l 1
 -366.333 1627.33 -332.333 1604.67 -313 1566 c 0
 -299.667 1539.33 -293 1509.33 -293 1476 c 0
 -293 1446.67 -298 1419.67 -308 1395 c 0
 -333.333 1333.67 -376 1297.67 -436 1287 c 0
 -446.667 1285 -457.667 1284 -469 1284 c 0
 -544.333 1284 -608.333 1300.33 -661 1333 c 2
 -710 1362 l 1
 -724.667 1368.67 -739.667 1372 -755 1372 c 0
 -775.667 1372 -787 1354 -789 1318 c 0
 -790.333 1296 -792.667 1284.67 -796 1284 c 0
 -894.667 1284 -964.667 1320.33 -1006 1393 c 0
 -1026 1428.33 -1036 1467.33 -1036 1510 c 0
 -1036 1528.67 -1034 1546.33 -1030 1563 c 0
 -1010 1640.33 -968 1696 -904 1730 c 0
 -887.333 1739.33 -869.333 1746.33 -850 1751 c 1
 -820.667 1761 -762.667 1768.33 -676 1773 c 0
 -584 1779 -519.333 1791 -482 1809 c 0
 -444 1827.67 -419.333 1856 -408 1894 c 1
 -226 1894 l 1
 -230.667 1844 -259.333 1793 -312 1741 c 0
 -356 1698.33 -400 1671.33 -444 1660 c 0
 -468 1653.33 -527.333 1645.67 -622 1637 c 0
 -725.333 1627.67 -793 1611.67 -825 1589 c 0
 -844.333 1575.67 -855.333 1558.67 -858 1538 c 1
 -861 1511 l 1
 -861 1509 -860.667 1507.33 -860 1506 c 0
 -859.333 1502 -856 1495.33 -850 1486 c 1
 -832 1521.33 -806.333 1539 -773 1539 c 0
 -765.667 1539 -758.667 1538 -752 1536 c 0
 -720 1528 -690.667 1513.33 -664 1492 c 0
 -621.333 1458.67 -593.333 1439.33 -580 1434 c 0
 -568 1429.33 -558.333 1427 -551 1427 c 1
 -534 1430 l 1
 -531.333 1431.33 -529 1432.67 -527 1434 c 1
EndSplineSet
EndChar
StartChar: uni0E48
Encoding: 190 3656 192
OldEncoding: 3656
Width: 0
Flags: W
Fore
-378 2106 m 1
 -147 2106 l 1
 -147 1826 l 1
 -378 1826 l 1
 -378 2106 l 1
EndSplineSet
EndChar
StartChar: uni0E49
Encoding: 191 3657 193
OldEncoding: 3657
Width: 0
Flags: W
Fore
66 2156 m 1
 32.6667 2020.67 -52 1910.33 -188 1825 c 0
 -274 1770.33 -373 1734 -485 1716 c 0
 -515.667 1711.33 -551.333 1707 -592 1703 c 1
 -592 1810 l 1
 -546.667 1821.33 -518 1840.33 -506 1867 c 0
 -503.333 1872.33 -501.333 1878.33 -500 1885 c 1
 -514 1880.33 -528.333 1878 -543 1878 c 0
 -563 1877.33 -582 1881.67 -600 1891 c 1
 -624 1906 l 2
 -629.333 1910 -634.333 1914.67 -639 1920 c 0
 -666.333 1950 -680 1986.67 -680 2030 c 1
 -677.333 2080 -656.333 2118.67 -617 2146 c 0
 -593.667 2161.33 -568 2169.33 -540 2170 c 1
 -501 2167 l 1
 -446.333 2157.67 -404.667 2131 -376 2087 c 1
 -361 2057 l 1
 -352 2025 l 1
 -350 2009 l 1
 -351 1966 l 1
 -360 1925 l 1
 -364 1915 l 1
 -311.333 1926.33 -262.667 1952.67 -218 1994 c 0
 -200.667 2010 -185.333 2027.33 -172 2046 c 0
 -147.333 2080.67 -128.667 2117.33 -116 2156 c 1
 66 2156 l 1
-528 1966 m 0
 -508 1966 -492.667 1975.33 -482 1994 c 0
 -477.333 2002 -475 2010.67 -475 2020 c 0
 -475 2038.67 -484.333 2053.67 -503 2065 c 0
 -511 2070.33 -519.333 2073 -528 2073 c 0
 -550 2073 -566 2063.33 -576 2044 c 1
 -582 2026 l 2
 -582.667 2024 -583 2022 -583 2020 c 0
 -583 1996.67 -572.333 1980 -551 1970 c 0
 -543.667 1967.33 -536 1966 -528 1966 c 0
EndSplineSet
EndChar
StartChar: uni0E4A
Encoding: 192 3658 194
OldEncoding: 3658
Width: 0
Flags: W
Fore
-598 1798 m 0
 -603.333 1822 -614 1835 -630 1837 c 1
 -642 1836 l 1
 -660.667 1830.67 -672.667 1820.67 -678 1806 c 1
 -679 1794 l 1
 -673 1768.67 -660 1756 -640 1756 c 0
 -623.333 1756 -610.667 1764 -602 1780 c 0
 -598.667 1785.33 -597.333 1791.33 -598 1798 c 0
-153 1918 m 1
 -55 2169 l 1
 125 2169 l 2
 124.333 2169 81.3333 2056.67 -4 1832 c 0
 -36.6667 1746.67 -120 1695 -254 1677 c 0
 -277.333 1673.67 -301 1672 -325 1672 c 1
 -299.667 1710.67 -287 1754 -287 1802 c 0
 -287 1861.33 -303.667 1910.67 -337 1950 c 1
 -345.667 1961.33 -355 1970 -365 1976 c 1
 -507 1858 l 1
 -606 1946 l 1
 -646 1975 l 1
 -647 1976 l 1
 -671 1966.67 -690 1948.67 -704 1922 c 0
 -706 1918.67 -707.333 1915.33 -708 1912 c 0
 -710 1906 -711.667 1897.33 -713 1886 c 1
 -692.333 1904.67 -666.333 1914 -635 1914 c 0
 -587 1914 -554 1893 -536 1851 c 0
 -532.667 1843 -530 1834.67 -528 1826 c 1
 -525 1793 l 1
 -525.667 1749.67 -543 1716.67 -577 1694 c 0
 -581.667 1691.33 -586.667 1688.67 -592 1686 c 0
 -616 1674 -644.333 1668 -677 1668 c 0
 -705 1668 -730.667 1672.33 -754 1681 c 0
 -803.333 1699.67 -838 1737.67 -858 1795 c 0
 -867.333 1822.33 -872 1851.33 -872 1882 c 0
 -872 1890.67 -871.667 1899.33 -871 1908 c 0
 -867 1972 -832 2031.33 -766 2086 c 0
 -729.333 2116 -689.667 2138.67 -647 2154 c 1
 -507 2036 l 1
 -365 2154 l 1
 -299 2132 -244.667 2096 -202 2046 c 0
 -168.667 2007.33 -152 1969 -152 1931 c 1
 -153 1918 l 1
EndSplineSet
EndChar
StartChar: uni0E4B
Encoding: 193 3659 195
OldEncoding: 3659
Width: 0
Flags: W
Fore
-164 1793 m 1
 -287 1793 l 1
 -287 1670 l 1
 -459 1670 l 1
 -459 1793 l 1
 -590 1793 l 1
 -590 1967 l 1
 -459 1967 l 1
 -459 2096 l 1
 -287 2096 l 1
 -287 1967 l 1
 -164 1967 l 1
 -164 1793 l 1
EndSplineSet
EndChar
StartChar: uni0E4C
Encoding: 194 3660 196
OldEncoding: 3660
Width: 0
Flags: W
Fore
52 2169 m 1
 32 2113.67 -10 2060.33 -74 2009 c 0
 -118.667 1973.67 -168 1947.33 -222 1930 c 0
 -242.667 1923.33 -262 1919.33 -280 1918 c 1
 -246 1900.67 -223.333 1867 -212 1817 c 1
 -210 1789 l 1
 -210.667 1764.33 -220.667 1734.33 -240 1699 c 0
 -260 1661.67 -298.333 1637 -355 1625 c 0
 -367 1623 -378.667 1621.67 -390 1621 c 1
 -433 1624 l 1
 -489.667 1632.67 -533 1651.33 -563 1680 c 2
 -566 1683 l 2
 -596.667 1715.67 -614 1756.33 -618 1805 c 1
 -618 1831 l 1
 -612.667 1891 -591.333 1937 -554 1969 c 0
 -520 1998.33 -454.667 2023.33 -358 2044 c 0
 -316 2053.33 -290 2059.67 -280 2063 c 0
 -232 2079 -191 2102.33 -157 2133 c 0
 -143.667 2145.67 -134 2157.67 -128 2169 c 1
 52 2169 l 1
-412 1857 m 0
 -440.667 1857 -461.333 1846 -474 1824 c 0
 -479.333 1814.67 -482 1804.33 -482 1793 c 0
 -482 1777 -474 1762.67 -458 1750 c 0
 -444 1738.67 -427.333 1733 -408 1733 c 1
 -376 1737.67 -355.333 1751.67 -346 1775 c 0
 -343.333 1781.67 -342 1788.33 -342 1795 c 0
 -342 1823.67 -355.667 1842.67 -383 1852 c 0
 -391.667 1855.33 -401.333 1857 -412 1857 c 0
EndSplineSet
EndChar
StartChar: uni0E4D
Encoding: 195 3661 197
OldEncoding: 3661
Width: 0
Flags: W
Fore
-261 1522 m 0
 -217.667 1522 -180.667 1506.67 -150 1476 c 1
 -120 1444 -105 1406 -105 1362 c 0
 -105 1319.33 -120 1282.67 -150 1252 c 0
 -180.667 1221.33 -217.667 1206 -261 1206 c 0
 -303.667 1206 -340.667 1221.33 -372 1252 c 0
 -403.333 1282.67 -419 1319.33 -419 1362 c 0
 -419 1406 -403.333 1444 -372 1476 c 0
 -341.333 1506.67 -304.333 1522 -261 1522 c 0
-261 1310 m 0
 -238.333 1310 -222 1320 -212 1340 c 0
 -208.667 1346.67 -207 1354 -207 1362 c 0
 -207 1384 -217 1400 -237 1410 c 0
 -244.333 1413.33 -252.333 1415 -261 1415 c 0
 -283.667 1415 -300 1405 -310 1385 c 1
 -315 1366 l 1
 -315 1362 l 2
 -315 1340 -304.667 1324.33 -284 1315 c 0
 -276.667 1311.67 -269 1310 -261 1310 c 0
EndSplineSet
EndChar
StartChar: uni0E4E
Encoding: 196 3662 198
OldEncoding: 3662
Width: 0
Flags: W
Fore
-102 1885 m 1
 -161.333 1900.33 -217.333 1908.33 -270 1909 c 1
 -307 1907 l 1
 -334.333 1901.67 -348 1888 -348 1866 c 0
 -348 1838.67 -329.333 1820 -292 1810 c 0
 -276 1806 -258 1804 -238 1804 c 2
 -168 1804 l 1
 -168 1675 l 1
 -233 1675 l 2
 -311 1675 -353.333 1659 -360 1627 c 0
 -360.667 1623.67 -361 1620.33 -361 1617 c 1
 -358 1605 l 1
 -345.333 1584.33 -306 1571.67 -240 1567 c 0
 -230 1566.33 -221 1566 -213 1566 c 2
 -135 1566 l 1
 -135 1444 l 1
 -219 1444 l 2
 -319 1444 -398 1461 -456 1495 c 128
 -514 1529 -543 1569.33 -543 1616 c 0
 -543 1655.33 -524 1690.67 -486 1722 c 0
 -473.333 1732 -461.333 1739.33 -450 1744 c 1
 -486.667 1768.67 -508.667 1804 -516 1850 c 1
 -518 1884 l 1
 -515.333 1928.67 -494.667 1964.33 -456 1991 c 0
 -413.333 2021 -354.333 2036 -279 2036 c 0
 -223 2036 -164 2028.33 -102 2013 c 1
 -102 1885 l 1
EndSplineSet
EndChar
StartChar: uni0E4F
Encoding: 197 3663 199
OldEncoding: 3663
Width: 1250
Flags: HW
Fore
617.446 852.166 m 0
 524.688 852.166 445.437 818.38 379.694 750.809 c 1
 313.502 683.695 280.405 602.562 280.405 507.409 c 0
 280.405 412.717 313.502 331.585 379.694 264.013 c 0
 445.437 196.899 524.688 163.344 617.446 163.344 c 0
 710.658 163.344 790.358 196.899 856.55 264.013 c 1
 922.29 331.585 955.164 412.717 955.164 507.409 c 0
 955.164 602.562 922.29 683.695 856.55 750.809 c 0
 790.358 818.38 710.658 852.166 617.446 852.166 c 0
617.419 406.065 m 0
 646.098 406.065 669.626 415.649 688.005 434.817 c 0
 706.383 453.985 715.572 478.299 715.572 507.757 c 0
 715.572 537.215 706.383 561.528 688.005 580.696 c 0
 669.626 599.864 646.098 609.448 617.419 609.448 c 0
 588.942 609.448 565.515 599.864 547.138 580.696 c 0
 528.758 561.528 519.569 537.215 519.569 507.757 c 0
 519.569 478.299 528.758 453.985 547.138 434.817 c 0
 565.515 415.649 588.942 406.065 617.419 406.065 c 0
616.054 1040.03 m 0
 759.704 1040.03 882.537 987.973 984.549 883.854 c 0
 1085.87 780.442 1136.53 655.429 1136.53 508.812 c 0
 1136.53 362.905 1085.87 237.891 984.549 133.772 c 1
 882.537 30.3623 759.704 -21.3428 616.054 -21.3428 c 0
 473.097 -21.3428 350.958 30.3623 249.639 133.772 c 0
 147.626 237.891 96.6191 362.905 96.6191 508.812 c 0
 96.6191 655.429 147.626 780.442 249.639 883.854 c 1
 350.958 987.973 473.097 1040.03 616.054 1040.03 c 0
615.796 258.114 m 0
 542.164 258.114 481.589 281.918 434.067 329.523 c 0
 386.546 377.13 362.784 437.515 362.784 510.678 c 0
 362.784 583.84 386.546 644.225 434.067 691.831 c 0
 481.589 739.438 542.164 763.239 615.796 763.239 c 0
 689.949 763.239 750.787 739.438 798.309 691.831 c 0
 845.829 644.225 869.589 583.84 869.589 510.678 c 0
 869.589 437.515 845.83 377.13 798.309 329.523 c 0
 750.787 281.918 689.949 258.114 615.796 258.114 c 0
EndSplineSet
EndChar
StartChar: uni0E50
Encoding: 198 3664 200
OldEncoding: 3664
Width: 1250
Flags: W
Fore
624 230 m 0
 692 230 748.667 255 794 305 c 0
 833.333 347.667 853 398.667 853 458 c 0
 853 528.667 826.667 586.333 774 631 c 0
 731.333 667.667 681.333 686 624 686 c 0
 556.667 685.333 501.333 660 458 610 c 1
 436 580 l 1
 414 543.333 403 502.667 403 458 c 0
 403 385.333 428.667 326.667 480 282 c 0
 520 247.333 568 230 624 230 c 0
622 -10 m 0
 498.667 -10 393 28.3333 305 105 c 0
 215.667 183 165 283 153 405 c 0
 151 422.333 150 440 150 458 c 0
 150 580.667 190 685.667 270 773 c 0
 350.667 860.333 454.333 910 581 922 c 0
 594.333 923.333 608 924 622 924 c 2
 687 921 l 1
 817.667 908.333 923 853.333 1003 756 c 0
 1071 674 1107.33 581 1112 477 c 0
 1112 467 1112 467 1112 458 c 0
 1112 342.667 1072.33 241 993 153 c 0
 916.333 68.3333 821 16.3333 707 -3 c 0
 679 -7.66667 650.667 -10 622 -10 c 0
EndSplineSet
EndChar
StartChar: uni0E51
Encoding: 199 3665 201
OldEncoding: 3665
Width: 1300
Flags: W
Fore
878 524 m 0
 850 656 768.333 722 633 722 c 2
 626 722 l 2
 538.667 720.667 482 685.333 456 616 c 0
 446.667 590.667 442 566.667 442 544 c 0
 442 520.667 447.333 497.333 458 474 c 0
 476 434.667 500 414.667 530 414 c 0
 540 414 549.333 416.667 558 422 c 1
 522.667 440 500.667 472 492 518 c 1
 489 550 l 1
 490.333 600 511.667 637.667 553 663 c 0
 563 669 573.667 673.667 585 677 c 0
 605.667 683.667 628.333 687 653 687 c 0
 681 687 706.667 683 730 675 c 0
 766 663.667 796 638.333 820 599 c 0
 828.667 584.333 835 569 839 553 c 1
 849 521 854 490.667 854 462 c 0
 854 426.667 846.333 392.667 831 360 c 0
 795 280.667 734.333 231 649 211 c 0
 625 205.667 599.333 203 572 203 c 0
 472.667 203 387 236 315 302 c 0
 293.667 322 275 343.667 259 367 c 0
 229 412.333 213.667 474 213 552 c 1
 217 609 l 1
 221.667 643 230 672.333 242 697 c 0
 307.333 829 413.667 903.667 561 921 c 0
 583 923.667 605 925 627 925 c 0
 742.333 924.333 843.667 893.333 931 832 c 0
 972.333 803.333 1005.67 770.333 1031 733 c 0
 1035 727 1038.67 721 1042 715 c 0
 1083.33 643.667 1104 559.667 1104 463 c 0
 1104 347 1075 250 1017 172 c 0
 1013.67 167.333 1010.33 163 1007 159 c 0
 932.333 66.3333 818.333 12 665 -4 c 0
 634.333 -7.33333 604 -9 574 -9 c 0
 433.333 -8.33333 317.333 22.6667 226 84 c 0
 211.333 93.3333 197.667 103.667 185 115 c 1
 282 292 l 1
 340.667 244.667 396.333 213 449 197 c 0
 481.667 187.667 518 181.333 558 178 c 1
 614 178 l 1
 698.667 182.667 764 213.333 810 270 c 0
 860 330.667 885 395 885 463 c 0
 885 483 882.667 503.333 878 524 c 0
585 545 m 0
 585 520.333 596 502.667 618 492 c 0
 626.667 487.333 636.333 485 647 485 c 0
 678.333 485 698 499.667 706 529 c 0
 708 535 709 541.333 709 548 c 0
 709 569.333 698 585.333 676 596 c 0
 666.667 600.667 656.333 603 645 603 c 0
 618.333 602.333 600 590.667 590 568 c 0
 586.667 560.667 585 553 585 545 c 0
EndSplineSet
EndChar
StartChar: uni0E52
Encoding: 200 3666 202
OldEncoding: 3666
Width: 1350
Flags: W
Fore
600 513 m 0
 600 490.333 610.333 474.333 631 465 c 0
 637.667 462.333 645 461 653 461 c 0
 679 461 696 472.667 704 496 c 0
 706 502 707 508.667 707 516 c 0
 707 537.333 696 551.667 674 559 c 0
 666.667 561.667 659 563 651 563 c 0
 626.333 562.333 610 551.333 602 530 c 0
 600.667 524.667 600 519 600 513 c 0
545 0 m 1
 427.667 6.66667 341.333 53.6667 286 141 c 0
 257.333 187 239.333 242.333 232 307 c 1
 208 611 l 1
 187.333 801 143 975.333 75 1134 c 1
 309 1134 l 1
 369 979.333 410.333 788 433 560 c 0
 444.333 438 452.333 362.667 457 334 c 0
 465 284 487.667 249.667 525 231 c 0
 534.333 226.333 544.333 223 555 221 c 0
 574.333 217.667 598.333 216 627 216 c 2
 1004 217 l 1
 1004 506 l 2
 1004 566 991.667 619.667 967 667 c 0
 958.333 683.667 948 695.333 936 702 c 1
 936 701.333 901.333 678 832 632 c 1
 718 702 l 1
 712 696 707 686.667 703 674 c 1
 730.333 668 756.667 651.333 782 624 c 1
 807.333 598.667 821.667 565 825 523 c 2
 826 511 l 1
 826 469 810.667 430 780 394 c 0
 751.333 360 711 343 659 343 c 0
 575.667 343 519 368.667 489 420 c 0
 467 458 456 513.333 456 586 c 1
 458.667 664 482 732 526 790 c 0
 548 819.333 585.667 851 639 885 c 0
 669 904.333 695.333 917.333 718 924 c 1
 718 923.333 756 892.333 832 831 c 1
 936 924 l 1
 996 908 1054.67 867 1112 801 c 0
 1147.33 759.667 1172.33 719 1187 679 c 0
 1205 631 1214 573.333 1214 506 c 2
 1214 0 l 1
 545 0 l 1
EndSplineSet
EndChar
StartChar: uni0E53
Encoding: 201 3667 203
OldEncoding: 3667
Width: 1400
Flags: W
Fore
321 138 m 1
 328.333 115.333 346 104 374 104 c 2
 388 105 l 1
 414.667 111.667 428 127 428 151 c 0
 428 176.333 416.333 191.667 393 197 c 1
 372 198 l 1
 367.333 197.333 363 196.333 359 195 c 0
 337.667 189.667 325.333 175.667 322 153 c 1
 321 138 l 1
191 108 m 0
 139.667 219.333 106.667 336.667 92 460 c 0
 88 495.333 86 529 86 561 c 0
 86 743 150.333 857 279 903 c 0
 315.667 915.667 357 922.667 403 924 c 1
 460 922 l 1
 544 912.667 613.333 883.667 668 835 c 0
 682.667 821.667 695 807.333 705 792 c 1
 735 848.667 787 887.667 861 909 c 0
 894.333 919 929.667 924 967 924 c 0
 1188.33 924 1299 778.333 1299 487 c 0
 1299.67 407.667 1291.33 317.667 1274 217 c 0
 1263.33 149.667 1248.33 77.3333 1229 0 c 1
 1000 0 l 1
 1036.67 166 1055 304.333 1055 415 c 0
 1055 557 1023.33 628 960 628 c 0
 886 628 839 588.667 819 510 c 0
 808.333 470 803 408.667 803 326 c 1
 804 216 l 1
 600 216 l 1
 600 326.667 599.333 392.667 598 414 c 0
 589.333 530.667 555.333 601 496 625 c 0
 478.667 632.333 458.667 636 436 636 c 0
 360 636 321.667 592.667 321 506 c 0
 321 486 323 463.667 327 439 c 0
 333 405.667 342.667 368.667 356 328 c 1
 368 331.333 380 333 392 333 c 0
 411.333 333.667 430.333 329.667 449 321 c 0
 461.667 315 473 308 483 300 c 0
 528.333 263.333 551 217.667 551 163 c 0
 551 47.6667 481 -10 341 -10 c 1
 275.667 -2.66667 227.333 32.6667 196 96 c 0
 194.667 100 193 104 191 108 c 0
EndSplineSet
EndChar
StartChar: uni0E54
Encoding: 202 3668 204
OldEncoding: 3668
Width: 1550
Flags: W
Fore
1510 1262 m 1
 1506.67 1164 1474 1063.33 1412 960 c 0
 1380 905.333 1346 862 1310 830 c 0
 1216 746 1087.33 704 924 704 c 2
 664 704 l 2
 512.667 704 420.667 658.667 388 568 c 0
 377.333 538.667 372 503.333 372 462 c 0
 372 410.667 393.333 360.333 436 311 c 1
 484 259.667 533.667 233 585 231 c 1
 633.667 231 734.333 252.333 887 295 c 0
 909 301 l 1
 882.333 321.667 861.333 344 846 368 c 0
 824 402.667 813 433 813 459 c 0
 813 533 834 590.333 876 631 c 0
 918.667 671.667 972 692 1036 692 c 0
 1100 692 1148.67 675.333 1182 642 c 1
 1219.33 602.667 1238.67 555.333 1240 500 c 1
 1240 442 1222.33 394.333 1187 357 c 0
 1159.67 329 1126.67 314.333 1088 313 c 1
 1114.67 301.667 1146.67 293.667 1184 289 c 0
 1194 287.667 1202.67 286 1210 284 c 0
 1277.33 267.333 1344 230.333 1410 173 c 1
 1253 -2 l 1
 1227 22 1198 41 1166 55 c 0
 1134.67 69 1089.33 76 1030 76 c 0
 987.333 76 924.333 64 841 40 c 0
 735 9.33333 648 -6 580 -6 c 0
 454 -6 347 40 259 132 c 128
 171 224 127 336.333 127 469 c 0
 127 617.667 177 730.667 277 808 c 128
 377 885.333 508.667 924 672 924 c 2
 918 924 l 2
 1130 924 1250 1036.67 1278 1262 c 1
 1510 1262 l 1
1036 424 m 0
 1054.67 424 1071 430.667 1085 444 c 0
 1098.33 456 1105 471 1105 489 c 0
 1105 507.667 1098.33 524 1085 538 c 1
 1071.67 550.667 1055.33 557 1036 557 c 0
 1017.33 557 1001.33 550.333 988 537 c 0
 975.333 523.667 969 507.667 969 489 c 0
 969 471 975.333 456 988 444 c 0
 1001.33 430.667 1017.33 424 1036 424 c 0
EndSplineSet
EndChar
